<ttFont>
    <TTGlyph name=".notdef" xMin="193" yMin="0" xMax="1034" yMax="1462">
      <contour>
        <pt x="193" y="1462" on="1"/>
        <pt x="1034" y="1462" on="1"/>
        <pt x="1034" y="0" on="1"/>
        <pt x="193" y="0" on="1"/>
      </contour>
      <contour>
        <pt x="297" y="104" on="1"/>
        <pt x="930" y="104" on="1"/>
        <pt x="930" y="1358" on="1"/>
        <pt x="297" y="1358" on="1"/>
      </contour>
    </TTGlyph>
    <TTGlyph name="afii301" xMin="-299" yMin="-338" xMax="299" yMax="1613">
      <contour>
        <pt x="74" y="1323" on="1"/>
        <pt x="299" y="1103" on="1"/>
        <pt x="224" y="1030" on="1"/>
        <pt x="54" y="1199" on="1"/>
        <pt x="54" y="-338" on="1"/>
        <pt x="-54" y="-338" on="1"/>
        <pt x="-54" y="1199" on="1"/>
        <pt x="-224" y="1030" on="1"/>
        <pt x="-299" y="1103" on="1"/>
        <pt x="-74" y="1323" on="1"/>
        <pt x="-299" y="1540" on="1"/>
        <pt x="-224" y="1613" on="1"/>
        <pt x="0" y="1393" on="1"/>
        <pt x="224" y="1613" on="1"/>
        <pt x="299" y="1539" on="1"/>
      </contour>
    </TTGlyph>
    <TTGlyph name="afii61664" xMin="-54" yMin="-339" xMax="54" yMax="1613">
      <contour>
        <pt x="-54" y="-339" on="1"/>
        <pt x="-54" y="1613" on="1"/>
        <pt x="54" y="1613" on="1"/>
        <pt x="54" y="-339" on="1"/>
      </contour>
    </TTGlyph>
    <TTGlyph name="asciicircum" xMin="78" yMin="512" xMax="1094" yMax="1438">
      <contour>
        <pt x="78" y="512" on="1"/>
        <pt x="512" y="1438" on="1"/>
        <pt x="614" y="1438" on="1"/>
        <pt x="1094" y="512" on="1"/>
        <pt x="934" y="512" on="1"/>
        <pt x="565" y="1247" on="1"/>
        <pt x="238" y="512" on="1"/>
      </contour>
    </TTGlyph>
    <TTGlyph name="asciitilde" xMin="102" yMin="568" xMax="1067" yMax="836">
      <contour>
        <pt x="102" y="568" on="1"/>
        <pt x="102" y="728" on="1"/>
        <pt x="203" y="836" on="0"/>
        <pt x="348" y="836" on="1"/>
        <pt x="418" y="836" on="0"/>
        <pt x="541" y="804" on="0"/>
        <pt x="618" y="771" on="1"/>
        <pt x="685" y="742" on="0"/>
        <pt x="784" y="715" on="0"/>
        <pt x="831" y="715" on="1"/>
        <pt x="886" y="715" on="0"/>
        <pt x="1011" y="779" on="0"/>
        <pt x="1067" y="836" on="1"/>
        <pt x="1067" y="678" on="1"/>
        <pt x="964" y="568" on="0"/>
        <pt x="821" y="568" on="1"/>
        <pt x="750" y="568" on="0"/>
        <pt x="627" y="600" on="0"/>
        <pt x="551" y="633" on="1"/>
        <pt x="482" y="663" on="0"/>
        <pt x="384" y="689" on="0"/>
        <pt x="336" y="689" on="1"/>
        <pt x="284" y="689" on="0"/>
        <pt x="156" y="623" on="0"/>
      </contour>
    </TTGlyph>
    <TTGlyph name="asterisk" xMin="84" yMin="704" xMax="1040" yMax="1625">
      <contour>
        <pt x="659" y="1625" on="1"/>
        <pt x="618" y="1232" on="1"/>
        <pt x="1012" y="1343" on="1"/>
        <pt x="1040" y="1154" on="1"/>
        <pt x="664" y="1124" on="1"/>
        <pt x="907" y="800" on="1"/>
        <pt x="731" y="704" on="1"/>
        <pt x="557" y="1062" on="1"/>
        <pt x="399" y="704" on="1"/>
        <pt x="217" y="800" on="1"/>
        <pt x="457" y="1124" on="1"/>
        <pt x="84" y="1154" on="1"/>
        <pt x="113" y="1343" on="1"/>
        <pt x="502" y="1232" on="1"/>
        <pt x="459" y="1625" on="1"/>
      </contour>
    </TTGlyph>
    <TTGlyph name="backslash" xMin="151" yMin="-754" xMax="912" yMax="1625">
      <contour>
        <pt x="328" y="1625" on="1"/>
        <pt x="912" y="-754" on="1"/>
        <pt x="734" y="-754" on="1"/>
        <pt x="151" y="1625" on="1"/>
      </contour>
    </TTGlyph>
    <TTGlyph name="bar" xMin="489" yMin="-753" xMax="639" yMax="1626">
      <contour>
        <pt x="489" y="1626" on="1"/>
        <pt x="639" y="1626" on="1"/>
        <pt x="639" y="-753" on="1"/>
        <pt x="489" y="-753" on="1"/>
      </contour>
    </TTGlyph>
    <TTGlyph name="braceleft" xMin="57" yMin="-754" xMax="713" yMax="1625">
      <contour>
        <pt x="57" y="510" on="1"/>
        <pt x="183" y="511" on="0"/>
        <pt x="307" y="602" on="0"/>
        <pt x="307" y="701" on="1"/>
        <pt x="307" y="1302" on="1"/>
        <pt x="307" y="1456" on="0"/>
        <pt x="522" y="1625" on="0"/>
        <pt x="713" y="1625" on="1"/>
        <pt x="713" y="1478" on="1"/>
        <pt x="485" y="1472" on="0"/>
        <pt x="485" y="1285" on="1"/>
        <pt x="485" y="692" on="1"/>
        <pt x="485" y="481" on="0"/>
        <pt x="262" y="443" on="1"/>
        <pt x="262" y="430" on="1"/>
        <pt x="485" y="393" on="0"/>
        <pt x="485" y="180" on="1"/>
        <pt x="485" y="-416" on="1"/>
        <pt x="485" y="-604" on="0"/>
        <pt x="713" y="-606" on="1"/>
        <pt x="713" y="-754" on="1"/>
        <pt x="516" y="-753" on="0"/>
        <pt x="307" y="-586" on="0"/>
        <pt x="307" y="-428" on="1"/>
        <pt x="307" y="168" on="1"/>
        <pt x="307" y="266" on="0"/>
        <pt x="187" y="361" on="0"/>
        <pt x="57" y="361" on="1"/>
      </contour>
    </TTGlyph>
    <TTGlyph name="braceright" xMin="71" yMin="-754" xMax="726" yMax="1625">
      <contour>
        <pt x="726" y="361" on="1"/>
        <pt x="595" y="359" on="0"/>
        <pt x="476" y="267" on="0"/>
        <pt x="476" y="170" on="1"/>
        <pt x="476" y="-430" on="1"/>
        <pt x="476" y="-583" on="0"/>
        <pt x="262" y="-754" on="0"/>
        <pt x="71" y="-754" on="1"/>
        <pt x="71" y="-606" on="1"/>
        <pt x="298" y="-600" on="0"/>
        <pt x="298" y="-414" on="1"/>
        <pt x="298" y="178" on="1"/>
        <pt x="298" y="389" on="0"/>
        <pt x="521" y="428" on="1"/>
        <pt x="521" y="440" on="1"/>
        <pt x="298" y="479" on="0"/>
        <pt x="298" y="690" on="1"/>
        <pt x="298" y="1287" on="1"/>
        <pt x="298" y="1381" on="0"/>
        <pt x="188" y="1476" on="0"/>
        <pt x="71" y="1478" on="1"/>
        <pt x="71" y="1625" on="1"/>
        <pt x="271" y="1622" on="0"/>
        <pt x="476" y="1455" on="0"/>
        <pt x="476" y="1300" on="1"/>
        <pt x="476" y="703" on="1"/>
        <pt x="476" y="604" on="0"/>
        <pt x="597" y="510" on="0"/>
        <pt x="726" y="510" on="1"/>
      </contour>
    </TTGlyph>
    <TTGlyph name="bracketleft" xMin="164" yMin="-755" xMax="623" yMax="1625">
      <contour>
        <pt x="623" y="-755" on="1"/>
        <pt x="164" y="-755" on="1"/>
        <pt x="164" y="1625" on="1"/>
        <pt x="623" y="1625" on="1"/>
        <pt x="623" y="1478" on="1"/>
        <pt x="340" y="1478" on="1"/>
        <pt x="340" y="-607" on="1"/>
        <pt x="623" y="-607" on="1"/>
      </contour>
    </TTGlyph>
    <TTGlyph name="bracketright" xMin="161" yMin="-756" xMax="620" yMax="1625">
      <contour>
        <pt x="161" y="-608" on="1"/>
        <pt x="444" y="-608" on="1"/>
        <pt x="444" y="1478" on="1"/>
        <pt x="161" y="1478" on="1"/>
        <pt x="161" y="1625" on="1"/>
        <pt x="620" y="1625" on="1"/>
        <pt x="620" y="-756" on="1"/>
        <pt x="161" y="-756" on="1"/>
      </contour>
    </TTGlyph>
    <TTGlyph name="colon" xMin="147" yMin="-24" xMax="401" yMax="926">
      <contour>
        <pt x="272" y="926" on="1"/>
        <pt x="333" y="926" on="0"/>
        <pt x="401" y="855" on="0"/>
        <pt x="401" y="787" on="1"/>
        <pt x="401" y="719" on="0"/>
        <pt x="330" y="648" on="0"/>
        <pt x="272" y="648" on="1"/>
        <pt x="215" y="648" on="0"/>
        <pt x="147" y="719" on="0"/>
        <pt x="147" y="787" on="1"/>
        <pt x="147" y="855" on="0"/>
        <pt x="212" y="926" on="0"/>
      </contour>
      <contour>
        <pt x="272" y="253" on="1"/>
        <pt x="333" y="253" on="0"/>
        <pt x="401" y="183" on="0"/>
        <pt x="401" y="116" on="1"/>
        <pt x="401" y="48" on="0"/>
        <pt x="331" y="-24" on="0"/>
        <pt x="272" y="-24" on="1"/>
        <pt x="214" y="-24" on="0"/>
        <pt x="147" y="48" on="0"/>
        <pt x="147" y="116" on="1"/>
        <pt x="147" y="182" on="0"/>
        <pt x="212" y="253" on="0"/>
      </contour>
    </TTGlyph>
    <TTGlyph name="comma" xMin="104" yMin="-259" xMax="413" yMax="243">
      <contour>
        <pt x="399" y="243" on="1"/>
        <pt x="413" y="220" on="1"/>
        <pt x="361" y="21" on="0"/>
        <pt x="237" y="-259" on="1"/>
        <pt x="104" y="-259" on="1"/>
        <pt x="175" y="28" on="0"/>
        <pt x="206" y="243" on="1"/>
      </contour>
    </TTGlyph>
    <TTGlyph name="divide" xMin="102" yMin="228" xMax="1067" yMax="1174">
      <contour>
        <pt x="584" y="1174" on="1"/>
        <pt x="639" y="1174" on="0"/>
        <pt x="696" y="1111" on="0"/>
        <pt x="696" y="1051" on="1"/>
        <pt x="696" y="991" on="0"/>
        <pt x="635" y="926" on="0"/>
        <pt x="584" y="926" on="1"/>
        <pt x="531" y="926" on="0"/>
        <pt x="469" y="990" on="0"/>
        <pt x="469" y="1051" on="1"/>
        <pt x="469" y="1174" on="0"/>
      </contour>
      <contour>
        <pt x="102" y="629" on="1"/>
        <pt x="102" y="775" on="1"/>
        <pt x="1067" y="775" on="1"/>
        <pt x="1067" y="629" on="1"/>
      </contour>
      <contour>
        <pt x="584" y="476" on="1"/>
        <pt x="639" y="476" on="0"/>
        <pt x="696" y="413" on="0"/>
        <pt x="696" y="353" on="1"/>
        <pt x="696" y="293" on="0"/>
        <pt x="635" y="228" on="0"/>
        <pt x="584" y="228" on="1"/>
        <pt x="531" y="228" on="0"/>
        <pt x="469" y="292" on="0"/>
        <pt x="469" y="353" on="1"/>
        <pt x="469" y="476" on="0"/>
      </contour>
    </TTGlyph>
    <TTGlyph name="eight" xMin="100" yMin="-24" xMax="1069" yMax="1438">
      <contour>
        <pt x="743" y="750" on="1"/>
        <pt x="921" y="666" on="0"/>
        <pt x="1069" y="483" on="0"/>
        <pt x="1069" y="365" on="1"/>
        <pt x="1069" y="187" on="0"/>
        <pt x="810" y="-24" on="0"/>
        <pt x="590" y="-24" on="1"/>
        <pt x="355" y="-24" on="0"/>
        <pt x="100" y="176" on="0"/>
        <pt x="100" y="359" on="1"/>
        <pt x="100" y="481" on="0"/>
        <pt x="251" y="672" on="0"/>
        <pt x="403" y="740" on="1"/>
        <pt x="267" y="816" on="0"/>
        <pt x="147" y="991" on="0"/>
        <pt x="147" y="1100" on="1"/>
        <pt x="147" y="1255" on="0"/>
        <pt x="387" y="1438" on="0"/>
        <pt x="584" y="1438" on="1"/>
        <pt x="786" y="1438" on="0"/>
        <pt x="1022" y="1256" on="0"/>
        <pt x="1022" y="1098" on="1"/>
        <pt x="1022" y="992" on="0"/>
        <pt x="890" y="823" on="0"/>
      </contour>
      <contour>
        <pt x="592" y="820" on="1"/>
        <pt x="726" y="873" on="0"/>
        <pt x="844" y="1002" on="0"/>
        <pt x="844" y="1090" on="1"/>
        <pt x="844" y="1184" on="0"/>
        <pt x="704" y="1292" on="0"/>
        <pt x="582" y="1292" on="1"/>
        <pt x="463" y="1292" on="0"/>
        <pt x="324" y="1183" on="0"/>
        <pt x="324" y="1090" on="1"/>
        <pt x="324" y="1003" on="0"/>
        <pt x="441" y="879" on="0"/>
      </contour>
      <contour>
        <pt x="553" y="666" on="1"/>
        <pt x="409" y="606" on="0"/>
        <pt x="276" y="459" on="0"/>
        <pt x="276" y="358" on="1"/>
        <pt x="276" y="247" on="0"/>
        <pt x="438" y="119" on="0"/>
        <pt x="586" y="119" on="1"/>
        <pt x="729" y="119" on="0"/>
        <pt x="893" y="252" on="0"/>
        <pt x="893" y="364" on="1"/>
        <pt x="893" y="453" on="0"/>
        <pt x="750" y="592" on="0"/>
        <pt x="586" y="654" on="1"/>
      </contour>
    </TTGlyph>
    <TTGlyph name="ellipsis" xMin="147" yMin="-24" xMax="1473" yMax="253">
      <contour>
        <pt x="272" y="253" on="1"/>
        <pt x="333" y="253" on="0"/>
        <pt x="401" y="183" on="0"/>
        <pt x="401" y="116" on="1"/>
        <pt x="401" y="48" on="0"/>
        <pt x="331" y="-24" on="0"/>
        <pt x="272" y="-24" on="1"/>
        <pt x="214" y="-24" on="0"/>
        <pt x="147" y="48" on="0"/>
        <pt x="147" y="116" on="1"/>
        <pt x="147" y="182" on="0"/>
        <pt x="212" y="253" on="0"/>
      </contour>
      <contour>
        <pt x="809" y="253" on="1"/>
        <pt x="870" y="253" on="0"/>
        <pt x="936" y="182" on="0"/>
        <pt x="936" y="116" on="1"/>
        <pt x="936" y="49" on="0"/>
        <pt x="868" y="-24" on="0"/>
        <pt x="809" y="-24" on="1"/>
        <pt x="749" y="-24" on="0"/>
        <pt x="684" y="49" on="0"/>
        <pt x="684" y="116" on="1"/>
        <pt x="684" y="182" on="0"/>
        <pt x="747" y="253" on="0"/>
      </contour>
      <contour>
        <pt x="1343" y="253" on="1"/>
        <pt x="1406" y="253" on="0"/>
        <pt x="1473" y="182" on="0"/>
        <pt x="1473" y="116" on="1"/>
        <pt x="1473" y="49" on="0"/>
        <pt x="1404" y="-24" on="0"/>
        <pt x="1343" y="-24" on="1"/>
        <pt x="1285" y="-24" on="0"/>
        <pt x="1219" y="49" on="0"/>
        <pt x="1219" y="116" on="1"/>
        <pt x="1219" y="182" on="0"/>
        <pt x="1283" y="253" on="0"/>
      </contour>
    </TTGlyph>
    <TTGlyph name="emdash" xMin="82" yMin="499" xMax="1966" yMax="659">
      <contour>
        <pt x="82" y="499" on="1"/>
        <pt x="82" y="659" on="1"/>
        <pt x="1966" y="659" on="1"/>
        <pt x="1966" y="499" on="1"/>
      </contour>
    </TTGlyph>
    <TTGlyph name="endash" xMin="82" yMin="499" xMax="942" yMax="659">
      <contour>
        <pt x="82" y="499" on="1"/>
        <pt x="82" y="659" on="1"/>
        <pt x="942" y="659" on="1"/>
        <pt x="942" y="499" on="1"/>
      </contour>
    </TTGlyph>
    <TTGlyph name="equal" xMin="115" yMin="424" xMax="1053" yMax="977">
      <contour>
        <pt x="115" y="832" on="1"/>
        <pt x="115" y="977" on="1"/>
        <pt x="1053" y="977" on="1"/>
        <pt x="1053" y="832" on="1"/>
      </contour>
      <contour>
        <pt x="115" y="424" on="1"/>
        <pt x="115" y="570" on="1"/>
        <pt x="1053" y="570" on="1"/>
        <pt x="1053" y="424" on="1"/>
      </contour>
    </TTGlyph>
    <TTGlyph name="exclam" xMin="147" yMin="-25" xMax="401" yMax="1425">
      <contour>
        <pt x="334" y="402" on="1"/>
        <pt x="217" y="402" on="1"/>
        <pt x="166" y="1425" on="1"/>
        <pt x="385" y="1425" on="1"/>
      </contour>
      <contour>
        <pt x="274" y="252" on="1"/>
        <pt x="334" y="252" on="0"/>
        <pt x="401" y="181" on="0"/>
        <pt x="401" y="115" on="1"/>
        <pt x="401" y="48" on="0"/>
        <pt x="332" y="-25" on="0"/>
        <pt x="274" y="-25" on="1"/>
        <pt x="215" y="-25" on="0"/>
        <pt x="147" y="47" on="0"/>
        <pt x="147" y="115" on="1"/>
        <pt x="147" y="182" on="0"/>
        <pt x="213" y="252" on="0"/>
      </contour>
    </TTGlyph>
    <TTGlyph name="five" xMin="129" yMin="-24" xMax="1055" yMax="1414">
      <contour>
        <pt x="129" y="55" on="1"/>
        <pt x="129" y="225" on="1"/>
        <pt x="202" y="181" on="0"/>
        <pt x="413" y="129" on="0"/>
        <pt x="510" y="129" on="1"/>
        <pt x="681" y="129" on="0"/>
        <pt x="870" y="287" on="0"/>
        <pt x="870" y="435" on="1"/>
        <pt x="870" y="578" on="0"/>
        <pt x="687" y="722" on="0"/>
        <pt x="504" y="722" on="1"/>
        <pt x="391" y="722" on="0"/>
        <pt x="254" y="692" on="1"/>
        <pt x="164" y="749" on="1"/>
        <pt x="218" y="1414" on="1"/>
        <pt x="952" y="1414" on="1"/>
        <pt x="952" y="1250" on="1"/>
        <pt x="372" y="1250" on="1"/>
        <pt x="338" y="851" on="1"/>
        <pt x="455" y="874" on="0"/>
        <pt x="563" y="874" on="1"/>
        <pt x="790" y="874" on="0"/>
        <pt x="1055" y="649" on="0"/>
        <pt x="1055" y="453" on="1"/>
        <pt x="1055" y="229" on="0"/>
        <pt x="764" y="-24" on="0"/>
        <pt x="508" y="-24" on="1"/>
        <pt x="391" y="-24" on="0"/>
        <pt x="193" y="17" on="0"/>
      </contour>
    </TTGlyph>
    <TTGlyph name="four" xMin="43" yMin="0" xMax="1130" yMax="1424">
      <contour>
        <pt x="1130" y="321" on="1"/>
        <pt x="918" y="321" on="1"/>
        <pt x="918" y="0" on="1"/>
        <pt x="743" y="0" on="1"/>
        <pt x="743" y="321" on="1"/>
        <pt x="43" y="321" on="1"/>
        <pt x="43" y="474" on="1"/>
        <pt x="731" y="1424" on="1"/>
        <pt x="918" y="1424" on="1"/>
        <pt x="918" y="483" on="1"/>
        <pt x="1130" y="483" on="1"/>
      </contour>
      <contour>
        <pt x="743" y="483" on="1"/>
        <pt x="743" y="908" on="1"/>
        <pt x="743" y="1027" on="0"/>
        <pt x="754" y="1235" on="1"/>
        <pt x="745" y="1235" on="1"/>
        <pt x="710" y="1158" on="0"/>
        <pt x="650" y="1073" on="1"/>
        <pt x="219" y="483" on="1"/>
      </contour>
    </TTGlyph>
    <TTGlyph name="glyph00094" xMin="66" yMin="0" xMax="1131" yMax="1130">
      <contour>
        <pt x="592" y="971" on="1"/>
        <pt x="487" y="971" on="0"/>
        <pt x="363" y="963" on="0"/>
        <pt x="277" y="924" on="0"/>
        <pt x="234" y="860" on="0"/>
        <pt x="234" y="809" on="1"/>
        <pt x="234" y="755" on="0"/>
        <pt x="295" y="679" on="0"/>
        <pt x="417" y="645" on="0"/>
        <pt x="543" y="645" on="1"/>
        <pt x="779" y="645" on="1"/>
        <pt x="779" y="486" on="1"/>
        <pt x="581" y="486" on="1"/>
        <pt x="484" y="486" on="0"/>
        <pt x="371" y="476" on="0"/>
        <pt x="291" y="435" on="0"/>
        <pt x="249" y="373" on="0"/>
        <pt x="249" y="327" on="1"/>
        <pt x="249" y="246" on="0"/>
        <pt x="365" y="162" on="0"/>
        <pt x="494" y="162" on="1"/>
        <pt x="507" y="162" on="1"/>
        <pt x="507" y="0" on="1"/>
        <pt x="497" y="0" on="1"/>
        <pt x="338" y="0" on="0"/>
        <pt x="170" y="73" on="0"/>
        <pt x="81" y="214" on="0"/>
        <pt x="81" y="312" on="1"/>
        <pt x="81" y="393" on="0"/>
        <pt x="151" y="512" on="0"/>
        <pt x="228" y="559" on="1"/>
        <pt x="147" y="605" on="0"/>
        <pt x="66" y="742" on="0"/>
        <pt x="66" y="833" on="1"/>
        <pt x="66" y="894" on="0"/>
        <pt x="122" y="1012" on="0"/>
        <pt x="244" y="1097" on="0"/>
        <pt x="415" y="1130" on="0"/>
        <pt x="573" y="1130" on="1"/>
        <pt x="1131" y="1130" on="1"/>
        <pt x="1131" y="971" on="1"/>
      </contour>
    </TTGlyph>
    <TTGlyph name="glyph00095" xMin="56" yMin="-372" xMax="1527" yMax="1154">
      <component glyphName="uni0C9C" x="0" y="0" flags="0x200"/>
      <component glyphName="uni0CBC" x="1317" y="0" flags="0x4"/>
    </TTGlyph>
    <TTGlyph name="glyph00096" xMin="63" yMin="-372" xMax="1541" yMax="1618">
      <contour>
        <pt x="63" y="971" on="1"/>
        <pt x="63" y="1130" on="1"/>
        <pt x="1108" y="1130" on="1"/>
        <pt x="1214" y="1130" on="0"/>
        <pt x="1322" y="1152" on="0"/>
        <pt x="1375" y="1215" on="0"/>
        <pt x="1375" y="1268" on="1"/>
        <pt x="1375" y="1399" on="0"/>
        <pt x="1242" y="1529" on="1"/>
        <pt x="1375" y="1618" on="1"/>
        <pt x="1459" y="1524" on="0"/>
        <pt x="1541" y="1354" on="0"/>
        <pt x="1541" y="1254" on="1"/>
        <pt x="1541" y="1179" on="0"/>
        <pt x="1468" y="1050" on="0"/>
        <pt x="1308" y="971" on="0"/>
        <pt x="1145" y="971" on="1"/>
      </contour>
      <contour>
        <pt x="1345" y="890" on="1"/>
        <pt x="1541" y="675" on="0"/>
        <pt x="1541" y="406" on="1"/>
        <pt x="1541" y="204" on="0"/>
        <pt x="1340" y="-24" on="0"/>
        <pt x="1182" y="-24" on="1"/>
        <pt x="1063" y="-24" on="0"/>
        <pt x="909" y="52" on="0"/>
        <pt x="840" y="160" on="1"/>
        <pt x="780" y="68" on="0"/>
        <pt x="613" y="-24" on="0"/>
        <pt x="462" y="-24" on="1"/>
        <pt x="286" y="-24" on="0"/>
        <pt x="63" y="178" on="0"/>
        <pt x="63" y="341" on="1"/>
        <pt x="63" y="483" on="0"/>
        <pt x="235" y="664" on="0"/>
        <pt x="374" y="664" on="1"/>
        <pt x="483" y="664" on="0"/>
        <pt x="615" y="560" on="0"/>
        <pt x="615" y="473" on="1"/>
        <pt x="615" y="397" on="0"/>
        <pt x="588" y="352" on="1"/>
        <pt x="448" y="365" on="1"/>
        <pt x="461" y="400" on="0"/>
        <pt x="461" y="431" on="1"/>
        <pt x="461" y="475" on="0"/>
        <pt x="411" y="520" on="0"/>
        <pt x="368" y="520" on="1"/>
        <pt x="299" y="520" on="0"/>
        <pt x="219" y="427" on="0"/>
        <pt x="219" y="349" on="1"/>
        <pt x="219" y="251" on="0"/>
        <pt x="354" y="138" on="0"/>
        <pt x="480" y="138" on="1"/>
        <pt x="738" y="138" on="0"/>
        <pt x="761" y="399" on="1"/>
        <pt x="918" y="399" on="1"/>
        <pt x="927" y="274" on="0"/>
        <pt x="1059" y="138" on="0"/>
        <pt x="1167" y="138" on="1"/>
        <pt x="1267" y="138" on="0"/>
        <pt x="1373" y="269" on="0"/>
        <pt x="1373" y="392" on="1"/>
        <pt x="1373" y="499" on="0"/>
        <pt x="1287" y="694" on="0"/>
        <pt x="1201" y="793" on="1"/>
      </contour>
      <contour>
        <pt x="822" y="849" on="1"/>
        <pt x="872" y="849" on="0"/>
        <pt x="942" y="779" on="0"/>
        <pt x="942" y="728" on="1"/>
        <pt x="942" y="678" on="0"/>
        <pt x="871" y="608" on="0"/>
        <pt x="822" y="608" on="1"/>
        <pt x="773" y="608" on="0"/>
        <pt x="704" y="679" on="0"/>
        <pt x="704" y="728" on="1"/>
        <pt x="704" y="777" on="0"/>
        <pt x="771" y="849" on="0"/>
      </contour>
      <contour>
        <pt x="745" y="-294" on="1"/>
        <pt x="761" y="31" on="1"/>
        <pt x="919" y="31" on="1"/>
        <pt x="935" y="-294" on="1"/>
      </contour>
      <contour>
        <pt x="1172" y="-131" on="1"/>
        <pt x="1222" y="-131" on="0"/>
        <pt x="1292" y="-201" on="0"/>
        <pt x="1292" y="-252" on="1"/>
        <pt x="1292" y="-302" on="0"/>
        <pt x="1221" y="-372" on="0"/>
        <pt x="1172" y="-372" on="1"/>
        <pt x="1123" y="-372" on="0"/>
        <pt x="1054" y="-301" on="0"/>
        <pt x="1054" y="-252" on="1"/>
        <pt x="1054" y="-203" on="0"/>
        <pt x="1121" y="-131" on="0"/>
      </contour>
      <contour>
        <pt x="507" y="-131" on="1"/>
        <pt x="557" y="-131" on="0"/>
        <pt x="627" y="-201" on="0"/>
        <pt x="627" y="-252" on="1"/>
        <pt x="627" y="-302" on="0"/>
        <pt x="556" y="-372" on="0"/>
        <pt x="507" y="-372" on="1"/>
        <pt x="458" y="-372" on="0"/>
        <pt x="389" y="-301" on="0"/>
        <pt x="389" y="-252" on="1"/>
        <pt x="389" y="-203" on="0"/>
        <pt x="456" y="-131" on="0"/>
      </contour>
    </TTGlyph>
    <TTGlyph name="glyph00097" xMin="-272" yMin="-754" xMax="446" yMax="198">
      <contour>
        <pt x="305" y="-344" on="1"/>
        <pt x="398" y="-400" on="0"/>
        <pt x="398" y="-516" on="1"/>
        <pt x="398" y="-631" on="0"/>
        <pt x="233" y="-754" on="0"/>
        <pt x="77" y="-754" on="1"/>
        <pt x="-70" y="-754" on="0"/>
        <pt x="-234" y="-629" on="0"/>
        <pt x="-234" y="-519" on="1"/>
        <pt x="-234" y="-405" on="0"/>
        <pt x="-139" y="-344" on="1"/>
        <pt x="-272" y="-348" on="1"/>
        <pt x="-272" y="-216" on="1"/>
        <pt x="35" y="-216" on="1"/>
        <pt x="95" y="-145" on="0"/>
        <pt x="95" y="-52" on="1"/>
        <pt x="95" y="44" on="0"/>
        <pt x="34" y="155" on="1"/>
        <pt x="186" y="198" on="1"/>
        <pt x="251" y="79" on="0"/>
        <pt x="251" y="-39" on="1"/>
        <pt x="251" y="-127" on="0"/>
        <pt x="192" y="-216" on="1"/>
        <pt x="446" y="-216" on="1"/>
        <pt x="446" y="-348" on="1"/>
      </contour>
      <contour>
        <pt x="82" y="-348" on="1"/>
        <pt x="-2" y="-348" on="0"/>
        <pt x="-90" y="-424" on="0"/>
        <pt x="-90" y="-488" on="1"/>
        <pt x="-90" y="-552" on="0"/>
        <pt x="-1" y="-622" on="0"/>
        <pt x="82" y="-622" on="1"/>
        <pt x="165" y="-622" on="0"/>
        <pt x="255" y="-551" on="0"/>
        <pt x="255" y="-488" on="1"/>
        <pt x="255" y="-422" on="0"/>
        <pt x="164" y="-348" on="0"/>
      </contour>
    </TTGlyph>
    <TTGlyph name="glyph00098" xMin="-744" yMin="-754" xMax="325" yMax="142">
      <contour>
        <pt x="-668" y="-383" on="1"/>
        <pt x="-683" y="-338" on="0"/>
        <pt x="-683" y="-295" on="1"/>
        <pt x="-683" y="-212" on="0"/>
        <pt x="-553" y="-113" on="0"/>
        <pt x="-447" y="-113" on="1"/>
        <pt x="-304" y="-113" on="0"/>
        <pt x="-136" y="-276" on="0"/>
        <pt x="-136" y="-401" on="1"/>
        <pt x="-136" y="-490" on="0"/>
        <pt x="-176" y="-570" on="1"/>
        <pt x="-136" y="-595" on="0"/>
        <pt x="-58" y="-622" on="0"/>
        <pt x="-11" y="-622" on="1"/>
        <pt x="85" y="-622" on="0"/>
        <pt x="168" y="-506" on="0"/>
        <pt x="168" y="-392" on="1"/>
        <pt x="168" y="-275" on="0"/>
        <pt x="94" y="-30" on="0"/>
        <pt x="23" y="74" on="1"/>
        <pt x="160" y="142" on="1"/>
        <pt x="325" y="-108" on="0"/>
        <pt x="325" y="-380" on="1"/>
        <pt x="325" y="-566" on="0"/>
        <pt x="158" y="-754" on="0"/>
        <pt x="0" y="-754" on="1"/>
        <pt x="-62" y="-754" on="0"/>
        <pt x="-177" y="-717" on="0"/>
        <pt x="-254" y="-667" on="1"/>
        <pt x="-352" y="-754" on="0"/>
        <pt x="-513" y="-754" on="1"/>
        <pt x="-625" y="-754" on="0"/>
        <pt x="-744" y="-662" on="0"/>
        <pt x="-744" y="-573" on="1"/>
        <pt x="-744" y="-502" on="0"/>
        <pt x="-637" y="-411" on="0"/>
        <pt x="-545" y="-411" on="1"/>
        <pt x="-490" y="-411" on="0"/>
        <pt x="-382" y="-446" on="0"/>
        <pt x="-293" y="-499" on="1"/>
        <pt x="-282" y="-462" on="0"/>
        <pt x="-282" y="-412" on="1"/>
        <pt x="-282" y="-334" on="0"/>
        <pt x="-369" y="-242" on="0"/>
        <pt x="-444" y="-242" on="1"/>
        <pt x="-538" y="-242" on="0"/>
        <pt x="-538" y="-322" on="1"/>
        <pt x="-538" y="-346" on="0"/>
        <pt x="-532" y="-364" on="1"/>
      </contour>
      <contour>
        <pt x="-362" y="-595" on="1"/>
        <pt x="-424" y="-555" on="0"/>
        <pt x="-497" y="-529" on="0"/>
        <pt x="-532" y="-529" on="1"/>
        <pt x="-607" y="-529" on="0"/>
        <pt x="-607" y="-577" on="1"/>
        <pt x="-607" y="-603" on="0"/>
        <pt x="-554" y="-631" on="0"/>
        <pt x="-506" y="-631" on="1"/>
        <pt x="-419" y="-631" on="0"/>
      </contour>
    </TTGlyph>
    <TTGlyph name="glyph00099" xMin="-598" yMin="-740" xMax="142" yMax="-113">
      <contour>
        <pt x="142" y="-740" on="1"/>
        <pt x="-15" y="-740" on="1"/>
        <pt x="-15" y="-625" on="1"/>
        <pt x="-15" y="-413" on="0"/>
        <pt x="-132" y="-245" on="0"/>
        <pt x="-225" y="-245" on="1"/>
        <pt x="-329" y="-245" on="0"/>
        <pt x="-441" y="-423" on="0"/>
        <pt x="-441" y="-627" on="1"/>
        <pt x="-441" y="-740" on="1"/>
        <pt x="-598" y="-740" on="1"/>
        <pt x="-598" y="-626" on="1"/>
        <pt x="-598" y="-435" on="0"/>
        <pt x="-502" y="-222" on="0"/>
        <pt x="-337" y="-113" on="0"/>
        <pt x="-228" y="-113" on="1"/>
        <pt x="-118" y="-113" on="0"/>
        <pt x="46" y="-224" on="0"/>
        <pt x="142" y="-435" on="0"/>
        <pt x="142" y="-623" on="1"/>
      </contour>
    </TTGlyph>
    <TTGlyph name="glyph00100" xMin="-861" yMin="-858" xMax="497" yMax="251">
      <contour>
        <pt x="63" y="31" on="1"/>
        <pt x="95" y="-9" on="0"/>
        <pt x="129" y="-76" on="1"/>
        <pt x="173" y="-135" on="0"/>
        <pt x="243" y="-135" on="1"/>
        <pt x="293" y="-135" on="0"/>
        <pt x="341" y="-82" on="0"/>
        <pt x="341" y="-39" on="1"/>
        <pt x="341" y="8" on="0"/>
        <pt x="296" y="95" on="0"/>
        <pt x="239" y="144" on="1"/>
        <pt x="353" y="251" on="1"/>
        <pt x="497" y="120" on="0"/>
        <pt x="497" y="-34" on="1"/>
        <pt x="497" y="-148" on="0"/>
        <pt x="367" y="-265" on="0"/>
        <pt x="261" y="-265" on="1"/>
        <pt x="227" y="-265" on="0"/>
        <pt x="195" y="-256" on="1"/>
        <pt x="212" y="-314" on="0"/>
        <pt x="212" y="-378" on="1"/>
        <pt x="212" y="-523" on="0"/>
        <pt x="64" y="-674" on="0"/>
        <pt x="-80" y="-674" on="1"/>
        <pt x="-228" y="-674" on="0"/>
        <pt x="-308" y="-557" on="1"/>
        <pt x="-358" y="-619" on="0"/>
        <pt x="-484" y="-674" on="0"/>
        <pt x="-574" y="-674" on="1"/>
        <pt x="-697" y="-674" on="0"/>
        <pt x="-861" y="-533" on="0"/>
        <pt x="-861" y="-421" on="1"/>
        <pt x="-861" y="-322" on="0"/>
        <pt x="-738" y="-199" on="0"/>
        <pt x="-636" y="-199" on="1"/>
        <pt x="-552" y="-199" on="0"/>
        <pt x="-455" y="-277" on="0"/>
        <pt x="-455" y="-344" on="1"/>
        <pt x="-455" y="-400" on="0"/>
        <pt x="-477" y="-433" on="1"/>
        <pt x="-596" y="-423" on="1"/>
        <pt x="-587" y="-399" on="0"/>
        <pt x="-587" y="-378" on="1"/>
        <pt x="-587" y="-355" on="0"/>
        <pt x="-615" y="-323" on="0"/>
        <pt x="-647" y="-323" on="1"/>
        <pt x="-682" y="-323" on="0"/>
        <pt x="-725" y="-371" on="0"/>
        <pt x="-725" y="-418" on="1"/>
        <pt x="-725" y="-481" on="0"/>
        <pt x="-640" y="-541" on="0"/>
        <pt x="-565" y="-541" on="1"/>
        <pt x="-482" y="-541" on="0"/>
        <pt x="-384" y="-460" on="0"/>
        <pt x="-374" y="-382" on="1"/>
        <pt x="-239" y="-382" on="1"/>
        <pt x="-232" y="-461" on="0"/>
        <pt x="-151" y="-542" on="0"/>
        <pt x="-89" y="-542" on="1"/>
        <pt x="55" y="-542" on="0"/>
        <pt x="55" y="-377" on="1"/>
        <pt x="55" y="-297" on="0"/>
        <pt x="-8" y="-123" on="0"/>
        <pt x="-71" y="-39" on="1"/>
      </contour>
      <contour>
        <pt x="-387" y="-858" on="1"/>
        <pt x="-377" y="-644" on="1"/>
        <pt x="-237" y="-644" on="1"/>
        <pt x="-227" y="-858" on="1"/>
      </contour>
    </TTGlyph>
    <TTGlyph name="glyph00101" xMin="-733" yMin="-754" xMax="258" yMax="-113">
      <contour>
        <pt x="229" y="-410" on="1"/>
        <pt x="258" y="-474" on="0"/>
        <pt x="258" y="-542" on="1"/>
        <pt x="258" y="-641" on="0"/>
        <pt x="131" y="-754" on="0"/>
        <pt x="14" y="-754" on="1"/>
        <pt x="-134" y="-754" on="0"/>
        <pt x="-220" y="-636" on="1"/>
        <pt x="-268" y="-697" on="0"/>
        <pt x="-387" y="-754" on="0"/>
        <pt x="-464" y="-754" on="1"/>
        <pt x="-567" y="-754" on="0"/>
        <pt x="-681" y="-660" on="0"/>
        <pt x="-681" y="-582" on="1"/>
        <pt x="-681" y="-518" on="0"/>
        <pt x="-605" y="-426" on="0"/>
        <pt x="-512" y="-380" on="1"/>
        <pt x="-455" y="-352" on="0"/>
        <pt x="-403" y="-308" on="0"/>
        <pt x="-403" y="-283" on="1"/>
        <pt x="-403" y="-234" on="0"/>
        <pt x="-485" y="-234" on="1"/>
        <pt x="-590" y="-234" on="0"/>
        <pt x="-590" y="-296" on="1"/>
        <pt x="-590" y="-322" on="0"/>
        <pt x="-578" y="-344" on="1"/>
        <pt x="-707" y="-386" on="1"/>
        <pt x="-733" y="-333" on="0"/>
        <pt x="-733" y="-273" on="1"/>
        <pt x="-733" y="-203" on="0"/>
        <pt x="-600" y="-113" on="0"/>
        <pt x="-486" y="-113" on="1"/>
        <pt x="-410" y="-113" on="0"/>
        <pt x="-309" y="-151" on="0"/>
        <pt x="-284" y="-190" on="1"/>
        <pt x="-174" y="-113" on="0"/>
        <pt x="-35" y="-113" on="1"/>
        <pt x="79" y="-113" on="0"/>
        <pt x="206" y="-209" on="0"/>
        <pt x="206" y="-297" on="1"/>
        <pt x="206" y="-344" on="0"/>
        <pt x="193" y="-387" on="1"/>
        <pt x="58" y="-368" on="1"/>
        <pt x="64" y="-342" on="0"/>
        <pt x="64" y="-317" on="1"/>
        <pt x="64" y="-239" on="0"/>
        <pt x="-46" y="-239" on="1"/>
        <pt x="-174" y="-239" on="0"/>
        <pt x="-267" y="-322" on="1"/>
        <pt x="-275" y="-363" on="0"/>
        <pt x="-335" y="-425" on="0"/>
        <pt x="-399" y="-458" on="1"/>
        <pt x="-489" y="-504" on="0"/>
        <pt x="-536" y="-544" on="0"/>
        <pt x="-536" y="-570" on="1"/>
        <pt x="-536" y="-622" on="0"/>
        <pt x="-457" y="-622" on="1"/>
        <pt x="-391" y="-622" on="0"/>
        <pt x="-306" y="-565" on="0"/>
        <pt x="-282" y="-499" on="1"/>
        <pt x="-143" y="-499" on="1"/>
        <pt x="-110" y="-622" on="0"/>
        <pt x="-3" y="-622" on="1"/>
        <pt x="53" y="-622" on="0"/>
        <pt x="113" y="-572" on="0"/>
        <pt x="113" y="-529" on="1"/>
        <pt x="113" y="-492" on="0"/>
        <pt x="98" y="-456" on="1"/>
      </contour>
      <contour>
        <pt x="-140" y="-308" on="1"/>
        <pt x="-104" y="-308" on="0"/>
        <pt x="-53" y="-356" on="0"/>
        <pt x="-53" y="-392" on="1"/>
        <pt x="-53" y="-428" on="0"/>
        <pt x="-105" y="-476" on="0"/>
        <pt x="-140" y="-476" on="1"/>
        <pt x="-174" y="-476" on="0"/>
        <pt x="-225" y="-427" on="0"/>
        <pt x="-225" y="-392" on="1"/>
        <pt x="-225" y="-357" on="0"/>
        <pt x="-175" y="-308" on="0"/>
      </contour>
    </TTGlyph>
    <TTGlyph name="glyph00102" xMin="-753" yMin="-754" xMax="318" yMax="198">
      <contour>
        <pt x="-162" y="-473" on="1"/>
        <pt x="-146" y="-550" on="0"/>
        <pt x="-68" y="-622" on="0"/>
        <pt x="-3" y="-622" on="1"/>
        <pt x="65" y="-622" on="0"/>
        <pt x="134" y="-564" on="0"/>
        <pt x="134" y="-509" on="1"/>
        <pt x="134" y="-401" on="0"/>
        <pt x="31" y="-348" on="1"/>
        <pt x="-135" y="-348" on="1"/>
        <pt x="-135" y="-216" on="1"/>
        <pt x="35" y="-216" on="1"/>
        <pt x="95" y="-145" on="0"/>
        <pt x="95" y="-52" on="1"/>
        <pt x="95" y="44" on="0"/>
        <pt x="34" y="155" on="1"/>
        <pt x="186" y="198" on="1"/>
        <pt x="251" y="79" on="0"/>
        <pt x="251" y="-39" on="1"/>
        <pt x="251" y="-127" on="0"/>
        <pt x="192" y="-216" on="1"/>
        <pt x="318" y="-216" on="1"/>
        <pt x="318" y="-348" on="1"/>
        <pt x="200" y="-344" on="1"/>
        <pt x="279" y="-417" on="0"/>
        <pt x="279" y="-518" on="1"/>
        <pt x="279" y="-626" on="0"/>
        <pt x="131" y="-754" on="0"/>
        <pt x="6" y="-754" on="1"/>
        <pt x="-76" y="-754" on="0"/>
        <pt x="-192" y="-697" on="0"/>
        <pt x="-233" y="-636" on="1"/>
        <pt x="-326" y="-754" on="0"/>
        <pt x="-484" y="-754" on="1"/>
        <pt x="-587" y="-754" on="0"/>
        <pt x="-701" y="-660" on="0"/>
        <pt x="-701" y="-582" on="1"/>
        <pt x="-701" y="-518" on="0"/>
        <pt x="-625" y="-426" on="0"/>
        <pt x="-532" y="-380" on="1"/>
        <pt x="-475" y="-352" on="0"/>
        <pt x="-423" y="-308" on="0"/>
        <pt x="-423" y="-283" on="1"/>
        <pt x="-423" y="-234" on="0"/>
        <pt x="-505" y="-234" on="1"/>
        <pt x="-610" y="-234" on="0"/>
        <pt x="-610" y="-296" on="1"/>
        <pt x="-610" y="-322" on="0"/>
        <pt x="-598" y="-344" on="1"/>
        <pt x="-727" y="-386" on="1"/>
        <pt x="-753" y="-333" on="0"/>
        <pt x="-753" y="-273" on="1"/>
        <pt x="-753" y="-203" on="0"/>
        <pt x="-620" y="-113" on="0"/>
        <pt x="-506" y="-113" on="1"/>
        <pt x="-280" y="-113" on="0"/>
        <pt x="-280" y="-279" on="1"/>
        <pt x="-280" y="-341" on="0"/>
        <pt x="-350" y="-424" on="0"/>
        <pt x="-422" y="-460" on="1"/>
        <pt x="-501" y="-500" on="0"/>
        <pt x="-556" y="-542" on="0"/>
        <pt x="-556" y="-570" on="1"/>
        <pt x="-556" y="-622" on="0"/>
        <pt x="-477" y="-622" on="1"/>
        <pt x="-404" y="-622" on="0"/>
        <pt x="-312" y="-544" on="0"/>
        <pt x="-301" y="-473" on="1"/>
      </contour>
    </TTGlyph>
    <TTGlyph name="glyph00103" xMin="-770" yMin="-938" xMax="325" yMax="142">
      <contour>
        <pt x="-630" y="-447" on="1"/>
        <pt x="-630" y="-530" on="0"/>
        <pt x="-553" y="-622" on="0"/>
        <pt x="-465" y="-622" on="1"/>
        <pt x="-390" y="-622" on="0"/>
        <pt x="-297" y="-543" on="0"/>
        <pt x="-287" y="-473" on="1"/>
        <pt x="-148" y="-473" on="1"/>
        <pt x="-124" y="-622" on="0"/>
        <pt x="1" y="-622" on="1"/>
        <pt x="81" y="-622" on="0"/>
        <pt x="168" y="-516" on="0"/>
        <pt x="168" y="-378" on="1"/>
        <pt x="168" y="-272" on="0"/>
        <pt x="91" y="-21" on="0"/>
        <pt x="23" y="74" on="1"/>
        <pt x="160" y="142" on="1"/>
        <pt x="325" y="-104" on="0"/>
        <pt x="325" y="-370" on="1"/>
        <pt x="325" y="-557" on="0"/>
        <pt x="162" y="-754" on="0"/>
        <pt x="10" y="-754" on="1"/>
        <pt x="-138" y="-754" on="0"/>
        <pt x="-217" y="-636" on="1"/>
        <pt x="-269" y="-698" on="0"/>
        <pt x="-389" y="-754" on="0"/>
        <pt x="-474" y="-754" on="1"/>
        <pt x="-608" y="-754" on="0"/>
        <pt x="-770" y="-587" on="0"/>
        <pt x="-770" y="-441" on="1"/>
        <pt x="-770" y="-298" on="0"/>
        <pt x="-599" y="-113" on="0"/>
        <pt x="-465" y="-113" on="1"/>
        <pt x="-366" y="-113" on="0"/>
        <pt x="-259" y="-211" on="0"/>
        <pt x="-259" y="-295" on="1"/>
        <pt x="-259" y="-383" on="0"/>
        <pt x="-377" y="-481" on="0"/>
        <pt x="-488" y="-481" on="1"/>
        <pt x="-568" y="-481" on="0"/>
      </contour>
      <contour>
        <pt x="-612" y="-334" on="1"/>
        <pt x="-566" y="-363" on="0"/>
        <pt x="-503" y="-363" on="1"/>
        <pt x="-395" y="-363" on="0"/>
        <pt x="-395" y="-295" on="1"/>
        <pt x="-395" y="-266" on="0"/>
        <pt x="-434" y="-235" on="0"/>
        <pt x="-469" y="-235" on="1"/>
        <pt x="-519" y="-235" on="0"/>
        <pt x="-594" y="-286" on="0"/>
      </contour>
      <contour>
        <pt x="-297" y="-938" on="1"/>
        <pt x="-287" y="-724" on="1"/>
        <pt x="-147" y="-724" on="1"/>
        <pt x="-137" y="-938" on="1"/>
      </contour>
    </TTGlyph>
    <TTGlyph name="glyph00104" xMin="-733" yMin="-754" xMax="258" yMax="-112">
      <contour>
        <pt x="214" y="-381" on="1"/>
        <pt x="258" y="-454" on="0"/>
        <pt x="258" y="-542" on="1"/>
        <pt x="258" y="-641" on="0"/>
        <pt x="131" y="-754" on="0"/>
        <pt x="14" y="-754" on="1"/>
        <pt x="-134" y="-754" on="0"/>
        <pt x="-220" y="-636" on="1"/>
        <pt x="-268" y="-697" on="0"/>
        <pt x="-387" y="-754" on="0"/>
        <pt x="-464" y="-754" on="1"/>
        <pt x="-567" y="-754" on="0"/>
        <pt x="-681" y="-660" on="0"/>
        <pt x="-681" y="-582" on="1"/>
        <pt x="-681" y="-518" on="0"/>
        <pt x="-605" y="-426" on="0"/>
        <pt x="-512" y="-380" on="1"/>
        <pt x="-455" y="-352" on="0"/>
        <pt x="-403" y="-308" on="0"/>
        <pt x="-403" y="-283" on="1"/>
        <pt x="-403" y="-234" on="0"/>
        <pt x="-485" y="-234" on="1"/>
        <pt x="-590" y="-234" on="0"/>
        <pt x="-590" y="-296" on="1"/>
        <pt x="-590" y="-322" on="0"/>
        <pt x="-578" y="-344" on="1"/>
        <pt x="-707" y="-386" on="1"/>
        <pt x="-733" y="-333" on="0"/>
        <pt x="-733" y="-273" on="1"/>
        <pt x="-733" y="-203" on="0"/>
        <pt x="-600" y="-113" on="0"/>
        <pt x="-486" y="-113" on="1"/>
        <pt x="-409" y="-113" on="0"/>
        <pt x="-307" y="-152" on="0"/>
        <pt x="-283" y="-192" on="1"/>
        <pt x="-190" y="-287" on="0"/>
        <pt x="-82" y="-287" on="1"/>
        <pt x="-27" y="-287" on="0"/>
        <pt x="34" y="-246" on="0"/>
        <pt x="34" y="-205" on="1"/>
        <pt x="34" y="-175" on="0"/>
        <pt x="20" y="-136" on="1"/>
        <pt x="156" y="-112" on="1"/>
        <pt x="176" y="-156" on="0"/>
        <pt x="176" y="-216" on="1"/>
        <pt x="176" y="-308" on="0"/>
        <pt x="56" y="-411" on="0"/>
        <pt x="-52" y="-411" on="1"/>
        <pt x="-178" y="-411" on="0"/>
        <pt x="-275" y="-348" on="1"/>
        <pt x="-298" y="-406" on="0"/>
        <pt x="-399" y="-458" on="1"/>
        <pt x="-489" y="-504" on="0"/>
        <pt x="-536" y="-544" on="0"/>
        <pt x="-536" y="-570" on="1"/>
        <pt x="-536" y="-622" on="0"/>
        <pt x="-457" y="-622" on="1"/>
        <pt x="-310" y="-622" on="0"/>
        <pt x="-282" y="-483" on="1"/>
        <pt x="-143" y="-483" on="1"/>
        <pt x="-121" y="-622" on="0"/>
        <pt x="-3" y="-622" on="1"/>
        <pt x="54" y="-622" on="0"/>
        <pt x="113" y="-572" on="0"/>
        <pt x="113" y="-528" on="1"/>
        <pt x="113" y="-476" on="0"/>
        <pt x="84" y="-431" on="1"/>
      </contour>
    </TTGlyph>
    <TTGlyph name="glyph00105" xMin="-942" yMin="-938" xMax="606" yMax="-111">
      <contour>
        <pt x="96" y="-669" on="1"/>
        <pt x="60" y="-711" on="0"/>
        <pt x="-44" y="-754" on="0"/>
        <pt x="-113" y="-754" on="1"/>
        <pt x="-182" y="-754" on="0"/>
        <pt x="-309" y="-705" on="0"/>
        <pt x="-366" y="-657" on="1"/>
        <pt x="-411" y="-705" on="0"/>
        <pt x="-533" y="-754" on="0"/>
        <pt x="-610" y="-754" on="1"/>
        <pt x="-768" y="-754" on="0"/>
        <pt x="-942" y="-573" on="0"/>
        <pt x="-942" y="-430" on="1"/>
        <pt x="-942" y="-290" on="0"/>
        <pt x="-763" y="-113" on="0"/>
        <pt x="-614" y="-113" on="1"/>
        <pt x="-512" y="-113" on="0"/>
        <pt x="-363" y="-194" on="0"/>
        <pt x="-285" y="-342" on="0"/>
        <pt x="-285" y="-426" on="1"/>
        <pt x="-285" y="-495" on="0"/>
        <pt x="-302" y="-544" on="1"/>
        <pt x="-265" y="-582" on="0"/>
        <pt x="-184" y="-622" on="0"/>
        <pt x="-132" y="-622" on="1"/>
        <pt x="-61" y="-622" on="0"/>
        <pt x="14" y="-551" on="0"/>
        <pt x="14" y="-484" on="1"/>
        <pt x="14" y="-403" on="0"/>
        <pt x="-76" y="-282" on="0"/>
        <pt x="-188" y="-229" on="1"/>
        <pt x="-108" y="-111" on="1"/>
        <pt x="159" y="-240" on="0"/>
        <pt x="159" y="-472" on="1"/>
        <pt x="159" y="-512" on="0"/>
        <pt x="151" y="-550" on="1"/>
        <pt x="187" y="-585" on="0"/>
        <pt x="265" y="-622" on="0"/>
        <pt x="315" y="-622" on="1"/>
        <pt x="386" y="-622" on="0"/>
        <pt x="461" y="-551" on="0"/>
        <pt x="461" y="-484" on="1"/>
        <pt x="461" y="-403" on="0"/>
        <pt x="371" y="-282" on="0"/>
        <pt x="259" y="-229" on="1"/>
        <pt x="339" y="-111" on="1"/>
        <pt x="606" y="-240" on="0"/>
        <pt x="606" y="-472" on="1"/>
        <pt x="606" y="-603" on="0"/>
        <pt x="463" y="-754" on="0"/>
        <pt x="334" y="-754" on="1"/>
        <pt x="206" y="-754" on="0"/>
      </contour>
      <contour>
        <pt x="-615" y="-245" on="1"/>
        <pt x="-700" y="-245" on="0"/>
        <pt x="-797" y="-344" on="0"/>
        <pt x="-797" y="-432" on="1"/>
        <pt x="-797" y="-520" on="0"/>
        <pt x="-699" y="-622" on="0"/>
        <pt x="-613" y="-622" on="1"/>
        <pt x="-529" y="-622" on="0"/>
        <pt x="-430" y="-524" on="0"/>
        <pt x="-430" y="-438" on="1"/>
        <pt x="-430" y="-347" on="0"/>
        <pt x="-526" y="-245" on="0"/>
      </contour>
      <contour>
        <pt x="23" y="-938" on="1"/>
        <pt x="33" y="-724" on="1"/>
        <pt x="173" y="-724" on="1"/>
        <pt x="183" y="-938" on="1"/>
      </contour>
    </TTGlyph>
    <TTGlyph name="glyph00106" xMin="-910" yMin="-856" xMax="390" yMax="-113">
      <contour>
        <pt x="-880" y="-451" on="1"/>
        <pt x="-910" y="-382" on="0"/>
        <pt x="-910" y="-304" on="1"/>
        <pt x="-910" y="-219" on="0"/>
        <pt x="-783" y="-113" on="0"/>
        <pt x="-689" y="-113" on="1"/>
        <pt x="-615" y="-113" on="0"/>
        <pt x="-510" y="-165" on="0"/>
        <pt x="-466" y="-220" on="1"/>
        <pt x="-387" y="-113" on="0"/>
        <pt x="-245" y="-113" on="1"/>
        <pt x="-178" y="-113" on="0"/>
        <pt x="-76" y="-159" on="0"/>
        <pt x="-41" y="-205" on="1"/>
        <pt x="49" y="-113" on="0"/>
        <pt x="172" y="-113" on="1"/>
        <pt x="267" y="-113" on="0"/>
        <pt x="390" y="-221" on="0"/>
        <pt x="390" y="-304" on="1"/>
        <pt x="390" y="-382" on="0"/>
        <pt x="360" y="-451" on="1"/>
        <pt x="227" y="-417" on="1"/>
        <pt x="234" y="-402" on="0"/>
        <pt x="244" y="-352" on="0"/>
        <pt x="244" y="-337" on="1"/>
        <pt x="244" y="-295" on="0"/>
        <pt x="194" y="-245" on="0"/>
        <pt x="150" y="-245" on="1"/>
        <pt x="70" y="-245" on="0"/>
        <pt x="12" y="-338" on="1"/>
        <pt x="18" y="-371" on="0"/>
        <pt x="18" y="-409" on="1"/>
        <pt x="18" y="-478" on="0"/>
        <pt x="-35" y="-612" on="0"/>
        <pt x="-87" y="-663" on="1"/>
        <pt x="-43" y="-736" on="0"/>
        <pt x="-22" y="-830" on="1"/>
        <pt x="-166" y="-856" on="1"/>
        <pt x="-179" y="-788" on="0"/>
        <pt x="-203" y="-740" on="1"/>
        <pt x="-263" y="-770" on="0"/>
        <pt x="-403" y="-801" on="0"/>
        <pt x="-483" y="-801" on="1"/>
        <pt x="-615" y="-801" on="0"/>
        <pt x="-757" y="-698" on="0"/>
        <pt x="-757" y="-608" on="1"/>
        <pt x="-757" y="-525" on="0"/>
        <pt x="-620" y="-427" on="0"/>
        <pt x="-496" y="-427" on="1"/>
        <pt x="-396" y="-427" on="0"/>
        <pt x="-232" y="-492" on="0"/>
        <pt x="-168" y="-558" on="1"/>
        <pt x="-146" y="-528" on="0"/>
        <pt x="-125" y="-458" on="0"/>
        <pt x="-125" y="-418" on="1"/>
        <pt x="-125" y="-334" on="0"/>
        <pt x="-195" y="-245" on="0"/>
        <pt x="-262" y="-245" on="1"/>
        <pt x="-373" y="-245" on="0"/>
        <pt x="-397" y="-368" on="1"/>
        <pt x="-536" y="-368" on="1"/>
        <pt x="-546" y="-309" on="0"/>
        <pt x="-618" y="-245" on="0"/>
        <pt x="-671" y="-245" on="1"/>
        <pt x="-714" y="-245" on="0"/>
        <pt x="-764" y="-295" on="0"/>
        <pt x="-764" y="-337" on="1"/>
        <pt x="-764" y="-377" on="0"/>
        <pt x="-747" y="-417" on="1"/>
      </contour>
      <contour>
        <pt x="-270" y="-640" on="1"/>
        <pt x="-313" y="-595" on="0"/>
        <pt x="-424" y="-550" on="0"/>
        <pt x="-492" y="-550" on="1"/>
        <pt x="-613" y="-550" on="0"/>
        <pt x="-613" y="-609" on="1"/>
        <pt x="-613" y="-643" on="0"/>
        <pt x="-540" y="-675" on="0"/>
        <pt x="-464" y="-675" on="1"/>
        <pt x="-407" y="-675" on="0"/>
        <pt x="-310" y="-657" on="0"/>
      </contour>
    </TTGlyph>
    <TTGlyph name="glyph00107" xMin="-785" yMin="-754" xMax="288" yMax="198">
      <contour>
        <pt x="-645" y="-447" on="1"/>
        <pt x="-645" y="-530" on="0"/>
        <pt x="-568" y="-622" on="0"/>
        <pt x="-480" y="-622" on="1"/>
        <pt x="-405" y="-622" on="0"/>
        <pt x="-312" y="-543" on="0"/>
        <pt x="-302" y="-473" on="1"/>
        <pt x="-163" y="-473" on="1"/>
        <pt x="-139" y="-622" on="0"/>
        <pt x="-2" y="-622" on="1"/>
        <pt x="67" y="-622" on="0"/>
        <pt x="142" y="-556" on="0"/>
        <pt x="142" y="-495" on="1"/>
        <pt x="142" y="-439" on="0"/>
        <pt x="76" y="-355" on="0"/>
        <pt x="13" y="-334" on="1"/>
        <pt x="-141" y="-334" on="1"/>
        <pt x="-141" y="-202" on="1"/>
        <pt x="-53" y="-202" on="1"/>
        <pt x="6" y="-202" on="0"/>
        <pt x="67" y="-186" on="0"/>
        <pt x="101" y="-136" on="0"/>
        <pt x="101" y="-90" on="1"/>
        <pt x="101" y="11" on="0"/>
        <pt x="29" y="155" on="1"/>
        <pt x="181" y="198" on="1"/>
        <pt x="257" y="39" on="0"/>
        <pt x="257" y="-100" on="1"/>
        <pt x="257" y="-215" on="0"/>
        <pt x="178" y="-281" on="1"/>
        <pt x="288" y="-357" on="0"/>
        <pt x="288" y="-493" on="1"/>
        <pt x="288" y="-619" on="0"/>
        <pt x="136" y="-754" on="0"/>
        <pt x="10" y="-754" on="1"/>
        <pt x="-68" y="-754" on="0"/>
        <pt x="-195" y="-691" on="0"/>
        <pt x="-232" y="-636" on="1"/>
        <pt x="-284" y="-698" on="0"/>
        <pt x="-404" y="-754" on="0"/>
        <pt x="-489" y="-754" on="1"/>
        <pt x="-623" y="-754" on="0"/>
        <pt x="-785" y="-587" on="0"/>
        <pt x="-785" y="-441" on="1"/>
        <pt x="-785" y="-298" on="0"/>
        <pt x="-614" y="-113" on="0"/>
        <pt x="-480" y="-113" on="1"/>
        <pt x="-381" y="-113" on="0"/>
        <pt x="-274" y="-211" on="0"/>
        <pt x="-274" y="-295" on="1"/>
        <pt x="-274" y="-383" on="0"/>
        <pt x="-392" y="-481" on="0"/>
        <pt x="-503" y="-481" on="1"/>
        <pt x="-583" y="-481" on="0"/>
      </contour>
      <contour>
        <pt x="-627" y="-334" on="1"/>
        <pt x="-581" y="-363" on="0"/>
        <pt x="-518" y="-363" on="1"/>
        <pt x="-410" y="-363" on="0"/>
        <pt x="-410" y="-295" on="1"/>
        <pt x="-410" y="-266" on="0"/>
        <pt x="-449" y="-235" on="0"/>
        <pt x="-484" y="-235" on="1"/>
        <pt x="-534" y="-235" on="0"/>
        <pt x="-609" y="-286" on="0"/>
      </contour>
    </TTGlyph>
    <TTGlyph name="glyph00108" xMin="-605" yMin="-754" xMax="141" yMax="-113">
      <contour>
        <pt x="141" y="-441" on="1"/>
        <pt x="141" y="-583" on="0"/>
        <pt x="-61" y="-754" on="0"/>
        <pt x="-231" y="-754" on="1"/>
        <pt x="-402" y="-754" on="0"/>
        <pt x="-605" y="-584" on="0"/>
        <pt x="-605" y="-434" on="1"/>
        <pt x="-605" y="-281" on="0"/>
        <pt x="-394" y="-113" on="0"/>
        <pt x="-232" y="-113" on="1"/>
        <pt x="-64" y="-113" on="0"/>
        <pt x="141" y="-286" on="0"/>
      </contour>
      <contour>
        <pt x="-229" y="-245" on="1"/>
        <pt x="-333" y="-245" on="0"/>
        <pt x="-460" y="-349" on="0"/>
        <pt x="-460" y="-434" on="1"/>
        <pt x="-460" y="-522" on="0"/>
        <pt x="-337" y="-622" on="0"/>
        <pt x="-231" y="-622" on="1"/>
        <pt x="-124" y="-622" on="0"/>
        <pt x="-4" y="-518" on="0"/>
        <pt x="-4" y="-434" on="1"/>
        <pt x="-4" y="-349" on="0"/>
        <pt x="-129" y="-245" on="0"/>
      </contour>
      <contour>
        <pt x="-233" y="-348" on="1"/>
        <pt x="-197" y="-348" on="0"/>
        <pt x="-146" y="-396" on="0"/>
        <pt x="-146" y="-432" on="1"/>
        <pt x="-146" y="-468" on="0"/>
        <pt x="-198" y="-516" on="0"/>
        <pt x="-233" y="-516" on="1"/>
        <pt x="-267" y="-516" on="0"/>
        <pt x="-318" y="-467" on="0"/>
        <pt x="-318" y="-432" on="1"/>
        <pt x="-318" y="-397" on="0"/>
        <pt x="-268" y="-348" on="0"/>
      </contour>
    </TTGlyph>
    <TTGlyph name="glyph00109" xMin="-697" yMin="-754" xMax="239" yMax="-113">
      <contour>
        <pt x="192" y="-375" on="1"/>
        <pt x="239" y="-430" on="0"/>
        <pt x="239" y="-521" on="1"/>
        <pt x="239" y="-623" on="0"/>
        <pt x="100" y="-754" on="0"/>
        <pt x="-9" y="-754" on="1"/>
        <pt x="-93" y="-754" on="0"/>
        <pt x="-204" y="-698" on="0"/>
        <pt x="-242" y="-635" on="1"/>
        <pt x="-313" y="-754" on="0"/>
        <pt x="-466" y="-754" on="1"/>
        <pt x="-572" y="-754" on="0"/>
        <pt x="-697" y="-608" on="0"/>
        <pt x="-697" y="-487" on="1"/>
        <pt x="-697" y="-372" on="0"/>
        <pt x="-582" y="-203" on="0"/>
        <pt x="-370" y="-113" on="0"/>
        <pt x="-241" y="-113" on="1"/>
        <pt x="-49" y="-113" on="0"/>
        <pt x="183" y="-257" on="0"/>
        <pt x="192" y="-371" on="1"/>
      </contour>
      <contour>
        <pt x="-312" y="-509" on="1"/>
        <pt x="-173" y="-509" on="1"/>
        <pt x="-139" y="-624" on="0"/>
        <pt x="-20" y="-624" on="1"/>
        <pt x="35" y="-624" on="0"/>
        <pt x="102" y="-573" on="0"/>
        <pt x="108" y="-526" on="1"/>
        <pt x="56" y="-559" on="0"/>
        <pt x="-8" y="-559" on="1"/>
        <pt x="-87" y="-559" on="0"/>
        <pt x="-184" y="-481" on="0"/>
        <pt x="-184" y="-414" on="1"/>
        <pt x="-184" y="-355" on="0"/>
        <pt x="-96" y="-282" on="0"/>
        <pt x="-16" y="-279" on="1"/>
        <pt x="-97" y="-242" on="0"/>
        <pt x="-200" y="-242" on="1"/>
        <pt x="-240" y="-242" on="1"/>
        <pt x="-385" y="-242" on="0"/>
        <pt x="-552" y="-377" on="0"/>
        <pt x="-552" y="-486" on="1"/>
        <pt x="-552" y="-622" on="0"/>
        <pt x="-445" y="-622" on="1"/>
        <pt x="-399" y="-622" on="0"/>
        <pt x="-335" y="-570" on="0"/>
      </contour>
      <contour>
        <pt x="76" y="-413" on="1"/>
        <pt x="47" y="-375" on="0"/>
        <pt x="0" y="-375" on="1"/>
        <pt x="-25" y="-375" on="0"/>
        <pt x="-54" y="-396" on="0"/>
        <pt x="-54" y="-413" on="1"/>
        <pt x="-54" y="-451" on="0"/>
        <pt x="0" y="-451" on="1"/>
        <pt x="55" y="-451" on="0"/>
      </contour>
    </TTGlyph>
    <TTGlyph name="glyph00110" xMin="-697" yMin="-938" xMax="239" yMax="-113">
      <contour>
        <pt x="192" y="-375" on="1"/>
        <pt x="239" y="-430" on="0"/>
        <pt x="239" y="-521" on="1"/>
        <pt x="239" y="-623" on="0"/>
        <pt x="100" y="-754" on="0"/>
        <pt x="-9" y="-754" on="1"/>
        <pt x="-93" y="-754" on="0"/>
        <pt x="-204" y="-698" on="0"/>
        <pt x="-242" y="-635" on="1"/>
        <pt x="-313" y="-754" on="0"/>
        <pt x="-466" y="-754" on="1"/>
        <pt x="-572" y="-754" on="0"/>
        <pt x="-697" y="-608" on="0"/>
        <pt x="-697" y="-487" on="1"/>
        <pt x="-697" y="-372" on="0"/>
        <pt x="-582" y="-203" on="0"/>
        <pt x="-370" y="-113" on="0"/>
        <pt x="-241" y="-113" on="1"/>
        <pt x="-49" y="-113" on="0"/>
        <pt x="183" y="-257" on="0"/>
        <pt x="192" y="-371" on="1"/>
      </contour>
      <contour>
        <pt x="-312" y="-509" on="1"/>
        <pt x="-173" y="-509" on="1"/>
        <pt x="-139" y="-624" on="0"/>
        <pt x="-20" y="-624" on="1"/>
        <pt x="35" y="-624" on="0"/>
        <pt x="102" y="-573" on="0"/>
        <pt x="108" y="-526" on="1"/>
        <pt x="56" y="-559" on="0"/>
        <pt x="-8" y="-559" on="1"/>
        <pt x="-87" y="-559" on="0"/>
        <pt x="-184" y="-481" on="0"/>
        <pt x="-184" y="-414" on="1"/>
        <pt x="-184" y="-355" on="0"/>
        <pt x="-96" y="-282" on="0"/>
        <pt x="-16" y="-279" on="1"/>
        <pt x="-97" y="-242" on="0"/>
        <pt x="-200" y="-242" on="1"/>
        <pt x="-240" y="-242" on="1"/>
        <pt x="-385" y="-242" on="0"/>
        <pt x="-552" y="-377" on="0"/>
        <pt x="-552" y="-486" on="1"/>
        <pt x="-552" y="-622" on="0"/>
        <pt x="-445" y="-622" on="1"/>
        <pt x="-399" y="-622" on="0"/>
        <pt x="-335" y="-570" on="0"/>
      </contour>
      <contour>
        <pt x="76" y="-413" on="1"/>
        <pt x="47" y="-375" on="0"/>
        <pt x="0" y="-375" on="1"/>
        <pt x="-25" y="-375" on="0"/>
        <pt x="-54" y="-396" on="0"/>
        <pt x="-54" y="-413" on="1"/>
        <pt x="-54" y="-451" on="0"/>
        <pt x="0" y="-451" on="1"/>
        <pt x="55" y="-451" on="0"/>
      </contour>
      <contour>
        <pt x="-322" y="-938" on="1"/>
        <pt x="-312" y="-724" on="1"/>
        <pt x="-172" y="-724" on="1"/>
        <pt x="-162" y="-938" on="1"/>
      </contour>
    </TTGlyph>
    <TTGlyph name="glyph00111" xMin="-755" yMin="-767" xMax="324" yMax="-113">
      <contour>
        <pt x="97" y="-582" on="1"/>
        <pt x="-10" y="-577" on="1"/>
        <pt x="-8" y="-565" on="0"/>
        <pt x="-8" y="-552" on="1"/>
        <pt x="-8" y="-535" on="0"/>
        <pt x="-27" y="-509" on="0"/>
        <pt x="-48" y="-509" on="1"/>
        <pt x="-70" y="-509" on="0"/>
        <pt x="-98" y="-539" on="0"/>
        <pt x="-98" y="-567" on="1"/>
        <pt x="-98" y="-640" on="0"/>
        <pt x="21" y="-640" on="1"/>
        <pt x="99" y="-640" on="0"/>
        <pt x="179" y="-550" on="0"/>
        <pt x="179" y="-462" on="1"/>
        <pt x="179" y="-455" on="1"/>
        <pt x="179" y="-360" on="0"/>
        <pt x="75" y="-245" on="0"/>
        <pt x="-16" y="-245" on="1"/>
        <pt x="-80" y="-245" on="0"/>
        <pt x="-167" y="-310" on="0"/>
        <pt x="-179" y="-369" on="1"/>
        <pt x="-317" y="-369" on="1"/>
        <pt x="-334" y="-245" on="0"/>
        <pt x="-478" y="-245" on="1"/>
        <pt x="-604" y="-245" on="0"/>
        <pt x="-604" y="-319" on="1"/>
        <pt x="-604" y="-344" on="0"/>
        <pt x="-557" y="-393" on="0"/>
        <pt x="-472" y="-393" on="1"/>
        <pt x="-435" y="-393" on="1"/>
        <pt x="-435" y="-515" on="1"/>
        <pt x="-476" y="-515" on="1"/>
        <pt x="-560" y="-515" on="0"/>
        <pt x="-611" y="-550" on="0"/>
        <pt x="-611" y="-581" on="1"/>
        <pt x="-611" y="-640" on="0"/>
        <pt x="-517" y="-640" on="1"/>
        <pt x="-447" y="-640" on="0"/>
        <pt x="-390" y="-594" on="1"/>
        <pt x="-321" y="-704" on="1"/>
        <pt x="-421" y="-767" on="0"/>
        <pt x="-540" y="-767" on="1"/>
        <pt x="-643" y="-767" on="0"/>
        <pt x="-755" y="-680" on="0"/>
        <pt x="-755" y="-603" on="1"/>
        <pt x="-755" y="-499" on="0"/>
        <pt x="-640" y="-455" on="1"/>
        <pt x="-747" y="-402" on="0"/>
        <pt x="-747" y="-296" on="1"/>
        <pt x="-747" y="-216" on="0"/>
        <pt x="-610" y="-113" on="0"/>
        <pt x="-495" y="-113" on="1"/>
        <pt x="-414" y="-113" on="0"/>
        <pt x="-304" y="-163" on="0"/>
        <pt x="-250" y="-223" on="1"/>
        <pt x="-199" y="-165" on="0"/>
        <pt x="-81" y="-113" on="0"/>
        <pt x="3" y="-113" on="1"/>
        <pt x="154" y="-113" on="0"/>
        <pt x="324" y="-299" on="0"/>
        <pt x="324" y="-462" on="1"/>
        <pt x="324" y="-606" on="0"/>
        <pt x="164" y="-767" on="0"/>
        <pt x="15" y="-767" on="1"/>
        <pt x="-95" y="-767" on="0"/>
        <pt x="-225" y="-660" on="0"/>
        <pt x="-225" y="-569" on="1"/>
        <pt x="-225" y="-490" on="0"/>
        <pt x="-126" y="-390" on="0"/>
        <pt x="-44" y="-390" on="1"/>
        <pt x="27" y="-390" on="0"/>
        <pt x="111" y="-455" on="0"/>
        <pt x="111" y="-510" on="1"/>
        <pt x="111" y="-553" on="0"/>
      </contour>
    </TTGlyph>
    <TTGlyph name="glyph00112" xMin="-915" yMin="-636" xMax="206" yMax="-104">
      <contour>
        <pt x="-915" y="-636" on="1"/>
        <pt x="-915" y="-483" on="1"/>
        <pt x="-326" y="-483" on="1"/>
        <pt x="-348" y="-421" on="0"/>
        <pt x="-348" y="-355" on="1"/>
        <pt x="-348" y="-250" on="0"/>
        <pt x="-198" y="-104" on="0"/>
        <pt x="-69" y="-104" on="1"/>
        <pt x="57" y="-104" on="0"/>
        <pt x="206" y="-246" on="0"/>
        <pt x="206" y="-357" on="1"/>
        <pt x="206" y="-458" on="0"/>
        <pt x="101" y="-584" on="0"/>
        <pt x="-72" y="-636" on="0"/>
        <pt x="-242" y="-636" on="1"/>
      </contour>
      <contour>
        <pt x="-178" y="-483" on="1"/>
        <pt x="-132" y="-483" on="1"/>
        <pt x="-32" y="-483" on="0"/>
        <pt x="56" y="-423" on="0"/>
        <pt x="56" y="-356" on="1"/>
        <pt x="56" y="-309" on="0"/>
        <pt x="-13" y="-243" on="0"/>
        <pt x="-69" y="-243" on="1"/>
        <pt x="-130" y="-243" on="0"/>
        <pt x="-203" y="-319" on="0"/>
        <pt x="-203" y="-379" on="1"/>
        <pt x="-203" y="-431" on="0"/>
      </contour>
    </TTGlyph>
    <TTGlyph name="glyph00113" xMin="-687" yMin="-938" xMax="223" yMax="-113">
      <contour>
        <pt x="-232" y="-636" on="1"/>
        <pt x="-273" y="-699" on="0"/>
        <pt x="-380" y="-754" on="0"/>
        <pt x="-456" y="-754" on="1"/>
        <pt x="-564" y="-754" on="0"/>
        <pt x="-687" y="-605" on="0"/>
        <pt x="-687" y="-487" on="1"/>
        <pt x="-687" y="-318" on="0"/>
        <pt x="-437" y="-113" on="0"/>
        <pt x="-231" y="-113" on="1"/>
        <pt x="-27" y="-113" on="0"/>
        <pt x="223" y="-321" on="0"/>
        <pt x="223" y="-486" on="1"/>
        <pt x="223" y="-603" on="0"/>
        <pt x="102" y="-754" on="0"/>
        <pt x="-7" y="-754" on="1"/>
        <pt x="-92" y="-754" on="0"/>
        <pt x="-195" y="-696" on="0"/>
      </contour>
      <contour>
        <pt x="-163" y="-513" on="1"/>
        <pt x="-128" y="-622" on="0"/>
        <pt x="-28" y="-622" on="1"/>
        <pt x="78" y="-622" on="0"/>
        <pt x="78" y="-492" on="1"/>
        <pt x="78" y="-383" on="0"/>
        <pt x="-82" y="-245" on="0"/>
        <pt x="-217" y="-245" on="1"/>
        <pt x="-242" y="-245" on="1"/>
        <pt x="-376" y="-245" on="0"/>
        <pt x="-542" y="-379" on="0"/>
        <pt x="-542" y="-488" on="1"/>
        <pt x="-542" y="-622" on="0"/>
        <pt x="-435" y="-622" on="1"/>
        <pt x="-388" y="-622" on="0"/>
        <pt x="-319" y="-566" on="0"/>
        <pt x="-302" y="-513" on="1"/>
      </contour>
      <contour>
        <pt x="-233" y="-315" on="1"/>
        <pt x="-197" y="-315" on="0"/>
        <pt x="-146" y="-363" on="0"/>
        <pt x="-146" y="-399" on="1"/>
        <pt x="-146" y="-435" on="0"/>
        <pt x="-198" y="-483" on="0"/>
        <pt x="-233" y="-483" on="1"/>
        <pt x="-267" y="-483" on="0"/>
        <pt x="-318" y="-434" on="0"/>
        <pt x="-318" y="-399" on="1"/>
        <pt x="-318" y="-364" on="0"/>
        <pt x="-268" y="-315" on="0"/>
      </contour>
      <contour>
        <pt x="-312" y="-938" on="1"/>
        <pt x="-302" y="-724" on="1"/>
        <pt x="-162" y="-724" on="1"/>
        <pt x="-152" y="-938" on="1"/>
      </contour>
    </TTGlyph>
    <TTGlyph name="glyph00114" xMin="-687" yMin="-754" xMax="223" yMax="-113">
      <contour>
        <pt x="-232" y="-636" on="1"/>
        <pt x="-273" y="-699" on="0"/>
        <pt x="-380" y="-754" on="0"/>
        <pt x="-456" y="-754" on="1"/>
        <pt x="-564" y="-754" on="0"/>
        <pt x="-687" y="-605" on="0"/>
        <pt x="-687" y="-487" on="1"/>
        <pt x="-687" y="-318" on="0"/>
        <pt x="-437" y="-113" on="0"/>
        <pt x="-231" y="-113" on="1"/>
        <pt x="-27" y="-113" on="0"/>
        <pt x="223" y="-321" on="0"/>
        <pt x="223" y="-486" on="1"/>
        <pt x="223" y="-603" on="0"/>
        <pt x="102" y="-754" on="0"/>
        <pt x="-7" y="-754" on="1"/>
        <pt x="-92" y="-754" on="0"/>
        <pt x="-195" y="-696" on="0"/>
      </contour>
      <contour>
        <pt x="-163" y="-473" on="1"/>
        <pt x="-151" y="-545" on="0"/>
        <pt x="-80" y="-622" on="0"/>
        <pt x="-28" y="-622" on="1"/>
        <pt x="78" y="-622" on="0"/>
        <pt x="78" y="-492" on="1"/>
        <pt x="78" y="-383" on="0"/>
        <pt x="-82" y="-245" on="0"/>
        <pt x="-217" y="-245" on="1"/>
        <pt x="-242" y="-245" on="1"/>
        <pt x="-376" y="-245" on="0"/>
        <pt x="-542" y="-379" on="0"/>
        <pt x="-542" y="-488" on="1"/>
        <pt x="-542" y="-622" on="0"/>
        <pt x="-435" y="-622" on="1"/>
        <pt x="-329" y="-622" on="0"/>
        <pt x="-302" y="-473" on="1"/>
      </contour>
    </TTGlyph>
    <TTGlyph name="glyph00115" xMin="-687" yMin="-938" xMax="223" yMax="-113">
      <contour>
        <pt x="-232" y="-636" on="1"/>
        <pt x="-273" y="-699" on="0"/>
        <pt x="-380" y="-754" on="0"/>
        <pt x="-456" y="-754" on="1"/>
        <pt x="-564" y="-754" on="0"/>
        <pt x="-687" y="-605" on="0"/>
        <pt x="-687" y="-487" on="1"/>
        <pt x="-687" y="-318" on="0"/>
        <pt x="-437" y="-113" on="0"/>
        <pt x="-231" y="-113" on="1"/>
        <pt x="-27" y="-113" on="0"/>
        <pt x="223" y="-321" on="0"/>
        <pt x="223" y="-486" on="1"/>
        <pt x="223" y="-603" on="0"/>
        <pt x="102" y="-754" on="0"/>
        <pt x="-7" y="-754" on="1"/>
        <pt x="-92" y="-754" on="0"/>
        <pt x="-195" y="-696" on="0"/>
      </contour>
      <contour>
        <pt x="-163" y="-473" on="1"/>
        <pt x="-151" y="-545" on="0"/>
        <pt x="-80" y="-622" on="0"/>
        <pt x="-28" y="-622" on="1"/>
        <pt x="78" y="-622" on="0"/>
        <pt x="78" y="-492" on="1"/>
        <pt x="78" y="-383" on="0"/>
        <pt x="-82" y="-245" on="0"/>
        <pt x="-217" y="-245" on="1"/>
        <pt x="-242" y="-245" on="1"/>
        <pt x="-376" y="-245" on="0"/>
        <pt x="-542" y="-379" on="0"/>
        <pt x="-542" y="-488" on="1"/>
        <pt x="-542" y="-622" on="0"/>
        <pt x="-435" y="-622" on="1"/>
        <pt x="-329" y="-622" on="0"/>
        <pt x="-302" y="-473" on="1"/>
      </contour>
      <contour>
        <pt x="-312" y="-938" on="1"/>
        <pt x="-302" y="-724" on="1"/>
        <pt x="-162" y="-724" on="1"/>
        <pt x="-152" y="-938" on="1"/>
      </contour>
    </TTGlyph>
    <TTGlyph name="glyph00116" xMin="-647" yMin="-754" xMax="331" yMax="142">
      <contour>
        <pt x="1" y="-401" on="1"/>
        <pt x="42" y="-355" on="0"/>
        <pt x="83" y="-243" on="0"/>
        <pt x="83" y="-177" on="1"/>
        <pt x="83" y="-33" on="0"/>
        <pt x="23" y="74" on="1"/>
        <pt x="157" y="142" on="1"/>
        <pt x="195" y="88" on="0"/>
        <pt x="240" y="-73" on="0"/>
        <pt x="240" y="-155" on="1"/>
        <pt x="240" y="-270" on="0"/>
        <pt x="156" y="-454" on="0"/>
        <pt x="72" y="-523" on="1"/>
        <pt x="102" y="-570" on="0"/>
        <pt x="173" y="-611" on="0"/>
        <pt x="231" y="-611" on="1"/>
        <pt x="246" y="-611" on="0"/>
        <pt x="298" y="-603" on="0"/>
        <pt x="305" y="-598" on="1"/>
        <pt x="331" y="-736" on="1"/>
        <pt x="315" y="-744" on="0"/>
        <pt x="251" y="-754" on="0"/>
        <pt x="231" y="-754" on="1"/>
        <pt x="135" y="-754" on="0"/>
        <pt x="9" y="-680" on="0"/>
        <pt x="-44" y="-593" on="1"/>
        <pt x="-170" y="-650" on="0"/>
        <pt x="-319" y="-650" on="1"/>
        <pt x="-475" y="-650" on="0"/>
        <pt x="-647" y="-502" on="0"/>
        <pt x="-647" y="-381" on="1"/>
        <pt x="-647" y="-270" on="0"/>
        <pt x="-492" y="-135" on="0"/>
        <pt x="-369" y="-135" on="1"/>
        <pt x="-250" y="-135" on="0"/>
        <pt x="-92" y="-245" on="0"/>
      </contour>
      <contour>
        <pt x="-108" y="-479" on="1"/>
        <pt x="-174" y="-363" on="0"/>
        <pt x="-291" y="-268" on="0"/>
        <pt x="-361" y="-268" on="1"/>
        <pt x="-421" y="-268" on="0"/>
        <pt x="-492" y="-331" on="0"/>
        <pt x="-492" y="-381" on="1"/>
        <pt x="-492" y="-446" on="0"/>
        <pt x="-399" y="-517" on="0"/>
        <pt x="-307" y="-517" on="1"/>
        <pt x="-196" y="-517" on="0"/>
      </contour>
    </TTGlyph>
    <TTGlyph name="glyph00117" xMin="-775" yMin="-674" xMax="321" yMax="142">
      <contour>
        <pt x="-222" y="-557" on="1"/>
        <pt x="-272" y="-619" on="0"/>
        <pt x="-398" y="-674" on="0"/>
        <pt x="-488" y="-674" on="1"/>
        <pt x="-611" y="-674" on="0"/>
        <pt x="-775" y="-533" on="0"/>
        <pt x="-775" y="-421" on="1"/>
        <pt x="-775" y="-322" on="0"/>
        <pt x="-652" y="-199" on="0"/>
        <pt x="-550" y="-199" on="1"/>
        <pt x="-466" y="-199" on="0"/>
        <pt x="-369" y="-277" on="0"/>
        <pt x="-369" y="-344" on="1"/>
        <pt x="-369" y="-400" on="0"/>
        <pt x="-391" y="-433" on="1"/>
        <pt x="-510" y="-423" on="1"/>
        <pt x="-501" y="-399" on="0"/>
        <pt x="-501" y="-378" on="1"/>
        <pt x="-501" y="-355" on="0"/>
        <pt x="-529" y="-323" on="0"/>
        <pt x="-561" y="-323" on="1"/>
        <pt x="-596" y="-323" on="0"/>
        <pt x="-639" y="-371" on="0"/>
        <pt x="-639" y="-418" on="1"/>
        <pt x="-639" y="-481" on="0"/>
        <pt x="-554" y="-541" on="0"/>
        <pt x="-479" y="-541" on="1"/>
        <pt x="-396" y="-541" on="0"/>
        <pt x="-298" y="-460" on="0"/>
        <pt x="-288" y="-382" on="1"/>
        <pt x="-153" y="-382" on="1"/>
        <pt x="-146" y="-461" on="0"/>
        <pt x="-65" y="-542" on="0"/>
        <pt x="-3" y="-542" on="1"/>
        <pt x="77" y="-542" on="0"/>
        <pt x="164" y="-448" on="0"/>
        <pt x="164" y="-326" on="1"/>
        <pt x="164" y="-233" on="0"/>
        <pt x="87" y="-11" on="0"/>
        <pt x="19" y="74" on="1"/>
        <pt x="156" y="142" on="1"/>
        <pt x="321" y="-81" on="0"/>
        <pt x="321" y="-324" on="1"/>
        <pt x="321" y="-495" on="0"/>
        <pt x="158" y="-674" on="0"/>
        <pt x="6" y="-674" on="1"/>
        <pt x="-142" y="-674" on="0"/>
      </contour>
    </TTGlyph>
    <TTGlyph name="glyph00118" xMin="-775" yMin="-858" xMax="321" yMax="142">
      <contour>
        <pt x="-222" y="-557" on="1"/>
        <pt x="-272" y="-619" on="0"/>
        <pt x="-398" y="-674" on="0"/>
        <pt x="-488" y="-674" on="1"/>
        <pt x="-611" y="-674" on="0"/>
        <pt x="-775" y="-533" on="0"/>
        <pt x="-775" y="-421" on="1"/>
        <pt x="-775" y="-322" on="0"/>
        <pt x="-652" y="-199" on="0"/>
        <pt x="-550" y="-199" on="1"/>
        <pt x="-466" y="-199" on="0"/>
        <pt x="-369" y="-277" on="0"/>
        <pt x="-369" y="-344" on="1"/>
        <pt x="-369" y="-400" on="0"/>
        <pt x="-391" y="-433" on="1"/>
        <pt x="-510" y="-423" on="1"/>
        <pt x="-501" y="-399" on="0"/>
        <pt x="-501" y="-378" on="1"/>
        <pt x="-501" y="-355" on="0"/>
        <pt x="-529" y="-323" on="0"/>
        <pt x="-561" y="-323" on="1"/>
        <pt x="-596" y="-323" on="0"/>
        <pt x="-639" y="-371" on="0"/>
        <pt x="-639" y="-418" on="1"/>
        <pt x="-639" y="-481" on="0"/>
        <pt x="-554" y="-541" on="0"/>
        <pt x="-479" y="-541" on="1"/>
        <pt x="-396" y="-541" on="0"/>
        <pt x="-298" y="-460" on="0"/>
        <pt x="-288" y="-382" on="1"/>
        <pt x="-153" y="-382" on="1"/>
        <pt x="-146" y="-461" on="0"/>
        <pt x="-65" y="-542" on="0"/>
        <pt x="-3" y="-542" on="1"/>
        <pt x="77" y="-542" on="0"/>
        <pt x="164" y="-448" on="0"/>
        <pt x="164" y="-326" on="1"/>
        <pt x="164" y="-233" on="0"/>
        <pt x="87" y="-11" on="0"/>
        <pt x="19" y="74" on="1"/>
        <pt x="156" y="142" on="1"/>
        <pt x="321" y="-81" on="0"/>
        <pt x="321" y="-324" on="1"/>
        <pt x="321" y="-495" on="0"/>
        <pt x="158" y="-674" on="0"/>
        <pt x="6" y="-674" on="1"/>
        <pt x="-142" y="-674" on="0"/>
      </contour>
      <contour>
        <pt x="-301" y="-858" on="1"/>
        <pt x="-291" y="-644" on="1"/>
        <pt x="-151" y="-644" on="1"/>
        <pt x="-141" y="-858" on="1"/>
      </contour>
    </TTGlyph>
    <TTGlyph name="glyph00119" xMin="-739" yMin="-754" xMax="325" yMax="142">
      <contour>
        <pt x="-148" y="-473" on="1"/>
        <pt x="-124" y="-622" on="0"/>
        <pt x="1" y="-622" on="1"/>
        <pt x="81" y="-622" on="0"/>
        <pt x="168" y="-516" on="0"/>
        <pt x="168" y="-378" on="1"/>
        <pt x="168" y="-272" on="0"/>
        <pt x="91" y="-21" on="0"/>
        <pt x="23" y="74" on="1"/>
        <pt x="160" y="142" on="1"/>
        <pt x="325" y="-104" on="0"/>
        <pt x="325" y="-370" on="1"/>
        <pt x="325" y="-557" on="0"/>
        <pt x="162" y="-754" on="0"/>
        <pt x="10" y="-754" on="1"/>
        <pt x="-140" y="-754" on="0"/>
        <pt x="-219" y="-636" on="1"/>
        <pt x="-312" y="-754" on="0"/>
        <pt x="-470" y="-754" on="1"/>
        <pt x="-573" y="-754" on="0"/>
        <pt x="-687" y="-660" on="0"/>
        <pt x="-687" y="-582" on="1"/>
        <pt x="-687" y="-518" on="0"/>
        <pt x="-611" y="-426" on="0"/>
        <pt x="-518" y="-380" on="1"/>
        <pt x="-461" y="-352" on="0"/>
        <pt x="-409" y="-308" on="0"/>
        <pt x="-409" y="-283" on="1"/>
        <pt x="-409" y="-234" on="0"/>
        <pt x="-491" y="-234" on="1"/>
        <pt x="-596" y="-234" on="0"/>
        <pt x="-596" y="-296" on="1"/>
        <pt x="-596" y="-322" on="0"/>
        <pt x="-584" y="-344" on="1"/>
        <pt x="-713" y="-386" on="1"/>
        <pt x="-739" y="-333" on="0"/>
        <pt x="-739" y="-273" on="1"/>
        <pt x="-739" y="-203" on="0"/>
        <pt x="-606" y="-113" on="0"/>
        <pt x="-492" y="-113" on="1"/>
        <pt x="-266" y="-113" on="0"/>
        <pt x="-266" y="-279" on="1"/>
        <pt x="-266" y="-341" on="0"/>
        <pt x="-336" y="-424" on="0"/>
        <pt x="-408" y="-460" on="1"/>
        <pt x="-487" y="-500" on="0"/>
        <pt x="-542" y="-542" on="0"/>
        <pt x="-542" y="-570" on="1"/>
        <pt x="-542" y="-622" on="0"/>
        <pt x="-463" y="-622" on="1"/>
        <pt x="-390" y="-622" on="0"/>
        <pt x="-298" y="-544" on="0"/>
        <pt x="-287" y="-473" on="1"/>
      </contour>
    </TTGlyph>
    <TTGlyph name="glyph00120" xMin="-739" yMin="-938" xMax="325" yMax="142">
      <contour>
        <pt x="-148" y="-473" on="1"/>
        <pt x="-124" y="-622" on="0"/>
        <pt x="1" y="-622" on="1"/>
        <pt x="81" y="-622" on="0"/>
        <pt x="168" y="-516" on="0"/>
        <pt x="168" y="-378" on="1"/>
        <pt x="168" y="-272" on="0"/>
        <pt x="91" y="-21" on="0"/>
        <pt x="23" y="74" on="1"/>
        <pt x="160" y="142" on="1"/>
        <pt x="325" y="-104" on="0"/>
        <pt x="325" y="-370" on="1"/>
        <pt x="325" y="-557" on="0"/>
        <pt x="162" y="-754" on="0"/>
        <pt x="10" y="-754" on="1"/>
        <pt x="-140" y="-754" on="0"/>
        <pt x="-219" y="-636" on="1"/>
        <pt x="-312" y="-754" on="0"/>
        <pt x="-470" y="-754" on="1"/>
        <pt x="-573" y="-754" on="0"/>
        <pt x="-687" y="-660" on="0"/>
        <pt x="-687" y="-582" on="1"/>
        <pt x="-687" y="-518" on="0"/>
        <pt x="-611" y="-426" on="0"/>
        <pt x="-518" y="-380" on="1"/>
        <pt x="-461" y="-352" on="0"/>
        <pt x="-409" y="-308" on="0"/>
        <pt x="-409" y="-283" on="1"/>
        <pt x="-409" y="-234" on="0"/>
        <pt x="-491" y="-234" on="1"/>
        <pt x="-596" y="-234" on="0"/>
        <pt x="-596" y="-296" on="1"/>
        <pt x="-596" y="-322" on="0"/>
        <pt x="-584" y="-344" on="1"/>
        <pt x="-713" y="-386" on="1"/>
        <pt x="-739" y="-333" on="0"/>
        <pt x="-739" y="-273" on="1"/>
        <pt x="-739" y="-203" on="0"/>
        <pt x="-606" y="-113" on="0"/>
        <pt x="-492" y="-113" on="1"/>
        <pt x="-266" y="-113" on="0"/>
        <pt x="-266" y="-279" on="1"/>
        <pt x="-266" y="-341" on="0"/>
        <pt x="-336" y="-424" on="0"/>
        <pt x="-408" y="-460" on="1"/>
        <pt x="-487" y="-500" on="0"/>
        <pt x="-542" y="-542" on="0"/>
        <pt x="-542" y="-570" on="1"/>
        <pt x="-542" y="-622" on="0"/>
        <pt x="-463" y="-622" on="1"/>
        <pt x="-390" y="-622" on="0"/>
        <pt x="-298" y="-544" on="0"/>
        <pt x="-287" y="-473" on="1"/>
      </contour>
      <contour>
        <pt x="-297" y="-938" on="1"/>
        <pt x="-287" y="-724" on="1"/>
        <pt x="-147" y="-724" on="1"/>
        <pt x="-137" y="-938" on="1"/>
      </contour>
    </TTGlyph>
    <TTGlyph name="glyph00121" xMin="-155" yMin="-834" xMax="725" yMax="255">
      <contour>
        <pt x="249" y="-114" on="1"/>
        <pt x="272" y="-113" on="1"/>
        <pt x="408" y="-107" on="0"/>
        <pt x="577" y="-220" on="0"/>
        <pt x="577" y="-334" on="1"/>
        <pt x="577" y="-432" on="0"/>
        <pt x="440" y="-544" on="0"/>
        <pt x="313" y="-544" on="1"/>
        <pt x="197" y="-544" on="0"/>
        <pt x="72" y="-419" on="0"/>
        <pt x="72" y="-303" on="1"/>
        <pt x="72" y="-300" on="1"/>
        <pt x="-6" y="-369" on="0"/>
        <pt x="-6" y="-479" on="1"/>
        <pt x="-6" y="-580" on="0"/>
        <pt x="137" y="-694" on="0"/>
        <pt x="264" y="-694" on="1"/>
        <pt x="371" y="-694" on="0"/>
        <pt x="550" y="-628" on="0"/>
        <pt x="611" y="-564" on="1"/>
        <pt x="725" y="-673" on="1"/>
        <pt x="628" y="-757" on="0"/>
        <pt x="411" y="-834" on="0"/>
        <pt x="263" y="-834" on="1"/>
        <pt x="68" y="-834" on="0"/>
        <pt x="-155" y="-640" on="0"/>
        <pt x="-155" y="-481" on="1"/>
        <pt x="-155" y="-374" on="0"/>
        <pt x="-25" y="-191" on="0"/>
        <pt x="89" y="-147" on="1"/>
        <pt x="106" y="-61" on="0"/>
        <pt x="106" y="-24" on="1"/>
        <pt x="106" y="32" on="0"/>
        <pt x="61" y="101" on="0"/>
        <pt x="14" y="125" on="1"/>
        <pt x="108" y="255" on="1"/>
        <pt x="188" y="210" on="0"/>
        <pt x="262" y="96" on="0"/>
        <pt x="262" y="16" on="1"/>
        <pt x="262" y="-43" on="0"/>
      </contour>
      <contour>
        <pt x="222" y="-248" on="1"/>
        <pt x="217" y="-278" on="0"/>
        <pt x="217" y="-306" on="1"/>
        <pt x="217" y="-359" on="0"/>
        <pt x="270" y="-414" on="0"/>
        <pt x="322" y="-414" on="1"/>
        <pt x="371" y="-414" on="0"/>
        <pt x="424" y="-371" on="0"/>
        <pt x="424" y="-337" on="1"/>
        <pt x="424" y="-294" on="0"/>
        <pt x="363" y="-240" on="0"/>
        <pt x="306" y="-240" on="1"/>
        <pt x="258" y="-240" on="0"/>
      </contour>
    </TTGlyph>
    <TTGlyph name="glyph00122" xMin="-415" yMin="-836" xMax="526" yMax="274">
      <contour>
        <pt x="-260" y="-344" on="1"/>
        <pt x="-389" y="-386" on="1"/>
        <pt x="-415" y="-333" on="0"/>
        <pt x="-415" y="-273" on="1"/>
        <pt x="-415" y="-203" on="0"/>
        <pt x="-282" y="-113" on="0"/>
        <pt x="-168" y="-113" on="1"/>
        <pt x="-56" y="-113" on="0"/>
        <pt x="60" y="-200" on="0"/>
        <pt x="60" y="-285" on="1"/>
        <pt x="60" y="-351" on="0"/>
        <pt x="-17" y="-437" on="0"/>
        <pt x="-100" y="-480" on="1"/>
        <pt x="-178" y="-522" on="0"/>
        <pt x="-218" y="-568" on="0"/>
        <pt x="-218" y="-597" on="1"/>
        <pt x="-218" y="-695" on="0"/>
        <pt x="-5" y="-695" on="1"/>
        <pt x="144" y="-695" on="0"/>
        <pt x="311" y="-573" on="0"/>
        <pt x="311" y="-476" on="1"/>
        <pt x="311" y="-425" on="0"/>
        <pt x="280" y="-338" on="0"/>
        <pt x="228" y="-260" on="0"/>
        <pt x="170" y="-196" on="1"/>
        <pt x="111" y="-131" on="0"/>
        <pt x="60" y="-60" on="0"/>
        <pt x="29" y="23" on="0"/>
        <pt x="29" y="68" on="1"/>
        <pt x="29" y="163" on="0"/>
        <pt x="165" y="274" on="0"/>
        <pt x="269" y="274" on="1"/>
        <pt x="488" y="274" on="0"/>
        <pt x="526" y="64" on="1"/>
        <pt x="380" y="40" on="1"/>
        <pt x="355" y="144" on="0"/>
        <pt x="268" y="144" on="1"/>
        <pt x="228" y="144" on="0"/>
        <pt x="181" y="104" on="0"/>
        <pt x="181" y="66" on="1"/>
        <pt x="181" y="33" on="0"/>
        <pt x="227" y="-37" on="0"/>
        <pt x="272" y="-84" on="1"/>
        <pt x="356" y="-172" on="0"/>
        <pt x="429" y="-283" on="0"/>
        <pt x="467" y="-402" on="0"/>
        <pt x="467" y="-470" on="1"/>
        <pt x="467" y="-585" on="0"/>
        <pt x="349" y="-751" on="0"/>
        <pt x="129" y="-836" on="0"/>
        <pt x="-7" y="-836" on="1"/>
        <pt x="-181" y="-836" on="0"/>
        <pt x="-363" y="-708" on="0"/>
        <pt x="-363" y="-598" on="1"/>
        <pt x="-363" y="-533" on="0"/>
        <pt x="-299" y="-443" on="0"/>
        <pt x="-194" y="-386" on="1"/>
        <pt x="-128" y="-350" on="0"/>
        <pt x="-85" y="-311" on="0"/>
        <pt x="-85" y="-285" on="1"/>
        <pt x="-85" y="-234" on="0"/>
        <pt x="-167" y="-234" on="1"/>
        <pt x="-272" y="-234" on="0"/>
        <pt x="-272" y="-296" on="1"/>
        <pt x="-272" y="-322" on="0"/>
      </contour>
    </TTGlyph>
    <TTGlyph name="glyph00123" xMin="-763" yMin="-607" xMax="260" yMax="199">
      <contour>
        <pt x="-723" y="-421" on="1"/>
        <pt x="-579" y="-459" on="0"/>
        <pt x="-427" y="-459" on="1"/>
        <pt x="-173" y="-459" on="0"/>
        <pt x="96" y="-277" on="0"/>
        <pt x="96" y="-112" on="1"/>
        <pt x="96" y="11" on="0"/>
        <pt x="18" y="122" on="1"/>
        <pt x="159" y="199" on="1"/>
        <pt x="260" y="65" on="0"/>
        <pt x="260" y="-116" on="1"/>
        <pt x="260" y="-351" on="0"/>
        <pt x="-98" y="-607" on="0"/>
        <pt x="-425" y="-607" on="1"/>
        <pt x="-586" y="-607" on="0"/>
        <pt x="-763" y="-564" on="1"/>
      </contour>
    </TTGlyph>
    <TTGlyph name="glyph00124" xMin="-784" yMin="-754" xMax="345" yMax="-113">
      <contour>
        <pt x="-220" y="-636" on="1"/>
        <pt x="-273" y="-700" on="0"/>
        <pt x="-396" y="-754" on="0"/>
        <pt x="-481" y="-754" on="1"/>
        <pt x="-618" y="-754" on="0"/>
        <pt x="-784" y="-588" on="0"/>
        <pt x="-784" y="-444" on="1"/>
        <pt x="-784" y="-299" on="0"/>
        <pt x="-614" y="-113" on="0"/>
        <pt x="-479" y="-113" on="1"/>
        <pt x="-380" y="-113" on="0"/>
        <pt x="-273" y="-210" on="0"/>
        <pt x="-273" y="-295" on="1"/>
        <pt x="-273" y="-333" on="0"/>
        <pt x="-286" y="-364" on="1"/>
        <pt x="-263" y="-363" on="1"/>
        <pt x="-178" y="-363" on="1"/>
        <pt x="-164" y="-363" on="0"/>
        <pt x="-151" y="-364" on="1"/>
        <pt x="-166" y="-332" on="0"/>
        <pt x="-166" y="-295" on="1"/>
        <pt x="-166" y="-209" on="0"/>
        <pt x="-57" y="-113" on="0"/>
        <pt x="45" y="-113" on="1"/>
        <pt x="177" y="-113" on="0"/>
        <pt x="345" y="-298" on="0"/>
        <pt x="345" y="-444" on="1"/>
        <pt x="345" y="-588" on="0"/>
        <pt x="179" y="-754" on="0"/>
        <pt x="42" y="-754" on="1"/>
        <pt x="-45" y="-754" on="0"/>
        <pt x="-167" y="-698" on="0"/>
      </contour>
      <contour>
        <pt x="187" y="-334" on="1"/>
        <pt x="170" y="-287" on="0"/>
        <pt x="94" y="-235" on="0"/>
        <pt x="44" y="-235" on="1"/>
        <pt x="9" y="-235" on="0"/>
        <pt x="-30" y="-266" on="0"/>
        <pt x="-30" y="-295" on="1"/>
        <pt x="-30" y="-363" on="0"/>
        <pt x="78" y="-363" on="1"/>
        <pt x="141" y="-363" on="0"/>
      </contour>
      <contour>
        <pt x="-626" y="-334" on="1"/>
        <pt x="-580" y="-363" on="0"/>
        <pt x="-517" y="-363" on="1"/>
        <pt x="-409" y="-363" on="0"/>
        <pt x="-409" y="-295" on="1"/>
        <pt x="-409" y="-266" on="0"/>
        <pt x="-448" y="-235" on="0"/>
        <pt x="-483" y="-235" on="1"/>
        <pt x="-533" y="-235" on="0"/>
        <pt x="-608" y="-286" on="0"/>
      </contour>
      <contour>
        <pt x="-502" y="-481" on="1"/>
        <pt x="-582" y="-481" on="0"/>
        <pt x="-644" y="-447" on="1"/>
        <pt x="-643" y="-531" on="0"/>
        <pt x="-564" y="-622" on="0"/>
        <pt x="-474" y="-622" on="1"/>
        <pt x="-341" y="-622" on="0"/>
        <pt x="-289" y="-506" on="1"/>
        <pt x="-150" y="-506" on="1"/>
        <pt x="-100" y="-622" on="0"/>
        <pt x="35" y="-622" on="1"/>
        <pt x="125" y="-622" on="0"/>
        <pt x="204" y="-531" on="0"/>
        <pt x="205" y="-447" on="1"/>
        <pt x="143" y="-481" on="0"/>
        <pt x="63" y="-481" on="1"/>
      </contour>
    </TTGlyph>
    <TTGlyph name="glyph00125" xMin="-751" yMin="-735" xMax="223" yMax="-137">
      <contour>
        <pt x="-265" y="-271" on="1"/>
        <pt x="-207" y="-192" on="0"/>
        <pt x="-103" y="-137" on="0"/>
        <pt x="-34" y="-137" on="1"/>
        <pt x="80" y="-137" on="0"/>
        <pt x="223" y="-286" on="0"/>
        <pt x="223" y="-397" on="1"/>
        <pt x="223" y="-488" on="0"/>
        <pt x="134" y="-651" on="0"/>
        <pt x="29" y="-735" on="1"/>
        <pt x="-67" y="-629" on="1"/>
        <pt x="9" y="-570" on="0"/>
        <pt x="78" y="-464" on="0"/>
        <pt x="78" y="-405" on="1"/>
        <pt x="78" y="-351" on="0"/>
        <pt x="16" y="-279" on="0"/>
        <pt x="-41" y="-279" on="1"/>
        <pt x="-106" y="-279" on="0"/>
        <pt x="-188" y="-373" on="0"/>
        <pt x="-192" y="-455" on="1"/>
        <pt x="-336" y="-455" on="1"/>
        <pt x="-345" y="-371" on="0"/>
        <pt x="-426" y="-279" on="0"/>
        <pt x="-487" y="-279" on="1"/>
        <pt x="-544" y="-279" on="0"/>
        <pt x="-606" y="-346" on="0"/>
        <pt x="-606" y="-408" on="1"/>
        <pt x="-606" y="-463" on="0"/>
        <pt x="-542" y="-563" on="0"/>
        <pt x="-461" y="-628" on="1"/>
        <pt x="-557" y="-735" on="1"/>
        <pt x="-660" y="-651" on="0"/>
        <pt x="-751" y="-487" on="0"/>
        <pt x="-751" y="-393" on="1"/>
        <pt x="-751" y="-286" on="0"/>
        <pt x="-607" y="-137" on="0"/>
        <pt x="-494" y="-137" on="1"/>
        <pt x="-418" y="-137" on="0"/>
        <pt x="-321" y="-191" on="0"/>
      </contour>
    </TTGlyph>
    <TTGlyph name="glyph00126" xMin="-619" yMin="-814" xMax="303" yMax="142">
      <contour>
        <pt x="56" y="-585" on="1"/>
        <pt x="85" y="-618" on="0"/>
        <pt x="85" y="-667" on="1"/>
        <pt x="85" y="-737" on="0"/>
        <pt x="-34" y="-814" on="0"/>
        <pt x="-152" y="-814" on="1"/>
        <pt x="-259" y="-814" on="0"/>
        <pt x="-382" y="-738" on="0"/>
        <pt x="-382" y="-668" on="1"/>
        <pt x="-382" y="-622" on="0"/>
        <pt x="-347" y="-587" on="1"/>
        <pt x="-478" y="-558" on="0"/>
        <pt x="-619" y="-418" on="0"/>
        <pt x="-619" y="-322" on="1"/>
        <pt x="-619" y="-219" on="0"/>
        <pt x="-481" y="-89" on="0"/>
        <pt x="-365" y="-89" on="1"/>
        <pt x="-265" y="-89" on="0"/>
        <pt x="-147" y="-187" on="0"/>
        <pt x="-147" y="-265" on="1"/>
        <pt x="-147" y="-442" on="0"/>
        <pt x="-364" y="-442" on="1"/>
        <pt x="-391" y="-442" on="0"/>
        <pt x="-428" y="-435" on="1"/>
        <pt x="-352" y="-476" on="0"/>
        <pt x="-149" y="-476" on="1"/>
        <pt x="-102" y="-476" on="0"/>
        <pt x="51" y="-444" on="0"/>
        <pt x="147" y="-347" on="0"/>
        <pt x="147" y="-263" on="1"/>
        <pt x="147" y="-102" on="0"/>
        <pt x="22" y="74" on="1"/>
        <pt x="159" y="142" on="1"/>
        <pt x="239" y="21" on="0"/>
        <pt x="303" y="-160" on="0"/>
        <pt x="303" y="-259" on="1"/>
        <pt x="303" y="-384" on="0"/>
        <pt x="177" y="-550" on="0"/>
      </contour>
      <contour>
        <pt x="-488" y="-322" on="1"/>
        <pt x="-447" y="-339" on="0"/>
        <pt x="-391" y="-339" on="1"/>
        <pt x="-283" y="-339" on="0"/>
        <pt x="-283" y="-271" on="1"/>
        <pt x="-283" y="-211" on="0"/>
        <pt x="-370" y="-211" on="1"/>
        <pt x="-427" y="-211" on="0"/>
        <pt x="-488" y="-267" on="0"/>
        <pt x="-488" y="-316" on="1"/>
      </contour>
      <contour>
        <pt x="-150" y="-589" on="1"/>
        <pt x="-186" y="-589" on="0"/>
        <pt x="-244" y="-619" on="0"/>
        <pt x="-244" y="-648" on="1"/>
        <pt x="-244" y="-670" on="0"/>
        <pt x="-197" y="-699" on="0"/>
        <pt x="-148" y="-699" on="1"/>
        <pt x="-53" y="-699" on="0"/>
        <pt x="-53" y="-648" on="1"/>
        <pt x="-53" y="-619" on="0"/>
        <pt x="-114" y="-589" on="0"/>
      </contour>
    </TTGlyph>
    <TTGlyph name="glyph00127" xMin="-795" yMin="-754" xMax="267" yMax="216">
      <contour>
        <pt x="-242" y="-637" on="1"/>
        <pt x="-292" y="-699" on="0"/>
        <pt x="-418" y="-754" on="0"/>
        <pt x="-508" y="-754" on="1"/>
        <pt x="-631" y="-754" on="0"/>
        <pt x="-795" y="-613" on="0"/>
        <pt x="-795" y="-501" on="1"/>
        <pt x="-795" y="-402" on="0"/>
        <pt x="-672" y="-279" on="0"/>
        <pt x="-570" y="-279" on="1"/>
        <pt x="-486" y="-279" on="0"/>
        <pt x="-389" y="-357" on="0"/>
        <pt x="-389" y="-424" on="1"/>
        <pt x="-389" y="-480" on="0"/>
        <pt x="-411" y="-513" on="1"/>
        <pt x="-530" y="-503" on="1"/>
        <pt x="-521" y="-479" on="0"/>
        <pt x="-521" y="-458" on="1"/>
        <pt x="-521" y="-435" on="0"/>
        <pt x="-549" y="-403" on="0"/>
        <pt x="-581" y="-403" on="1"/>
        <pt x="-616" y="-403" on="0"/>
        <pt x="-659" y="-451" on="0"/>
        <pt x="-659" y="-498" on="1"/>
        <pt x="-659" y="-561" on="0"/>
        <pt x="-574" y="-621" on="0"/>
        <pt x="-499" y="-621" on="1"/>
        <pt x="-416" y="-621" on="0"/>
        <pt x="-318" y="-540" on="0"/>
        <pt x="-308" y="-462" on="1"/>
        <pt x="-173" y="-462" on="1"/>
        <pt x="-165" y="-542" on="0"/>
        <pt x="-83" y="-622" on="0"/>
        <pt x="-10" y="-622" on="1"/>
        <pt x="55" y="-622" on="0"/>
        <pt x="121" y="-554" on="0"/>
        <pt x="121" y="-486" on="1"/>
        <pt x="121" y="-412" on="0"/>
        <pt x="23" y="-290" on="0"/>
        <pt x="-68" y="-253" on="1"/>
        <pt x="-321" y="-253" on="1"/>
        <pt x="-321" y="-120" on="1"/>
        <pt x="-63" y="-120" on="1"/>
        <pt x="31" y="-120" on="0"/>
        <pt x="95" y="-70" on="0"/>
        <pt x="95" y="-24" on="1"/>
        <pt x="95" y="12" on="0"/>
        <pt x="53" y="113" on="0"/>
        <pt x="17" y="159" on="1"/>
        <pt x="149" y="216" on="1"/>
        <pt x="251" y="77" on="0"/>
        <pt x="251" y="-38" on="1"/>
        <pt x="251" y="-176" on="0"/>
        <pt x="114" y="-228" on="1"/>
        <pt x="267" y="-334" on="0"/>
        <pt x="267" y="-501" on="1"/>
        <pt x="267" y="-621" on="0"/>
        <pt x="119" y="-754" on="0"/>
        <pt x="-9" y="-754" on="1"/>
        <pt x="-162" y="-754" on="0"/>
      </contour>
    </TTGlyph>
    <TTGlyph name="glyph00128" xMin="-242" yMin="-782" xMax="507" yMax="227">
      <contour>
        <pt x="-222" y="-365" on="1"/>
        <pt x="-235" y="-323" on="0"/>
        <pt x="-235" y="-284" on="1"/>
        <pt x="-235" y="-188" on="0"/>
        <pt x="-84" y="-92" on="0"/>
        <pt x="66" y="-92" on="1"/>
        <pt x="118" y="-92" on="0"/>
        <pt x="145" y="-96" on="1"/>
        <pt x="113" y="38" on="0"/>
        <pt x="19" y="159" on="1"/>
        <pt x="155" y="227" on="1"/>
        <pt x="233" y="113" on="0"/>
        <pt x="292" y="-47" on="0"/>
        <pt x="298" y="-130" on="1"/>
        <pt x="397" y="-173" on="0"/>
        <pt x="507" y="-343" on="0"/>
        <pt x="507" y="-449" on="1"/>
        <pt x="507" y="-610" on="0"/>
        <pt x="278" y="-782" on="0"/>
        <pt x="68" y="-782" on="1"/>
        <pt x="-80" y="-782" on="0"/>
        <pt x="-242" y="-670" on="0"/>
        <pt x="-242" y="-568" on="1"/>
        <pt x="-242" y="-496" on="0"/>
        <pt x="-145" y="-400" on="0"/>
        <pt x="0" y="-358" on="1"/>
        <pt x="83" y="-333" on="0"/>
        <pt x="148" y="-277" on="0"/>
        <pt x="154" y="-227" on="1"/>
        <pt x="118" y="-222" on="0"/>
        <pt x="61" y="-222" on="1"/>
        <pt x="-2" y="-222" on="0"/>
        <pt x="-82" y="-262" on="0"/>
        <pt x="-82" y="-296" on="1"/>
        <pt x="-82" y="-318" on="0"/>
        <pt x="-76" y="-339" on="1"/>
      </contour>
      <contour>
        <pt x="291" y="-275" on="1"/>
        <pt x="274" y="-354" on="0"/>
        <pt x="151" y="-451" on="0"/>
        <pt x="35" y="-481" on="1"/>
        <pt x="-28" y="-498" on="0"/>
        <pt x="-96" y="-538" on="0"/>
        <pt x="-96" y="-573" on="1"/>
        <pt x="-96" y="-613" on="0"/>
        <pt x="-13" y="-647" on="0"/>
        <pt x="68" y="-647" on="1"/>
        <pt x="202" y="-647" on="0"/>
        <pt x="362" y="-540" on="0"/>
        <pt x="362" y="-448" on="1"/>
        <pt x="362" y="-400" on="0"/>
        <pt x="326" y="-308" on="0"/>
      </contour>
    </TTGlyph>
    <TTGlyph name="glyph00129" xMin="-769" yMin="-826" xMax="326" yMax="-69">
      <contour>
        <pt x="152" y="-69" on="1"/>
        <pt x="239" y="-180" on="0"/>
        <pt x="326" y="-451" on="0"/>
        <pt x="326" y="-611" on="1"/>
        <pt x="326" y="-729" on="0"/>
        <pt x="303" y="-826" on="1"/>
        <pt x="161" y="-803" on="1"/>
        <pt x="198" y="-681" on="0"/>
        <pt x="198" y="-580" on="1"/>
        <pt x="198" y="-561" on="0"/>
        <pt x="195" y="-528" on="1"/>
        <pt x="143" y="-654" on="0"/>
        <pt x="-5" y="-654" on="1"/>
        <pt x="-76" y="-654" on="0"/>
        <pt x="-180" y="-599" on="0"/>
        <pt x="-220" y="-537" on="1"/>
        <pt x="-267" y="-598" on="0"/>
        <pt x="-391" y="-654" on="0"/>
        <pt x="-482" y="-654" on="1"/>
        <pt x="-605" y="-654" on="0"/>
        <pt x="-769" y="-513" on="0"/>
        <pt x="-769" y="-401" on="1"/>
        <pt x="-769" y="-302" on="0"/>
        <pt x="-646" y="-179" on="0"/>
        <pt x="-544" y="-179" on="1"/>
        <pt x="-460" y="-179" on="0"/>
        <pt x="-363" y="-257" on="0"/>
        <pt x="-363" y="-324" on="1"/>
        <pt x="-363" y="-380" on="0"/>
        <pt x="-385" y="-413" on="1"/>
        <pt x="-504" y="-403" on="1"/>
        <pt x="-495" y="-379" on="0"/>
        <pt x="-495" y="-358" on="1"/>
        <pt x="-495" y="-335" on="0"/>
        <pt x="-523" y="-303" on="0"/>
        <pt x="-555" y="-303" on="1"/>
        <pt x="-590" y="-303" on="0"/>
        <pt x="-633" y="-351" on="0"/>
        <pt x="-633" y="-398" on="1"/>
        <pt x="-633" y="-461" on="0"/>
        <pt x="-548" y="-521" on="0"/>
        <pt x="-473" y="-521" on="1"/>
        <pt x="-390" y="-521" on="0"/>
        <pt x="-292" y="-440" on="0"/>
        <pt x="-282" y="-362" on="1"/>
        <pt x="-147" y="-362" on="1"/>
        <pt x="-136" y="-522" on="0"/>
        <pt x="-3" y="-522" on="1"/>
        <pt x="63" y="-522" on="0"/>
        <pt x="132" y="-446" on="0"/>
        <pt x="132" y="-377" on="1"/>
        <pt x="132" y="-318" on="0"/>
        <pt x="87" y="-210" on="0"/>
        <pt x="29" y="-146" on="1"/>
      </contour>
    </TTGlyph>
    <TTGlyph name="glyph00130" xMin="-745" yMin="-680" xMax="321" yMax="142">
      <contour>
        <pt x="-514" y="-633" on="1"/>
        <pt x="-657" y="-680" on="1"/>
        <pt x="-699" y="-630" on="0"/>
        <pt x="-745" y="-503" on="0"/>
        <pt x="-745" y="-438" on="1"/>
        <pt x="-745" y="-336" on="0"/>
        <pt x="-599" y="-199" on="0"/>
        <pt x="-491" y="-199" on="1"/>
        <pt x="-408" y="-199" on="0"/>
        <pt x="-278" y="-267" on="0"/>
        <pt x="-206" y="-372" on="1"/>
        <pt x="-135" y="-475" on="0"/>
        <pt x="-46" y="-542" on="0"/>
        <pt x="6" y="-542" on="1"/>
        <pt x="84" y="-542" on="0"/>
        <pt x="164" y="-444" on="0"/>
        <pt x="164" y="-326" on="1"/>
        <pt x="164" y="-232" on="0"/>
        <pt x="84" y="-7" on="0"/>
        <pt x="16" y="74" on="1"/>
        <pt x="156" y="142" on="1"/>
        <pt x="321" y="-81" on="0"/>
        <pt x="321" y="-324" on="1"/>
        <pt x="321" y="-495" on="0"/>
        <pt x="158" y="-674" on="0"/>
        <pt x="7" y="-674" on="1"/>
        <pt x="-62" y="-674" on="0"/>
        <pt x="-169" y="-635" on="0"/>
        <pt x="-253" y="-562" on="0"/>
        <pt x="-312" y="-475" on="1"/>
        <pt x="-375" y="-381" on="0"/>
        <pt x="-444" y="-328" on="0"/>
        <pt x="-486" y="-328" on="1"/>
        <pt x="-537" y="-328" on="0"/>
        <pt x="-592" y="-389" on="0"/>
        <pt x="-592" y="-444" on="1"/>
        <pt x="-592" y="-531" on="0"/>
      </contour>
    </TTGlyph>
    <TTGlyph name="glyph00131" xMin="-735" yMin="-664" xMax="267" yMax="-130">
      <contour>
        <pt x="-236" y="-551" on="1"/>
        <pt x="-305" y="-664" on="0"/>
        <pt x="-463" y="-664" on="1"/>
        <pt x="-591" y="-664" on="0"/>
        <pt x="-735" y="-517" on="0"/>
        <pt x="-735" y="-395" on="1"/>
        <pt x="-735" y="-275" on="0"/>
        <pt x="-584" y="-130" on="0"/>
        <pt x="-455" y="-130" on="1"/>
        <pt x="-300" y="-130" on="0"/>
        <pt x="-233" y="-242" on="1"/>
        <pt x="-163" y="-130" on="0"/>
        <pt x="-5" y="-130" on="1"/>
        <pt x="122" y="-130" on="0"/>
        <pt x="267" y="-275" on="0"/>
        <pt x="267" y="-398" on="1"/>
        <pt x="267" y="-519" on="0"/>
        <pt x="115" y="-664" on="0"/>
        <pt x="-13" y="-664" on="1"/>
        <pt x="-169" y="-664" on="0"/>
      </contour>
      <contour>
        <pt x="-444" y="-262" on="1"/>
        <pt x="-514" y="-262" on="0"/>
        <pt x="-590" y="-333" on="0"/>
        <pt x="-590" y="-395" on="1"/>
        <pt x="-590" y="-459" on="0"/>
        <pt x="-516" y="-532" on="0"/>
        <pt x="-449" y="-532" on="1"/>
        <pt x="-381" y="-532" on="0"/>
        <pt x="-304" y="-459" on="0"/>
        <pt x="-304" y="-398" on="1"/>
        <pt x="-304" y="-335" on="0"/>
        <pt x="-378" y="-262" on="0"/>
      </contour>
      <contour>
        <pt x="-24" y="-532" on="1"/>
        <pt x="46" y="-532" on="0"/>
        <pt x="122" y="-461" on="0"/>
        <pt x="122" y="-399" on="1"/>
        <pt x="122" y="-337" on="0"/>
        <pt x="48" y="-262" on="0"/>
        <pt x="-19" y="-262" on="1"/>
        <pt x="-87" y="-262" on="0"/>
        <pt x="-164" y="-334" on="0"/>
        <pt x="-164" y="-395" on="1"/>
        <pt x="-164" y="-458" on="0"/>
        <pt x="-89" y="-532" on="0"/>
      </contour>
    </TTGlyph>
    <TTGlyph name="glyph00132" xMin="-760" yMin="-754" xMax="345" yMax="-113">
      <contour>
        <pt x="-208" y="-636" on="1"/>
        <pt x="-260" y="-700" on="0"/>
        <pt x="-381" y="-754" on="0"/>
        <pt x="-464" y="-754" on="1"/>
        <pt x="-598" y="-754" on="0"/>
        <pt x="-760" y="-586" on="0"/>
        <pt x="-760" y="-440" on="1"/>
        <pt x="-760" y="-298" on="0"/>
        <pt x="-589" y="-113" on="0"/>
        <pt x="-455" y="-113" on="1"/>
        <pt x="-356" y="-113" on="0"/>
        <pt x="-249" y="-208" on="0"/>
        <pt x="-249" y="-295" on="1"/>
        <pt x="-249" y="-383" on="0"/>
        <pt x="-367" y="-481" on="0"/>
        <pt x="-478" y="-481" on="1"/>
        <pt x="-558" y="-481" on="0"/>
        <pt x="-620" y="-447" on="1"/>
        <pt x="-620" y="-530" on="0"/>
        <pt x="-543" y="-622" on="0"/>
        <pt x="-455" y="-622" on="1"/>
        <pt x="-380" y="-622" on="0"/>
        <pt x="-287" y="-543" on="0"/>
        <pt x="-277" y="-473" on="1"/>
        <pt x="-138" y="-473" on="1"/>
        <pt x="-128" y="-543" on="0"/>
        <pt x="-35" y="-622" on="0"/>
        <pt x="40" y="-622" on="1"/>
        <pt x="128" y="-622" on="0"/>
        <pt x="204" y="-531" on="0"/>
        <pt x="205" y="-447" on="1"/>
        <pt x="143" y="-481" on="0"/>
        <pt x="63" y="-481" on="1"/>
        <pt x="-48" y="-481" on="0"/>
        <pt x="-166" y="-383" on="0"/>
        <pt x="-166" y="-295" on="1"/>
        <pt x="-166" y="-210" on="0"/>
        <pt x="-57" y="-113" on="0"/>
        <pt x="46" y="-113" on="1"/>
        <pt x="176" y="-113" on="0"/>
        <pt x="345" y="-299" on="0"/>
        <pt x="345" y="-440" on="1"/>
        <pt x="345" y="-586" on="0"/>
        <pt x="183" y="-754" on="0"/>
        <pt x="49" y="-754" on="1"/>
        <pt x="-36" y="-754" on="0"/>
        <pt x="-156" y="-698" on="0"/>
      </contour>
      <contour>
        <pt x="187" y="-334" on="1"/>
        <pt x="170" y="-287" on="0"/>
        <pt x="94" y="-235" on="0"/>
        <pt x="44" y="-235" on="1"/>
        <pt x="9" y="-235" on="0"/>
        <pt x="-30" y="-266" on="0"/>
        <pt x="-30" y="-295" on="1"/>
        <pt x="-30" y="-363" on="0"/>
        <pt x="78" y="-363" on="1"/>
        <pt x="141" y="-363" on="0"/>
      </contour>
      <contour>
        <pt x="-602" y="-334" on="1"/>
        <pt x="-556" y="-363" on="0"/>
        <pt x="-493" y="-363" on="1"/>
        <pt x="-385" y="-363" on="0"/>
        <pt x="-385" y="-295" on="1"/>
        <pt x="-385" y="-266" on="0"/>
        <pt x="-424" y="-235" on="0"/>
        <pt x="-459" y="-235" on="1"/>
        <pt x="-509" y="-235" on="0"/>
        <pt x="-584" y="-286" on="0"/>
      </contour>
    </TTGlyph>
    <TTGlyph name="glyph00133" xMin="-733" yMin="-981" xMax="258" yMax="-112">
      <contour>
        <pt x="214" y="-381" on="1"/>
        <pt x="258" y="-454" on="0"/>
        <pt x="258" y="-542" on="1"/>
        <pt x="258" y="-641" on="0"/>
        <pt x="131" y="-754" on="0"/>
        <pt x="14" y="-754" on="1"/>
        <pt x="-134" y="-754" on="0"/>
        <pt x="-220" y="-636" on="1"/>
        <pt x="-268" y="-697" on="0"/>
        <pt x="-387" y="-754" on="0"/>
        <pt x="-464" y="-754" on="1"/>
        <pt x="-567" y="-754" on="0"/>
        <pt x="-681" y="-660" on="0"/>
        <pt x="-681" y="-582" on="1"/>
        <pt x="-681" y="-518" on="0"/>
        <pt x="-605" y="-426" on="0"/>
        <pt x="-512" y="-380" on="1"/>
        <pt x="-455" y="-352" on="0"/>
        <pt x="-403" y="-308" on="0"/>
        <pt x="-403" y="-283" on="1"/>
        <pt x="-403" y="-234" on="0"/>
        <pt x="-485" y="-234" on="1"/>
        <pt x="-590" y="-234" on="0"/>
        <pt x="-590" y="-296" on="1"/>
        <pt x="-590" y="-322" on="0"/>
        <pt x="-578" y="-344" on="1"/>
        <pt x="-707" y="-386" on="1"/>
        <pt x="-733" y="-333" on="0"/>
        <pt x="-733" y="-273" on="1"/>
        <pt x="-733" y="-203" on="0"/>
        <pt x="-600" y="-113" on="0"/>
        <pt x="-486" y="-113" on="1"/>
        <pt x="-332" y="-113" on="0"/>
        <pt x="-283" y="-192" on="1"/>
        <pt x="-190" y="-287" on="0"/>
        <pt x="-82" y="-287" on="1"/>
        <pt x="-27" y="-287" on="0"/>
        <pt x="34" y="-246" on="0"/>
        <pt x="34" y="-205" on="1"/>
        <pt x="34" y="-175" on="0"/>
        <pt x="20" y="-136" on="1"/>
        <pt x="156" y="-112" on="1"/>
        <pt x="176" y="-156" on="0"/>
        <pt x="176" y="-216" on="1"/>
        <pt x="176" y="-308" on="0"/>
        <pt x="56" y="-411" on="0"/>
        <pt x="-52" y="-411" on="1"/>
        <pt x="-178" y="-411" on="0"/>
        <pt x="-275" y="-348" on="1"/>
        <pt x="-298" y="-406" on="0"/>
        <pt x="-399" y="-458" on="1"/>
        <pt x="-489" y="-504" on="0"/>
        <pt x="-536" y="-544" on="0"/>
        <pt x="-536" y="-570" on="1"/>
        <pt x="-536" y="-622" on="0"/>
        <pt x="-457" y="-622" on="1"/>
        <pt x="-310" y="-622" on="0"/>
        <pt x="-282" y="-483" on="1"/>
        <pt x="-143" y="-483" on="1"/>
        <pt x="-121" y="-622" on="0"/>
        <pt x="-3" y="-622" on="1"/>
        <pt x="54" y="-622" on="0"/>
        <pt x="113" y="-572" on="0"/>
        <pt x="113" y="-528" on="1"/>
        <pt x="113" y="-476" on="0"/>
        <pt x="84" y="-431" on="1"/>
      </contour>
      <contour>
        <pt x="-63" y="-797" on="1"/>
        <pt x="-23" y="-797" on="0"/>
        <pt x="33" y="-851" on="0"/>
        <pt x="33" y="-889" on="1"/>
        <pt x="33" y="-927" on="0"/>
        <pt x="-23" y="-981" on="0"/>
        <pt x="-63" y="-981" on="1"/>
        <pt x="-102" y="-981" on="0"/>
        <pt x="-157" y="-927" on="0"/>
        <pt x="-157" y="-889" on="1"/>
        <pt x="-157" y="-850" on="0"/>
        <pt x="-102" y="-797" on="0"/>
      </contour>
      <contour>
        <pt x="-363" y="-797" on="1"/>
        <pt x="-323" y="-797" on="0"/>
        <pt x="-267" y="-851" on="0"/>
        <pt x="-267" y="-889" on="1"/>
        <pt x="-267" y="-927" on="0"/>
        <pt x="-323" y="-981" on="0"/>
        <pt x="-363" y="-981" on="1"/>
        <pt x="-402" y="-981" on="0"/>
        <pt x="-457" y="-927" on="0"/>
        <pt x="-457" y="-889" on="1"/>
        <pt x="-457" y="-850" on="0"/>
        <pt x="-402" y="-797" on="0"/>
      </contour>
    </TTGlyph>
    <TTGlyph name="glyph00134" xMin="-775" yMin="-911" xMax="321" yMax="142">
      <contour>
        <pt x="-222" y="-557" on="1"/>
        <pt x="-272" y="-619" on="0"/>
        <pt x="-398" y="-674" on="0"/>
        <pt x="-488" y="-674" on="1"/>
        <pt x="-611" y="-674" on="0"/>
        <pt x="-775" y="-533" on="0"/>
        <pt x="-775" y="-421" on="1"/>
        <pt x="-775" y="-322" on="0"/>
        <pt x="-652" y="-199" on="0"/>
        <pt x="-550" y="-199" on="1"/>
        <pt x="-466" y="-199" on="0"/>
        <pt x="-369" y="-277" on="0"/>
        <pt x="-369" y="-344" on="1"/>
        <pt x="-369" y="-400" on="0"/>
        <pt x="-391" y="-433" on="1"/>
        <pt x="-510" y="-423" on="1"/>
        <pt x="-501" y="-399" on="0"/>
        <pt x="-501" y="-378" on="1"/>
        <pt x="-501" y="-355" on="0"/>
        <pt x="-529" y="-323" on="0"/>
        <pt x="-561" y="-323" on="1"/>
        <pt x="-596" y="-323" on="0"/>
        <pt x="-639" y="-371" on="0"/>
        <pt x="-639" y="-418" on="1"/>
        <pt x="-639" y="-481" on="0"/>
        <pt x="-554" y="-541" on="0"/>
        <pt x="-479" y="-541" on="1"/>
        <pt x="-396" y="-541" on="0"/>
        <pt x="-298" y="-460" on="0"/>
        <pt x="-288" y="-382" on="1"/>
        <pt x="-153" y="-382" on="1"/>
        <pt x="-146" y="-461" on="0"/>
        <pt x="-65" y="-542" on="0"/>
        <pt x="-3" y="-542" on="1"/>
        <pt x="77" y="-542" on="0"/>
        <pt x="164" y="-448" on="0"/>
        <pt x="164" y="-326" on="1"/>
        <pt x="164" y="-233" on="0"/>
        <pt x="87" y="-11" on="0"/>
        <pt x="19" y="74" on="1"/>
        <pt x="156" y="142" on="1"/>
        <pt x="321" y="-81" on="0"/>
        <pt x="321" y="-324" on="1"/>
        <pt x="321" y="-495" on="0"/>
        <pt x="158" y="-674" on="0"/>
        <pt x="6" y="-674" on="1"/>
        <pt x="-142" y="-674" on="0"/>
      </contour>
      <contour>
        <pt x="-301" y="-858" on="1"/>
        <pt x="-291" y="-644" on="1"/>
        <pt x="-151" y="-644" on="1"/>
        <pt x="-141" y="-858" on="1"/>
      </contour>
      <contour>
        <pt x="-454" y="-727" on="1"/>
        <pt x="-414" y="-727" on="0"/>
        <pt x="-358" y="-781" on="0"/>
        <pt x="-358" y="-819" on="1"/>
        <pt x="-358" y="-857" on="0"/>
        <pt x="-414" y="-911" on="0"/>
        <pt x="-454" y="-911" on="1"/>
        <pt x="-493" y="-911" on="0"/>
        <pt x="-548" y="-857" on="0"/>
        <pt x="-548" y="-819" on="1"/>
        <pt x="-548" y="-780" on="0"/>
        <pt x="-493" y="-727" on="0"/>
      </contour>
      <contour>
        <pt x="6" y="-727" on="1"/>
        <pt x="46" y="-727" on="0"/>
        <pt x="102" y="-781" on="0"/>
        <pt x="102" y="-819" on="1"/>
        <pt x="102" y="-857" on="0"/>
        <pt x="46" y="-911" on="0"/>
        <pt x="6" y="-911" on="1"/>
        <pt x="-33" y="-911" on="0"/>
        <pt x="-88" y="-857" on="0"/>
        <pt x="-88" y="-819" on="1"/>
        <pt x="-88" y="-780" on="0"/>
        <pt x="-33" y="-727" on="0"/>
      </contour>
    </TTGlyph>
    <TTGlyph name="glyph00135" xMin="73" yMin="-24" xMax="1104" yMax="1130">
      <contour>
        <pt x="870" y="971" on="1"/>
        <pt x="679" y="971" on="1"/>
        <pt x="682" y="970" on="1"/>
        <pt x="715" y="916" on="0"/>
        <pt x="715" y="866" on="1"/>
        <pt x="715" y="810" on="0"/>
        <pt x="689" y="769" on="1"/>
        <pt x="1104" y="769" on="1"/>
        <pt x="1104" y="626" on="1"/>
        <pt x="905" y="629" on="1"/>
        <pt x="978" y="585" on="0"/>
        <pt x="1057" y="443" on="0"/>
        <pt x="1057" y="357" on="1"/>
        <pt x="1057" y="178" on="0"/>
        <pt x="807" y="-24" on="0"/>
        <pt x="580" y="-24" on="1"/>
        <pt x="366" y="-24" on="0"/>
        <pt x="118" y="181" on="0"/>
        <pt x="118" y="353" on="1"/>
        <pt x="118" y="527" on="0"/>
        <pt x="264" y="628" on="1"/>
        <pt x="73" y="626" on="1"/>
        <pt x="73" y="769" on="1"/>
        <pt x="500" y="769" on="1"/>
        <pt x="553" y="808" on="0"/>
        <pt x="553" y="868" on="1"/>
        <pt x="553" y="920" on="0"/>
        <pt x="519" y="970" on="1"/>
        <pt x="522" y="971" on="1"/>
        <pt x="73" y="971" on="1"/>
        <pt x="73" y="1130" on="1"/>
        <pt x="870" y="1130" on="1"/>
      </contour>
      <contour>
        <pt x="587" y="626" on="1"/>
        <pt x="440" y="626" on="0"/>
        <pt x="283" y="492" on="0"/>
        <pt x="283" y="376" on="1"/>
        <pt x="283" y="263" on="0"/>
        <pt x="439" y="136" on="0"/>
        <pt x="587" y="136" on="1"/>
        <pt x="735" y="136" on="0"/>
        <pt x="892" y="263" on="0"/>
        <pt x="892" y="376" on="1"/>
        <pt x="892" y="494" on="0"/>
        <pt x="734" y="626" on="0"/>
      </contour>
    </TTGlyph>
    <TTGlyph name="glyph00136" xMin="52" yMin="-24" xMax="1686" yMax="1154">
      <contour>
        <pt x="890" y="286" on="1"/>
        <pt x="1000" y="201" on="0"/>
        <pt x="1147" y="138" on="0"/>
        <pt x="1229" y="138" on="1"/>
        <pt x="1366" y="138" on="0"/>
        <pt x="1518" y="294" on="0"/>
        <pt x="1518" y="431" on="1"/>
        <pt x="1518" y="619" on="0"/>
        <pt x="1305" y="907" on="0"/>
        <pt x="1115" y="971" on="1"/>
        <pt x="1007" y="971" on="1"/>
        <pt x="1007" y="1130" on="1"/>
        <pt x="1455" y="1130" on="1"/>
        <pt x="1455" y="971" on="1"/>
        <pt x="1399" y="971" on="1"/>
        <pt x="1545" y="871" on="0"/>
        <pt x="1686" y="609" on="0"/>
        <pt x="1686" y="440" on="1"/>
        <pt x="1686" y="231" on="0"/>
        <pt x="1449" y="-24" on="0"/>
        <pt x="1226" y="-24" on="1"/>
        <pt x="1122" y="-24" on="0"/>
        <pt x="923" y="58" on="0"/>
        <pt x="801" y="155" on="1"/>
        <pt x="722" y="65" on="0"/>
        <pt x="516" y="-24" on="0"/>
        <pt x="390" y="-24" on="1"/>
        <pt x="232" y="-24" on="0"/>
        <pt x="52" y="129" on="0"/>
        <pt x="52" y="266" on="1"/>
        <pt x="52" y="378" on="0"/>
        <pt x="221" y="526" on="0"/>
        <pt x="370" y="526" on="1"/>
        <pt x="470" y="526" on="0"/>
        <pt x="656" y="459" on="0"/>
        <pt x="759" y="385" on="1"/>
        <pt x="775" y="436" on="0"/>
        <pt x="792" y="551" on="0"/>
        <pt x="792" y="614" on="1"/>
        <pt x="792" y="795" on="0"/>
        <pt x="640" y="1005" on="0"/>
        <pt x="510" y="1005" on="1"/>
        <pt x="422" y="1005" on="0"/>
        <pt x="326" y="924" on="0"/>
        <pt x="326" y="850" on="1"/>
        <pt x="326" y="813" on="0"/>
        <pt x="337" y="789" on="1"/>
        <pt x="360" y="868" on="0"/>
        <pt x="444" y="868" on="1"/>
        <pt x="492" y="868" on="0"/>
        <pt x="553" y="802" on="0"/>
        <pt x="553" y="747" on="1"/>
        <pt x="553" y="685" on="0"/>
        <pt x="470" y="615" on="0"/>
        <pt x="400" y="615" on="1"/>
        <pt x="303" y="615" on="0"/>
        <pt x="178" y="743" on="0"/>
        <pt x="178" y="851" on="1"/>
        <pt x="178" y="988" on="0"/>
        <pt x="363" y="1154" on="0"/>
        <pt x="508" y="1154" on="1"/>
        <pt x="719" y="1154" on="0"/>
        <pt x="960" y="865" on="0"/>
        <pt x="960" y="624" on="1"/>
        <pt x="960" y="526" on="0"/>
        <pt x="925" y="357" on="0"/>
      </contour>
      <contour>
        <pt x="684" y="249" on="1"/>
        <pt x="591" y="323" on="0"/>
        <pt x="445" y="382" on="0"/>
        <pt x="371" y="382" on="1"/>
        <pt x="297" y="382" on="0"/>
        <pt x="215" y="316" on="0"/>
        <pt x="215" y="262" on="1"/>
        <pt x="215" y="201" on="0"/>
        <pt x="305" y="130" on="0"/>
        <pt x="391" y="130" on="1"/>
        <pt x="485" y="130" on="0"/>
        <pt x="631" y="189" on="0"/>
      </contour>
    </TTGlyph>
    <TTGlyph name="glyph00137" xMin="96" yMin="0" xMax="1224" yMax="1130">
      <contour>
        <pt x="1021" y="1130" on="1"/>
        <pt x="1021" y="971" on="1"/>
        <pt x="964" y="971" on="1"/>
        <pt x="1093" y="879" on="0"/>
        <pt x="1224" y="551" on="0"/>
        <pt x="1224" y="255" on="1"/>
        <pt x="1224" y="0" on="1"/>
        <pt x="1039" y="0" on="1"/>
        <pt x="1039" y="221" on="1"/>
        <pt x="1039" y="414" on="0"/>
        <pt x="1001" y="665" on="0"/>
        <pt x="897" y="874" on="0"/>
        <pt x="760" y="971" on="0"/>
        <pt x="667" y="971" on="1"/>
        <pt x="597" y="971" on="0"/>
        <pt x="488" y="921" on="0"/>
        <pt x="399" y="821" on="0"/>
        <pt x="320" y="628" on="0"/>
        <pt x="288" y="389" on="0"/>
        <pt x="288" y="221" on="1"/>
        <pt x="288" y="0" on="1"/>
        <pt x="103" y="0" on="1"/>
        <pt x="103" y="255" on="1"/>
        <pt x="103" y="541" on="0"/>
        <pt x="236" y="883" on="0"/>
        <pt x="364" y="971" on="1"/>
        <pt x="96" y="971" on="1"/>
        <pt x="96" y="1130" on="1"/>
      </contour>
    </TTGlyph>
    <TTGlyph name="glyph00138" xMin="63" yMin="-294" xMax="1984" yMax="1155">
      <contour>
        <pt x="1354" y="781" on="1"/>
        <pt x="1444" y="654" on="0"/>
        <pt x="1571" y="566" on="0"/>
        <pt x="1657" y="566" on="1"/>
        <pt x="1735" y="566" on="0"/>
        <pt x="1819" y="650" on="0"/>
        <pt x="1819" y="723" on="1"/>
        <pt x="1819" y="861" on="0"/>
        <pt x="1705" y="971" on="1"/>
        <pt x="63" y="971" on="1"/>
        <pt x="63" y="1130" on="1"/>
        <pt x="1724" y="1130" on="1"/>
        <pt x="1746" y="1155" on="1"/>
        <pt x="1862" y="1067" on="0"/>
        <pt x="1984" y="847" on="0"/>
        <pt x="1984" y="725" on="1"/>
        <pt x="1984" y="582" on="0"/>
        <pt x="1814" y="422" on="0"/>
        <pt x="1673" y="422" on="1"/>
        <pt x="1579" y="422" on="0"/>
        <pt x="1515" y="460" on="1"/>
        <pt x="1539" y="407" on="0"/>
        <pt x="1539" y="348" on="1"/>
        <pt x="1539" y="180" on="0"/>
        <pt x="1333" y="-24" on="0"/>
        <pt x="1182" y="-24" on="1"/>
        <pt x="1063" y="-24" on="0"/>
        <pt x="909" y="52" on="0"/>
        <pt x="840" y="160" on="1"/>
        <pt x="780" y="68" on="0"/>
        <pt x="613" y="-24" on="0"/>
        <pt x="462" y="-24" on="1"/>
        <pt x="286" y="-24" on="0"/>
        <pt x="63" y="178" on="0"/>
        <pt x="63" y="341" on="1"/>
        <pt x="63" y="483" on="0"/>
        <pt x="235" y="664" on="0"/>
        <pt x="374" y="664" on="1"/>
        <pt x="483" y="664" on="0"/>
        <pt x="615" y="560" on="0"/>
        <pt x="615" y="473" on="1"/>
        <pt x="615" y="397" on="0"/>
        <pt x="588" y="352" on="1"/>
        <pt x="448" y="365" on="1"/>
        <pt x="461" y="400" on="0"/>
        <pt x="461" y="431" on="1"/>
        <pt x="461" y="475" on="0"/>
        <pt x="411" y="520" on="0"/>
        <pt x="368" y="520" on="1"/>
        <pt x="299" y="520" on="0"/>
        <pt x="219" y="427" on="0"/>
        <pt x="219" y="349" on="1"/>
        <pt x="219" y="251" on="0"/>
        <pt x="354" y="138" on="0"/>
        <pt x="480" y="138" on="1"/>
        <pt x="738" y="138" on="0"/>
        <pt x="761" y="399" on="1"/>
        <pt x="918" y="399" on="1"/>
        <pt x="927" y="274" on="0"/>
        <pt x="1059" y="138" on="0"/>
        <pt x="1167" y="138" on="1"/>
        <pt x="1264" y="138" on="0"/>
        <pt x="1373" y="255" on="0"/>
        <pt x="1373" y="341" on="1"/>
        <pt x="1373" y="437" on="0"/>
        <pt x="1294" y="602" on="0"/>
        <pt x="1211" y="685" on="1"/>
      </contour>
      <contour>
        <pt x="822" y="849" on="1"/>
        <pt x="872" y="849" on="0"/>
        <pt x="942" y="779" on="0"/>
        <pt x="942" y="728" on="1"/>
        <pt x="942" y="678" on="0"/>
        <pt x="871" y="608" on="0"/>
        <pt x="822" y="608" on="1"/>
        <pt x="773" y="608" on="0"/>
        <pt x="704" y="679" on="0"/>
        <pt x="704" y="728" on="1"/>
        <pt x="704" y="777" on="0"/>
        <pt x="771" y="849" on="0"/>
      </contour>
      <contour>
        <pt x="745" y="-294" on="1"/>
        <pt x="761" y="31" on="1"/>
        <pt x="919" y="31" on="1"/>
        <pt x="935" y="-294" on="1"/>
      </contour>
    </TTGlyph>
    <TTGlyph name="glyph00139" xMin="56" yMin="-24" xMax="1564" yMax="1154">
      <contour>
        <pt x="812" y="160" on="1"/>
        <pt x="753" y="65" on="0"/>
        <pt x="587" y="-24" on="0"/>
        <pt x="448" y="-24" on="1"/>
        <pt x="290" y="-24" on="0"/>
        <pt x="102" y="151" on="0"/>
        <pt x="102" y="279" on="1"/>
        <pt x="102" y="357" on="0"/>
        <pt x="158" y="477" on="0"/>
        <pt x="265" y="581" on="0"/>
        <pt x="385" y="658" on="1"/>
        <pt x="496" y="729" on="0"/>
        <pt x="558" y="816" on="0"/>
        <pt x="558" y="865" on="1"/>
        <pt x="558" y="1004" on="0"/>
        <pt x="392" y="1004" on="1"/>
        <pt x="310" y="1004" on="0"/>
        <pt x="222" y="932" on="0"/>
        <pt x="222" y="864" on="1"/>
        <pt x="222" y="801" on="0"/>
        <pt x="263" y="744" on="1"/>
        <pt x="118" y="680" on="1"/>
        <pt x="56" y="779" on="0"/>
        <pt x="56" y="882" on="1"/>
        <pt x="56" y="1000" on="0"/>
        <pt x="237" y="1154" on="0"/>
        <pt x="393" y="1154" on="1"/>
        <pt x="555" y="1154" on="0"/>
        <pt x="724" y="996" on="0"/>
        <pt x="724" y="866" on="1"/>
        <pt x="724" y="773" on="0"/>
        <pt x="617" y="621" on="0"/>
        <pt x="461" y="521" on="1"/>
        <pt x="376" y="466" on="0"/>
        <pt x="306" y="403" on="0"/>
        <pt x="271" y="334" on="0"/>
        <pt x="271" y="289" on="1"/>
        <pt x="271" y="216" on="0"/>
        <pt x="369" y="138" on="0"/>
        <pt x="458" y="138" on="1"/>
        <pt x="711" y="138" on="0"/>
        <pt x="734" y="399" on="1"/>
        <pt x="891" y="399" on="1"/>
        <pt x="899" y="275" on="0"/>
        <pt x="1039" y="138" on="0"/>
        <pt x="1150" y="138" on="1"/>
        <pt x="1251" y="138" on="0"/>
        <pt x="1359" y="240" on="0"/>
        <pt x="1359" y="332" on="1"/>
        <pt x="1359" y="424" on="0"/>
        <pt x="1254" y="577" on="0"/>
        <pt x="1160" y="626" on="1"/>
        <pt x="901" y="626" on="1"/>
        <pt x="901" y="769" on="1"/>
        <pt x="1160" y="769" on="1"/>
        <pt x="1213" y="808" on="0"/>
        <pt x="1213" y="868" on="1"/>
        <pt x="1213" y="925" on="0"/>
        <pt x="1177" y="971" on="1"/>
        <pt x="901" y="971" on="1"/>
        <pt x="901" y="1130" on="1"/>
        <pt x="1333" y="1130" on="1"/>
        <pt x="1333" y="986" on="1"/>
        <pt x="1352" y="962" on="0"/>
        <pt x="1375" y="894" on="0"/>
        <pt x="1375" y="866" on="1"/>
        <pt x="1375" y="813" on="0"/>
        <pt x="1347" y="769" on="1"/>
        <pt x="1564" y="769" on="1"/>
        <pt x="1564" y="626" on="1"/>
        <pt x="1479" y="626" on="1"/>
        <pt x="1426" y="626" on="0"/>
        <pt x="1372" y="629" on="1"/>
        <pt x="1453" y="562" on="0"/>
        <pt x="1527" y="412" on="0"/>
        <pt x="1527" y="320" on="1"/>
        <pt x="1527" y="157" on="0"/>
        <pt x="1332" y="-24" on="0"/>
        <pt x="1150" y="-24" on="1"/>
        <pt x="1033" y="-24" on="0"/>
        <pt x="875" y="64" on="0"/>
      </contour>
    </TTGlyph>
    <TTGlyph name="glyph00140" xMin="85" yMin="-294" xMax="1642" yMax="1154">
      <contour>
        <pt x="1355" y="971" on="1"/>
        <pt x="1642" y="776" on="0"/>
        <pt x="1642" y="441" on="1"/>
        <pt x="1642" y="228" on="0"/>
        <pt x="1415" y="-24" on="0"/>
        <pt x="1218" y="-24" on="1"/>
        <pt x="1106" y="-24" on="0"/>
        <pt x="950" y="66" on="0"/>
        <pt x="888" y="160" on="1"/>
        <pt x="823" y="65" on="0"/>
        <pt x="657" y="-24" on="0"/>
        <pt x="517" y="-24" on="1"/>
        <pt x="319" y="-24" on="0"/>
        <pt x="85" y="263" on="0"/>
        <pt x="85" y="522" on="1"/>
        <pt x="85" y="718" on="0"/>
        <pt x="206" y="1007" on="0"/>
        <pt x="413" y="1154" on="0"/>
        <pt x="539" y="1154" on="1"/>
        <pt x="673" y="1154" on="0"/>
        <pt x="829" y="1006" on="0"/>
        <pt x="829" y="879" on="1"/>
        <pt x="829" y="738" on="0"/>
        <pt x="639" y="570" on="0"/>
        <pt x="475" y="570" on="1"/>
        <pt x="355" y="570" on="0"/>
        <pt x="258" y="633" on="1"/>
        <pt x="253" y="579" on="0"/>
        <pt x="253" y="517" on="1"/>
        <pt x="253" y="332" on="0"/>
        <pt x="392" y="138" on="0"/>
        <pt x="515" y="138" on="1"/>
        <pt x="637" y="138" on="0"/>
        <pt x="793" y="275" on="0"/>
        <pt x="810" y="399" on="1"/>
        <pt x="967" y="399" on="1"/>
        <pt x="975" y="275" on="0"/>
        <pt x="1115" y="138" on="0"/>
        <pt x="1226" y="138" on="1"/>
        <pt x="1339" y="138" on="0"/>
        <pt x="1474" y="298" on="0"/>
        <pt x="1474" y="431" on="1"/>
        <pt x="1474" y="619" on="0"/>
        <pt x="1261" y="907" on="0"/>
        <pt x="1071" y="971" on="1"/>
        <pt x="961" y="971" on="1"/>
        <pt x="961" y="1130" on="1"/>
        <pt x="1421" y="1130" on="1"/>
        <pt x="1421" y="971" on="1"/>
      </contour>
      <contour>
        <pt x="286" y="776" on="1"/>
        <pt x="363" y="714" on="0"/>
        <pt x="462" y="714" on="1"/>
        <pt x="563" y="714" on="0"/>
        <pt x="669" y="797" on="0"/>
        <pt x="669" y="872" on="1"/>
        <pt x="669" y="937" on="0"/>
        <pt x="596" y="1010" on="0"/>
        <pt x="535" y="1010" on="1"/>
        <pt x="455" y="1010" on="0"/>
        <pt x="321" y="890" on="0"/>
      </contour>
      <contour>
        <pt x="794" y="-294" on="1"/>
        <pt x="810" y="31" on="1"/>
        <pt x="968" y="31" on="1"/>
        <pt x="984" y="-294" on="1"/>
      </contour>
    </TTGlyph>
    <TTGlyph name="glyph00141" xMin="56" yMin="-24" xMax="1527" yMax="1154">
      <contour>
        <pt x="1417" y="621" on="1"/>
        <pt x="1527" y="481" on="0"/>
        <pt x="1527" y="310" on="1"/>
        <pt x="1527" y="152" on="0"/>
        <pt x="1332" y="-24" on="0"/>
        <pt x="1150" y="-24" on="1"/>
        <pt x="1033" y="-24" on="0"/>
        <pt x="875" y="64" on="0"/>
        <pt x="812" y="160" on="1"/>
        <pt x="753" y="65" on="0"/>
        <pt x="587" y="-24" on="0"/>
        <pt x="448" y="-24" on="1"/>
        <pt x="290" y="-24" on="0"/>
        <pt x="102" y="151" on="0"/>
        <pt x="102" y="279" on="1"/>
        <pt x="102" y="357" on="0"/>
        <pt x="158" y="477" on="0"/>
        <pt x="265" y="581" on="0"/>
        <pt x="385" y="658" on="1"/>
        <pt x="496" y="729" on="0"/>
        <pt x="558" y="816" on="0"/>
        <pt x="558" y="865" on="1"/>
        <pt x="558" y="1004" on="0"/>
        <pt x="392" y="1004" on="1"/>
        <pt x="310" y="1004" on="0"/>
        <pt x="222" y="932" on="0"/>
        <pt x="222" y="864" on="1"/>
        <pt x="222" y="801" on="0"/>
        <pt x="263" y="744" on="1"/>
        <pt x="118" y="680" on="1"/>
        <pt x="56" y="779" on="0"/>
        <pt x="56" y="882" on="1"/>
        <pt x="56" y="1000" on="0"/>
        <pt x="237" y="1154" on="0"/>
        <pt x="393" y="1154" on="1"/>
        <pt x="642" y="1154" on="0"/>
        <pt x="705" y="970" on="1"/>
        <pt x="778" y="881" on="0"/>
        <pt x="940" y="789" on="0"/>
        <pt x="1037" y="789" on="1"/>
        <pt x="1120" y="789" on="0"/>
        <pt x="1207" y="857" on="0"/>
        <pt x="1207" y="922" on="1"/>
        <pt x="1207" y="947" on="0"/>
        <pt x="1199" y="971" on="1"/>
        <pt x="866" y="971" on="1"/>
        <pt x="866" y="1130" on="1"/>
        <pt x="1284" y="1130" on="1"/>
        <pt x="1375" y="1040" on="0"/>
        <pt x="1375" y="920" on="1"/>
        <pt x="1375" y="787" on="0"/>
        <pt x="1206" y="637" on="0"/>
        <pt x="1055" y="637" on="1"/>
        <pt x="845" y="637" on="0"/>
        <pt x="704" y="770" on="1"/>
        <pt x="683" y="707" on="0"/>
        <pt x="569" y="590" on="0"/>
        <pt x="461" y="521" on="1"/>
        <pt x="376" y="466" on="0"/>
        <pt x="306" y="403" on="0"/>
        <pt x="271" y="334" on="0"/>
        <pt x="271" y="289" on="1"/>
        <pt x="271" y="216" on="0"/>
        <pt x="369" y="138" on="0"/>
        <pt x="458" y="138" on="1"/>
        <pt x="711" y="138" on="0"/>
        <pt x="734" y="399" on="1"/>
        <pt x="891" y="399" on="1"/>
        <pt x="899" y="274" on="0"/>
        <pt x="1038" y="138" on="0"/>
        <pt x="1150" y="138" on="1"/>
        <pt x="1251" y="138" on="0"/>
        <pt x="1359" y="232" on="0"/>
        <pt x="1359" y="317" on="1"/>
        <pt x="1359" y="430" on="0"/>
        <pt x="1272" y="526" on="1"/>
      </contour>
    </TTGlyph>
    <TTGlyph name="glyph00142" xMin="85" yMin="-294" xMax="2749" yMax="1619">
      <contour>
        <pt x="1145" y="186" on="1"/>
        <pt x="1066" y="82" on="0"/>
        <pt x="821" y="-24" on="0"/>
        <pt x="668" y="-24" on="1"/>
        <pt x="497" y="-24" on="0"/>
        <pt x="230" y="107" on="0"/>
        <pt x="85" y="355" on="0"/>
        <pt x="85" y="520" on="1"/>
        <pt x="85" y="821" on="0"/>
        <pt x="304" y="971" on="1"/>
        <pt x="85" y="971" on="1"/>
        <pt x="85" y="1130" on="1"/>
        <pt x="816" y="1130" on="1"/>
        <pt x="922" y="1130" on="0"/>
        <pt x="1030" y="1152" on="0"/>
        <pt x="1083" y="1215" on="0"/>
        <pt x="1083" y="1268" on="1"/>
        <pt x="1083" y="1399" on="0"/>
        <pt x="950" y="1529" on="1"/>
        <pt x="1083" y="1619" on="1"/>
        <pt x="1167" y="1525" on="0"/>
        <pt x="1249" y="1354" on="0"/>
        <pt x="1249" y="1254" on="1"/>
        <pt x="1249" y="1154" on="0"/>
        <pt x="1130" y="1009" on="0"/>
        <pt x="1020" y="985" on="1"/>
        <pt x="1139" y="903" on="0"/>
        <pt x="1249" y="677" on="0"/>
        <pt x="1249" y="520" on="1"/>
        <pt x="1249" y="420" on="0"/>
        <pt x="1220" y="332" on="1"/>
        <pt x="1301" y="234" on="0"/>
        <pt x="1472" y="138" on="0"/>
        <pt x="1578" y="138" on="1"/>
        <pt x="1699" y="138" on="0"/>
        <pt x="1836" y="296" on="0"/>
        <pt x="1836" y="431" on="1"/>
        <pt x="1836" y="626" on="0"/>
        <pt x="1635" y="910" on="0"/>
        <pt x="1434" y="999" on="1"/>
        <pt x="1522" y="1158" on="1"/>
        <pt x="1757" y="1041" on="0"/>
        <pt x="2004" y="671" on="0"/>
        <pt x="2004" y="440" on="1"/>
        <pt x="2004" y="367" on="0"/>
        <pt x="1990" y="304" on="1"/>
        <pt x="2066" y="219" on="0"/>
        <pt x="2226" y="138" on="0"/>
        <pt x="2319" y="138" on="1"/>
        <pt x="2442" y="138" on="0"/>
        <pt x="2581" y="294" on="0"/>
        <pt x="2581" y="431" on="1"/>
        <pt x="2581" y="619" on="0"/>
        <pt x="2368" y="907" on="0"/>
        <pt x="2178" y="971" on="1"/>
        <pt x="2068" y="971" on="1"/>
        <pt x="2068" y="1130" on="1"/>
        <pt x="2518" y="1130" on="1"/>
        <pt x="2518" y="971" on="1"/>
        <pt x="2462" y="971" on="1"/>
        <pt x="2608" y="871" on="0"/>
        <pt x="2749" y="609" on="0"/>
        <pt x="2749" y="440" on="1"/>
        <pt x="2749" y="231" on="0"/>
        <pt x="2527" y="-24" on="0"/>
        <pt x="2317" y="-24" on="1"/>
        <pt x="2209" y="-24" on="0"/>
        <pt x="2014" y="62" on="0"/>
        <pt x="1927" y="148" on="1"/>
        <pt x="1869" y="62" on="0"/>
        <pt x="1691" y="-24" on="0"/>
        <pt x="1571" y="-24" on="1"/>
        <pt x="1455" y="-24" on="0"/>
        <pt x="1248" y="75" on="0"/>
      </contour>
      <contour>
        <pt x="671" y="971" on="1"/>
        <pt x="483" y="971" on="0"/>
        <pt x="253" y="743" on="0"/>
        <pt x="253" y="556" on="1"/>
        <pt x="253" y="363" on="0"/>
        <pt x="476" y="143" on="0"/>
        <pt x="669" y="143" on="1"/>
        <pt x="862" y="143" on="0"/>
        <pt x="1081" y="370" on="0"/>
        <pt x="1081" y="556" on="1"/>
        <pt x="1081" y="744" on="0"/>
        <pt x="851" y="971" on="0"/>
      </contour>
      <contour>
        <pt x="1847" y="-294" on="1"/>
        <pt x="1863" y="31" on="1"/>
        <pt x="2021" y="31" on="1"/>
        <pt x="2037" y="-294" on="1"/>
      </contour>
    </TTGlyph>
    <TTGlyph name="glyph00143" xMin="82" yMin="-24" xMax="1600" yMax="1338">
      <contour>
        <pt x="885" y="160" on="1"/>
        <pt x="810" y="65" on="0"/>
        <pt x="638" y="-24" on="0"/>
        <pt x="497" y="-24" on="1"/>
        <pt x="305" y="-24" on="0"/>
        <pt x="82" y="224" on="0"/>
        <pt x="82" y="443" on="1"/>
        <pt x="82" y="591" on="0"/>
        <pt x="189" y="829" on="0"/>
        <pt x="288" y="892" on="1"/>
        <pt x="233" y="931" on="0"/>
        <pt x="174" y="1040" on="0"/>
        <pt x="174" y="1097" on="1"/>
        <pt x="174" y="1208" on="0"/>
        <pt x="345" y="1333" on="0"/>
        <pt x="508" y="1338" on="1"/>
        <pt x="524" y="1179" on="1"/>
        <pt x="430" y="1177" on="0"/>
        <pt x="336" y="1127" on="0"/>
        <pt x="336" y="1075" on="1"/>
        <pt x="336" y="990" on="0"/>
        <pt x="463" y="949" on="1"/>
        <pt x="480" y="951" on="0"/>
        <pt x="497" y="951" on="1"/>
        <pt x="624" y="951" on="0"/>
        <pt x="777" y="815" on="0"/>
        <pt x="777" y="700" on="1"/>
        <pt x="777" y="576" on="0"/>
        <pt x="600" y="429" on="0"/>
        <pt x="441" y="429" on="1"/>
        <pt x="332" y="429" on="0"/>
        <pt x="243" y="481" on="1"/>
        <pt x="243" y="437" on="1"/>
        <pt x="243" y="287" on="0"/>
        <pt x="380" y="138" on="0"/>
        <pt x="518" y="138" on="1"/>
        <pt x="763" y="138" on="0"/>
        <pt x="807" y="399" on="1"/>
        <pt x="964" y="399" on="1"/>
        <pt x="975" y="274" on="0"/>
        <pt x="1113" y="138" on="0"/>
        <pt x="1223" y="138" on="1"/>
        <pt x="1324" y="138" on="0"/>
        <pt x="1432" y="240" on="0"/>
        <pt x="1432" y="332" on="1"/>
        <pt x="1432" y="438" on="0"/>
        <pt x="1287" y="599" on="0"/>
        <pt x="1171" y="626" on="1"/>
        <pt x="1020" y="626" on="1"/>
        <pt x="1020" y="779" on="1"/>
        <pt x="1166" y="779" on="1"/>
        <pt x="1235" y="779" on="0"/>
        <pt x="1305" y="798" on="0"/>
        <pt x="1347" y="844" on="0"/>
        <pt x="1347" y="883" on="1"/>
        <pt x="1347" y="934" on="0"/>
        <pt x="1307" y="971" on="1"/>
        <pt x="869" y="971" on="1"/>
        <pt x="869" y="1130" on="1"/>
        <pt x="1427" y="1130" on="1"/>
        <pt x="1427" y="1058" on="1"/>
        <pt x="1515" y="988" on="0"/>
        <pt x="1515" y="887" on="1"/>
        <pt x="1515" y="821" on="0"/>
        <pt x="1454" y="709" on="0"/>
        <pt x="1393" y="673" on="1"/>
        <pt x="1600" y="548" on="0"/>
        <pt x="1600" y="320" on="1"/>
        <pt x="1600" y="158" on="0"/>
        <pt x="1409" y="-24" on="0"/>
        <pt x="1233" y="-24" on="1"/>
        <pt x="1117" y="-24" on="0"/>
        <pt x="950" y="65" on="0"/>
      </contour>
      <contour>
        <pt x="268" y="622" on="1"/>
        <pt x="339" y="573" on="0"/>
        <pt x="425" y="573" on="1"/>
        <pt x="617" y="573" on="0"/>
        <pt x="617" y="693" on="1"/>
        <pt x="617" y="746" on="0"/>
        <pt x="549" y="807" on="0"/>
        <pt x="494" y="807" on="1"/>
        <pt x="414" y="807" on="0"/>
        <pt x="298" y="711" on="0"/>
      </contour>
    </TTGlyph>
    <TTGlyph name="glyph00144" xMin="85" yMin="-24" xMax="1249" yMax="1130">
      <contour>
        <pt x="1028" y="974" on="1"/>
        <pt x="1142" y="894" on="0"/>
        <pt x="1249" y="671" on="0"/>
        <pt x="1249" y="520" on="1"/>
        <pt x="1249" y="362" on="0"/>
        <pt x="1109" y="114" on="0"/>
        <pt x="843" y="-24" on="0"/>
        <pt x="668" y="-24" on="1"/>
        <pt x="497" y="-24" on="0"/>
        <pt x="230" y="107" on="0"/>
        <pt x="85" y="355" on="0"/>
        <pt x="85" y="520" on="1"/>
        <pt x="85" y="821" on="0"/>
        <pt x="304" y="971" on="1"/>
        <pt x="85" y="971" on="1"/>
        <pt x="85" y="1130" on="1"/>
        <pt x="1028" y="1130" on="1"/>
      </contour>
      <contour>
        <pt x="671" y="971" on="1"/>
        <pt x="483" y="971" on="0"/>
        <pt x="253" y="743" on="0"/>
        <pt x="253" y="555" on="1"/>
        <pt x="253" y="362" on="0"/>
        <pt x="476" y="142" on="0"/>
        <pt x="669" y="142" on="1"/>
        <pt x="862" y="142" on="0"/>
        <pt x="1081" y="369" on="0"/>
        <pt x="1081" y="555" on="1"/>
        <pt x="1081" y="743" on="0"/>
        <pt x="852" y="971" on="0"/>
      </contour>
      <contour>
        <pt x="666" y="687" on="1"/>
        <pt x="716" y="687" on="0"/>
        <pt x="786" y="617" on="0"/>
        <pt x="786" y="566" on="1"/>
        <pt x="786" y="516" on="0"/>
        <pt x="715" y="446" on="0"/>
        <pt x="666" y="446" on="1"/>
        <pt x="617" y="446" on="0"/>
        <pt x="548" y="517" on="0"/>
        <pt x="548" y="566" on="1"/>
        <pt x="548" y="615" on="0"/>
        <pt x="615" y="687" on="0"/>
      </contour>
    </TTGlyph>
    <TTGlyph name="glyph00145" xMin="85" yMin="-24" xMax="1493" yMax="1130">
      <contour>
        <pt x="359" y="971" on="1"/>
        <pt x="85" y="971" on="1"/>
        <pt x="85" y="1130" on="1"/>
        <pt x="1267" y="1130" on="1"/>
        <pt x="1267" y="971" on="1"/>
        <pt x="1264" y="971" on="1"/>
        <pt x="1339" y="925" on="0"/>
        <pt x="1416" y="780" on="0"/>
        <pt x="1416" y="691" on="1"/>
        <pt x="1416" y="670" on="0"/>
        <pt x="1415" y="651" on="1"/>
        <pt x="1454" y="592" on="0"/>
        <pt x="1493" y="454" on="0"/>
        <pt x="1493" y="376" on="1"/>
        <pt x="1493" y="199" on="0"/>
        <pt x="1287" y="-24" on="0"/>
        <pt x="1127" y="-24" on="1"/>
        <pt x="1003" y="-24" on="0"/>
        <pt x="846" y="60" on="0"/>
        <pt x="782" y="160" on="1"/>
        <pt x="733" y="74" on="0"/>
        <pt x="575" y="-24" on="0"/>
        <pt x="443" y="-24" on="1"/>
        <pt x="275" y="-24" on="0"/>
        <pt x="85" y="223" on="0"/>
        <pt x="85" y="449" on="1"/>
        <pt x="85" y="625" on="0"/>
        <pt x="227" y="898" on="0"/>
      </contour>
      <contour>
        <pt x="704" y="376" on="1"/>
        <pt x="861" y="376" on="1"/>
        <pt x="878" y="262" on="0"/>
        <pt x="1010" y="138" on="0"/>
        <pt x="1110" y="138" on="1"/>
        <pt x="1215" y="138" on="0"/>
        <pt x="1339" y="262" on="0"/>
        <pt x="1339" y="378" on="1"/>
        <pt x="1339" y="431" on="0"/>
        <pt x="1327" y="487" on="1"/>
        <pt x="1242" y="398" on="0"/>
        <pt x="1110" y="398" on="1"/>
        <pt x="998" y="398" on="0"/>
        <pt x="861" y="513" on="0"/>
        <pt x="861" y="616" on="1"/>
        <pt x="861" y="713" on="0"/>
        <pt x="991" y="824" on="0"/>
        <pt x="1094" y="824" on="1"/>
        <pt x="1181" y="824" on="0"/>
        <pt x="1250" y="790" on="1"/>
        <pt x="1206" y="874" on="0"/>
        <pt x="988" y="971" on="0"/>
        <pt x="841" y="971" on="1"/>
        <pt x="770" y="971" on="1"/>
        <pt x="529" y="971" on="0"/>
        <pt x="253" y="684" on="0"/>
        <pt x="253" y="448" on="1"/>
        <pt x="253" y="291" on="0"/>
        <pt x="355" y="138" on="0"/>
        <pt x="464" y="138" on="1"/>
        <pt x="558" y="138" on="0"/>
        <pt x="683" y="262" on="0"/>
      </contour>
      <contour>
        <pt x="1263" y="625" on="1"/>
        <pt x="1202" y="699" on="0"/>
        <pt x="1113" y="699" on="1"/>
        <pt x="1069" y="699" on="0"/>
        <pt x="1014" y="655" on="0"/>
        <pt x="1014" y="617" on="1"/>
        <pt x="1014" y="527" on="0"/>
        <pt x="1121" y="527" on="1"/>
        <pt x="1169" y="527" on="0"/>
        <pt x="1248" y="578" on="0"/>
      </contour>
    </TTGlyph>
    <TTGlyph name="glyph00146" xMin="85" yMin="-294" xMax="1493" yMax="1130">
      <contour>
        <pt x="359" y="971" on="1"/>
        <pt x="85" y="971" on="1"/>
        <pt x="85" y="1130" on="1"/>
        <pt x="1267" y="1130" on="1"/>
        <pt x="1267" y="971" on="1"/>
        <pt x="1264" y="971" on="1"/>
        <pt x="1339" y="925" on="0"/>
        <pt x="1416" y="780" on="0"/>
        <pt x="1416" y="691" on="1"/>
        <pt x="1416" y="670" on="0"/>
        <pt x="1415" y="651" on="1"/>
        <pt x="1454" y="592" on="0"/>
        <pt x="1493" y="454" on="0"/>
        <pt x="1493" y="376" on="1"/>
        <pt x="1493" y="199" on="0"/>
        <pt x="1287" y="-24" on="0"/>
        <pt x="1127" y="-24" on="1"/>
        <pt x="1003" y="-24" on="0"/>
        <pt x="846" y="60" on="0"/>
        <pt x="782" y="160" on="1"/>
        <pt x="733" y="74" on="0"/>
        <pt x="575" y="-24" on="0"/>
        <pt x="443" y="-24" on="1"/>
        <pt x="275" y="-24" on="0"/>
        <pt x="85" y="223" on="0"/>
        <pt x="85" y="449" on="1"/>
        <pt x="85" y="625" on="0"/>
        <pt x="227" y="898" on="0"/>
      </contour>
      <contour>
        <pt x="704" y="376" on="1"/>
        <pt x="861" y="376" on="1"/>
        <pt x="878" y="262" on="0"/>
        <pt x="1010" y="138" on="0"/>
        <pt x="1110" y="138" on="1"/>
        <pt x="1215" y="138" on="0"/>
        <pt x="1339" y="262" on="0"/>
        <pt x="1339" y="378" on="1"/>
        <pt x="1339" y="431" on="0"/>
        <pt x="1327" y="487" on="1"/>
        <pt x="1242" y="398" on="0"/>
        <pt x="1110" y="398" on="1"/>
        <pt x="998" y="398" on="0"/>
        <pt x="861" y="513" on="0"/>
        <pt x="861" y="616" on="1"/>
        <pt x="861" y="713" on="0"/>
        <pt x="991" y="824" on="0"/>
        <pt x="1094" y="824" on="1"/>
        <pt x="1181" y="824" on="0"/>
        <pt x="1250" y="790" on="1"/>
        <pt x="1206" y="874" on="0"/>
        <pt x="988" y="971" on="0"/>
        <pt x="841" y="971" on="1"/>
        <pt x="770" y="971" on="1"/>
        <pt x="529" y="971" on="0"/>
        <pt x="253" y="684" on="0"/>
        <pt x="253" y="448" on="1"/>
        <pt x="253" y="291" on="0"/>
        <pt x="355" y="138" on="0"/>
        <pt x="464" y="138" on="1"/>
        <pt x="558" y="138" on="0"/>
        <pt x="683" y="262" on="0"/>
      </contour>
      <contour>
        <pt x="1263" y="625" on="1"/>
        <pt x="1202" y="699" on="0"/>
        <pt x="1113" y="699" on="1"/>
        <pt x="1069" y="699" on="0"/>
        <pt x="1014" y="655" on="0"/>
        <pt x="1014" y="617" on="1"/>
        <pt x="1014" y="527" on="0"/>
        <pt x="1121" y="527" on="1"/>
        <pt x="1169" y="527" on="0"/>
        <pt x="1248" y="578" on="0"/>
      </contour>
      <contour>
        <pt x="688" y="-294" on="1"/>
        <pt x="704" y="31" on="1"/>
        <pt x="862" y="31" on="1"/>
        <pt x="878" y="-294" on="1"/>
      </contour>
    </TTGlyph>
    <TTGlyph name="glyph00147" xMin="69" yMin="-24" xMax="1690" yMax="1130">
      <contour>
        <pt x="77" y="971" on="1"/>
        <pt x="77" y="1130" on="1"/>
        <pt x="1560" y="1130" on="1"/>
        <pt x="1560" y="971" on="1"/>
      </contour>
      <contour>
        <pt x="1365" y="226" on="1"/>
        <pt x="1225" y="239" on="1"/>
        <pt x="1238" y="271" on="0"/>
        <pt x="1238" y="299" on="1"/>
        <pt x="1238" y="340" on="0"/>
        <pt x="1191" y="382" on="0"/>
        <pt x="1151" y="382" on="1"/>
        <pt x="1097" y="382" on="0"/>
        <pt x="1033" y="321" on="0"/>
        <pt x="1033" y="269" on="1"/>
        <pt x="1033" y="129" on="0"/>
        <pt x="1237" y="129" on="1"/>
        <pt x="1522" y="129" on="0"/>
        <pt x="1522" y="430" on="1"/>
        <pt x="1522" y="443" on="1"/>
        <pt x="1522" y="610" on="0"/>
        <pt x="1349" y="795" on="0"/>
        <pt x="1194" y="795" on="1"/>
        <pt x="1093" y="795" on="0"/>
        <pt x="945" y="685" on="0"/>
        <pt x="922" y="591" on="1"/>
        <pt x="765" y="591" on="1"/>
        <pt x="740" y="689" on="0"/>
        <pt x="582" y="795" on="0"/>
        <pt x="466" y="795" on="1"/>
        <pt x="249" y="795" on="0"/>
        <pt x="249" y="657" on="1"/>
        <pt x="249" y="598" on="0"/>
        <pt x="363" y="524" on="0"/>
        <pt x="495" y="524" on="1"/>
        <pt x="552" y="524" on="1"/>
        <pt x="552" y="380" on="1"/>
        <pt x="471" y="380" on="1"/>
        <pt x="339" y="380" on="0"/>
        <pt x="237" y="312" on="0"/>
        <pt x="237" y="249" on="1"/>
        <pt x="237" y="129" on="0"/>
        <pt x="401" y="129" on="1"/>
        <pt x="464" y="129" on="0"/>
        <pt x="565" y="170" on="0"/>
        <pt x="621" y="215" on="1"/>
        <pt x="719" y="90" on="1"/>
        <pt x="573" y="-24" on="0"/>
        <pt x="395" y="-24" on="1"/>
        <pt x="239" y="-24" on="0"/>
        <pt x="69" y="111" on="0"/>
        <pt x="69" y="225" on="1"/>
        <pt x="69" y="298" on="0"/>
        <pt x="149" y="407" on="0"/>
        <pt x="241" y="451" on="1"/>
        <pt x="81" y="523" on="0"/>
        <pt x="81" y="679" on="1"/>
        <pt x="81" y="794" on="0"/>
        <pt x="287" y="941" on="0"/>
        <pt x="462" y="941" on="1"/>
        <pt x="595" y="941" on="0"/>
        <pt x="773" y="863" on="0"/>
        <pt x="844" y="774" on="1"/>
        <pt x="909" y="860" on="0"/>
        <pt x="1083" y="941" on="0"/>
        <pt x="1209" y="941" on="1"/>
        <pt x="1437" y="941" on="0"/>
        <pt x="1690" y="667" on="0"/>
        <pt x="1690" y="431" on="1"/>
        <pt x="1690" y="221" on="0"/>
        <pt x="1451" y="-24" on="0"/>
        <pt x="1238" y="-24" on="1"/>
        <pt x="1067" y="-24" on="0"/>
        <pt x="877" y="130" on="0"/>
        <pt x="877" y="264" on="1"/>
        <pt x="877" y="375" on="0"/>
        <pt x="1031" y="523" on="0"/>
        <pt x="1155" y="523" on="1"/>
        <pt x="1268" y="523" on="0"/>
        <pt x="1392" y="426" on="0"/>
        <pt x="1392" y="342" on="1"/>
        <pt x="1392" y="269" on="0"/>
      </contour>
    </TTGlyph>
    <TTGlyph name="glyph00148" xMin="70" yMin="-24" xMax="1199" yMax="1130">
      <contour>
        <pt x="969" y="985" on="1"/>
        <pt x="1023" y="939" on="0"/>
        <pt x="1077" y="810" on="0"/>
        <pt x="1077" y="727" on="1"/>
        <pt x="1077" y="714" on="1"/>
        <pt x="1077" y="703" on="1"/>
        <pt x="1136" y="649" on="0"/>
        <pt x="1199" y="505" on="0"/>
        <pt x="1199" y="423" on="1"/>
        <pt x="1199" y="207" on="0"/>
        <pt x="906" y="-24" on="0"/>
        <pt x="627" y="-24" on="1"/>
        <pt x="366" y="-24" on="0"/>
        <pt x="70" y="212" on="0"/>
        <pt x="70" y="411" on="1"/>
        <pt x="70" y="474" on="0"/>
        <pt x="81" y="530" on="1"/>
        <pt x="243" y="508" on="1"/>
        <pt x="235" y="469" on="0"/>
        <pt x="235" y="429" on="1"/>
        <pt x="235" y="289" on="0"/>
        <pt x="434" y="138" on="0"/>
        <pt x="630" y="138" on="1"/>
        <pt x="838" y="138" on="0"/>
        <pt x="1051" y="289" on="0"/>
        <pt x="1051" y="420" on="1"/>
        <pt x="1051" y="487" on="0"/>
        <pt x="1029" y="539" on="1"/>
        <pt x="984" y="460" on="0"/>
        <pt x="810" y="371" on="0"/>
        <pt x="702" y="371" on="1"/>
        <pt x="567" y="371" on="0"/>
        <pt x="420" y="489" on="0"/>
        <pt x="420" y="601" on="1"/>
        <pt x="420" y="707" on="0"/>
        <pt x="575" y="824" on="0"/>
        <pt x="721" y="824" on="1"/>
        <pt x="824" y="824" on="0"/>
        <pt x="919" y="793" on="1"/>
        <pt x="904" y="849" on="0"/>
        <pt x="827" y="938" on="0"/>
        <pt x="764" y="971" on="1"/>
        <pt x="81" y="971" on="1"/>
        <pt x="81" y="1130" on="1"/>
        <pt x="969" y="1130" on="1"/>
      </contour>
      <contour>
        <pt x="912" y="651" on="1"/>
        <pt x="839" y="686" on="0"/>
        <pt x="743" y="686" on="1"/>
        <pt x="662" y="686" on="0"/>
        <pt x="584" y="646" on="0"/>
        <pt x="584" y="603" on="1"/>
        <pt x="584" y="520" on="0"/>
        <pt x="717" y="520" on="1"/>
        <pt x="867" y="520" on="0"/>
      </contour>
    </TTGlyph>
    <TTGlyph name="glyph00149" xMin="85" yMin="-294" xMax="1481" yMax="1130">
      <contour>
        <pt x="359" y="971" on="1"/>
        <pt x="85" y="971" on="1"/>
        <pt x="85" y="1130" on="1"/>
        <pt x="1260" y="1130" on="1"/>
        <pt x="1260" y="971" on="1"/>
        <pt x="1210" y="971" on="1"/>
        <pt x="1340" y="892" on="0"/>
        <pt x="1481" y="621" on="0"/>
        <pt x="1481" y="449" on="1"/>
        <pt x="1481" y="221" on="0"/>
        <pt x="1289" y="-24" on="0"/>
        <pt x="1116" y="-24" on="1"/>
        <pt x="1000" y="-24" on="0"/>
        <pt x="846" y="61" on="0"/>
        <pt x="782" y="160" on="1"/>
        <pt x="733" y="74" on="0"/>
        <pt x="575" y="-24" on="0"/>
        <pt x="443" y="-24" on="1"/>
        <pt x="275" y="-24" on="0"/>
        <pt x="85" y="223" on="0"/>
        <pt x="85" y="449" on="1"/>
        <pt x="85" y="625" on="0"/>
        <pt x="227" y="898" on="0"/>
      </contour>
      <contour>
        <pt x="704" y="376" on="1"/>
        <pt x="861" y="376" on="1"/>
        <pt x="878" y="264" on="0"/>
        <pt x="1006" y="138" on="0"/>
        <pt x="1100" y="138" on="1"/>
        <pt x="1207" y="138" on="0"/>
        <pt x="1313" y="288" on="0"/>
        <pt x="1313" y="443" on="1"/>
        <pt x="1313" y="595" on="0"/>
        <pt x="1190" y="838" on="0"/>
        <pt x="959" y="971" on="0"/>
        <pt x="804" y="971" on="1"/>
        <pt x="770" y="971" on="1"/>
        <pt x="529" y="971" on="0"/>
        <pt x="253" y="684" on="0"/>
        <pt x="253" y="448" on="1"/>
        <pt x="253" y="291" on="0"/>
        <pt x="355" y="138" on="0"/>
        <pt x="464" y="138" on="1"/>
        <pt x="558" y="138" on="0"/>
        <pt x="683" y="262" on="0"/>
      </contour>
      <contour>
        <pt x="782" y="747" on="1"/>
        <pt x="832" y="747" on="0"/>
        <pt x="902" y="677" on="0"/>
        <pt x="902" y="626" on="1"/>
        <pt x="902" y="576" on="0"/>
        <pt x="831" y="506" on="0"/>
        <pt x="782" y="506" on="1"/>
        <pt x="733" y="506" on="0"/>
        <pt x="664" y="577" on="0"/>
        <pt x="664" y="626" on="1"/>
        <pt x="664" y="675" on="0"/>
        <pt x="731" y="747" on="0"/>
      </contour>
      <contour>
        <pt x="688" y="-294" on="1"/>
        <pt x="704" y="31" on="1"/>
        <pt x="862" y="31" on="1"/>
        <pt x="878" y="-294" on="1"/>
      </contour>
    </TTGlyph>
    <TTGlyph name="glyph00150" xMin="85" yMin="-24" xMax="1481" yMax="1130">
      <contour>
        <pt x="359" y="971" on="1"/>
        <pt x="85" y="971" on="1"/>
        <pt x="85" y="1130" on="1"/>
        <pt x="1260" y="1130" on="1"/>
        <pt x="1260" y="971" on="1"/>
        <pt x="1210" y="971" on="1"/>
        <pt x="1340" y="892" on="0"/>
        <pt x="1481" y="621" on="0"/>
        <pt x="1481" y="449" on="1"/>
        <pt x="1481" y="221" on="0"/>
        <pt x="1289" y="-24" on="0"/>
        <pt x="1116" y="-24" on="1"/>
        <pt x="1000" y="-24" on="0"/>
        <pt x="846" y="61" on="0"/>
        <pt x="782" y="160" on="1"/>
        <pt x="733" y="74" on="0"/>
        <pt x="575" y="-24" on="0"/>
        <pt x="443" y="-24" on="1"/>
        <pt x="275" y="-24" on="0"/>
        <pt x="85" y="223" on="0"/>
        <pt x="85" y="449" on="1"/>
        <pt x="85" y="625" on="0"/>
        <pt x="227" y="898" on="0"/>
      </contour>
      <contour>
        <pt x="704" y="399" on="1"/>
        <pt x="861" y="399" on="1"/>
        <pt x="869" y="277" on="0"/>
        <pt x="1003" y="138" on="0"/>
        <pt x="1100" y="138" on="1"/>
        <pt x="1314" y="138" on="0"/>
        <pt x="1314" y="443" on="1"/>
        <pt x="1314" y="593" on="0"/>
        <pt x="1191" y="837" on="0"/>
        <pt x="959" y="971" on="0"/>
        <pt x="804" y="971" on="1"/>
        <pt x="770" y="971" on="1"/>
        <pt x="613" y="971" on="0"/>
        <pt x="378" y="843" on="0"/>
        <pt x="253" y="602" on="0"/>
        <pt x="253" y="447" on="1"/>
        <pt x="253" y="291" on="0"/>
        <pt x="355" y="138" on="0"/>
        <pt x="464" y="138" on="1"/>
        <pt x="563" y="138" on="0"/>
        <pt x="693" y="276" on="0"/>
      </contour>
    </TTGlyph>
    <TTGlyph name="glyph00151" xMin="85" yMin="-294" xMax="1481" yMax="1130">
      <contour>
        <pt x="359" y="971" on="1"/>
        <pt x="85" y="971" on="1"/>
        <pt x="85" y="1130" on="1"/>
        <pt x="1260" y="1130" on="1"/>
        <pt x="1260" y="971" on="1"/>
        <pt x="1210" y="971" on="1"/>
        <pt x="1340" y="892" on="0"/>
        <pt x="1481" y="621" on="0"/>
        <pt x="1481" y="449" on="1"/>
        <pt x="1481" y="221" on="0"/>
        <pt x="1289" y="-24" on="0"/>
        <pt x="1116" y="-24" on="1"/>
        <pt x="1000" y="-24" on="0"/>
        <pt x="846" y="61" on="0"/>
        <pt x="782" y="160" on="1"/>
        <pt x="733" y="74" on="0"/>
        <pt x="575" y="-24" on="0"/>
        <pt x="443" y="-24" on="1"/>
        <pt x="275" y="-24" on="0"/>
        <pt x="85" y="223" on="0"/>
        <pt x="85" y="449" on="1"/>
        <pt x="85" y="625" on="0"/>
        <pt x="227" y="898" on="0"/>
      </contour>
      <contour>
        <pt x="704" y="399" on="1"/>
        <pt x="861" y="399" on="1"/>
        <pt x="869" y="277" on="0"/>
        <pt x="1003" y="138" on="0"/>
        <pt x="1100" y="138" on="1"/>
        <pt x="1314" y="138" on="0"/>
        <pt x="1314" y="443" on="1"/>
        <pt x="1314" y="593" on="0"/>
        <pt x="1191" y="837" on="0"/>
        <pt x="959" y="971" on="0"/>
        <pt x="804" y="971" on="1"/>
        <pt x="770" y="971" on="1"/>
        <pt x="613" y="971" on="0"/>
        <pt x="378" y="843" on="0"/>
        <pt x="253" y="602" on="0"/>
        <pt x="253" y="447" on="1"/>
        <pt x="253" y="291" on="0"/>
        <pt x="355" y="138" on="0"/>
        <pt x="464" y="138" on="1"/>
        <pt x="563" y="138" on="0"/>
        <pt x="693" y="276" on="0"/>
      </contour>
      <contour>
        <pt x="688" y="-294" on="1"/>
        <pt x="704" y="31" on="1"/>
        <pt x="862" y="31" on="1"/>
        <pt x="878" y="-294" on="1"/>
      </contour>
    </TTGlyph>
    <TTGlyph name="glyph00152" xMin="63" yMin="-28" xMax="1371" yMax="1130">
      <contour>
        <pt x="331" y="35" on="1"/>
        <pt x="172" y="-28" on="1"/>
        <pt x="121" y="41" on="0"/>
        <pt x="63" y="213" on="0"/>
        <pt x="63" y="297" on="1"/>
        <pt x="63" y="437" on="0"/>
        <pt x="240" y="625" on="0"/>
        <pt x="370" y="625" on="1"/>
        <pt x="478" y="625" on="0"/>
        <pt x="629" y="532" on="0"/>
        <pt x="715" y="383" on="1"/>
        <pt x="778" y="274" on="0"/>
        <pt x="851" y="184" on="0"/>
        <pt x="943" y="138" on="0"/>
        <pt x="1007" y="138" on="1"/>
        <pt x="1102" y="138" on="0"/>
        <pt x="1203" y="271" on="0"/>
        <pt x="1203" y="390" on="1"/>
        <pt x="1203" y="595" on="0"/>
        <pt x="951" y="925" on="0"/>
        <pt x="751" y="971" on="1"/>
        <pt x="67" y="971" on="1"/>
        <pt x="67" y="1130" on="1"/>
        <pt x="1150" y="1130" on="1"/>
        <pt x="1150" y="971" on="1"/>
        <pt x="1061" y="971" on="1"/>
        <pt x="1214" y="867" on="0"/>
        <pt x="1371" y="576" on="0"/>
        <pt x="1371" y="405" on="1"/>
        <pt x="1371" y="203" on="0"/>
        <pt x="1169" y="-24" on="0"/>
        <pt x="990" y="-24" on="1"/>
        <pt x="901" y="-24" on="0"/>
        <pt x="766" y="37" on="0"/>
        <pt x="664" y="150" on="0"/>
        <pt x="602" y="256" on="1"/>
        <pt x="550" y="344" on="0"/>
        <pt x="481" y="432" on="0"/>
        <pt x="416" y="468" on="0"/>
        <pt x="372" y="468" on="1"/>
        <pt x="305" y="468" on="0"/>
        <pt x="228" y="380" on="0"/>
        <pt x="228" y="303" on="1"/>
        <pt x="228" y="178" on="0"/>
      </contour>
    </TTGlyph>
    <TTGlyph name="glyph00153" xMin="63" yMin="-24" xMax="1541" yMax="1130">
      <contour>
        <pt x="63" y="971" on="1"/>
        <pt x="63" y="1130" on="1"/>
        <pt x="1315" y="1130" on="1"/>
        <pt x="1315" y="971" on="1"/>
      </contour>
      <contour>
        <pt x="1345" y="890" on="1"/>
        <pt x="1541" y="675" on="0"/>
        <pt x="1541" y="406" on="1"/>
        <pt x="1541" y="204" on="0"/>
        <pt x="1340" y="-24" on="0"/>
        <pt x="1182" y="-24" on="1"/>
        <pt x="1063" y="-24" on="0"/>
        <pt x="909" y="52" on="0"/>
        <pt x="840" y="160" on="1"/>
        <pt x="780" y="68" on="0"/>
        <pt x="613" y="-24" on="0"/>
        <pt x="462" y="-24" on="1"/>
        <pt x="286" y="-24" on="0"/>
        <pt x="63" y="178" on="0"/>
        <pt x="63" y="341" on="1"/>
        <pt x="63" y="483" on="0"/>
        <pt x="235" y="664" on="0"/>
        <pt x="374" y="664" on="1"/>
        <pt x="483" y="664" on="0"/>
        <pt x="615" y="560" on="0"/>
        <pt x="615" y="473" on="1"/>
        <pt x="615" y="397" on="0"/>
        <pt x="588" y="352" on="1"/>
        <pt x="448" y="365" on="1"/>
        <pt x="461" y="400" on="0"/>
        <pt x="461" y="431" on="1"/>
        <pt x="461" y="475" on="0"/>
        <pt x="411" y="520" on="0"/>
        <pt x="368" y="520" on="1"/>
        <pt x="299" y="520" on="0"/>
        <pt x="219" y="427" on="0"/>
        <pt x="219" y="349" on="1"/>
        <pt x="219" y="251" on="0"/>
        <pt x="354" y="138" on="0"/>
        <pt x="480" y="138" on="1"/>
        <pt x="738" y="138" on="0"/>
        <pt x="761" y="399" on="1"/>
        <pt x="918" y="399" on="1"/>
        <pt x="927" y="274" on="0"/>
        <pt x="1059" y="138" on="0"/>
        <pt x="1167" y="138" on="1"/>
        <pt x="1267" y="138" on="0"/>
        <pt x="1373" y="269" on="0"/>
        <pt x="1373" y="392" on="1"/>
        <pt x="1373" y="499" on="0"/>
        <pt x="1287" y="694" on="0"/>
        <pt x="1201" y="793" on="1"/>
      </contour>
      <contour>
        <pt x="822" y="849" on="1"/>
        <pt x="872" y="849" on="0"/>
        <pt x="942" y="779" on="0"/>
        <pt x="942" y="728" on="1"/>
        <pt x="942" y="678" on="0"/>
        <pt x="871" y="608" on="0"/>
        <pt x="822" y="608" on="1"/>
        <pt x="773" y="608" on="0"/>
        <pt x="704" y="679" on="0"/>
        <pt x="704" y="728" on="1"/>
        <pt x="704" y="777" on="0"/>
        <pt x="771" y="849" on="0"/>
      </contour>
    </TTGlyph>
    <TTGlyph name="glyph00154" xMin="63" yMin="-294" xMax="1541" yMax="1130">
      <contour>
        <pt x="63" y="971" on="1"/>
        <pt x="63" y="1130" on="1"/>
        <pt x="1315" y="1130" on="1"/>
        <pt x="1315" y="971" on="1"/>
      </contour>
      <contour>
        <pt x="1345" y="890" on="1"/>
        <pt x="1541" y="675" on="0"/>
        <pt x="1541" y="406" on="1"/>
        <pt x="1541" y="204" on="0"/>
        <pt x="1340" y="-24" on="0"/>
        <pt x="1182" y="-24" on="1"/>
        <pt x="1063" y="-24" on="0"/>
        <pt x="909" y="52" on="0"/>
        <pt x="840" y="160" on="1"/>
        <pt x="780" y="68" on="0"/>
        <pt x="613" y="-24" on="0"/>
        <pt x="462" y="-24" on="1"/>
        <pt x="286" y="-24" on="0"/>
        <pt x="63" y="178" on="0"/>
        <pt x="63" y="341" on="1"/>
        <pt x="63" y="483" on="0"/>
        <pt x="235" y="664" on="0"/>
        <pt x="374" y="664" on="1"/>
        <pt x="483" y="664" on="0"/>
        <pt x="615" y="560" on="0"/>
        <pt x="615" y="473" on="1"/>
        <pt x="615" y="397" on="0"/>
        <pt x="588" y="352" on="1"/>
        <pt x="448" y="365" on="1"/>
        <pt x="461" y="400" on="0"/>
        <pt x="461" y="431" on="1"/>
        <pt x="461" y="475" on="0"/>
        <pt x="411" y="520" on="0"/>
        <pt x="368" y="520" on="1"/>
        <pt x="299" y="520" on="0"/>
        <pt x="219" y="427" on="0"/>
        <pt x="219" y="349" on="1"/>
        <pt x="219" y="251" on="0"/>
        <pt x="354" y="138" on="0"/>
        <pt x="480" y="138" on="1"/>
        <pt x="738" y="138" on="0"/>
        <pt x="761" y="399" on="1"/>
        <pt x="918" y="399" on="1"/>
        <pt x="927" y="274" on="0"/>
        <pt x="1059" y="138" on="0"/>
        <pt x="1167" y="138" on="1"/>
        <pt x="1267" y="138" on="0"/>
        <pt x="1373" y="269" on="0"/>
        <pt x="1373" y="392" on="1"/>
        <pt x="1373" y="499" on="0"/>
        <pt x="1287" y="694" on="0"/>
        <pt x="1201" y="793" on="1"/>
      </contour>
      <contour>
        <pt x="822" y="849" on="1"/>
        <pt x="872" y="849" on="0"/>
        <pt x="942" y="779" on="0"/>
        <pt x="942" y="728" on="1"/>
        <pt x="942" y="678" on="0"/>
        <pt x="871" y="608" on="0"/>
        <pt x="822" y="608" on="1"/>
        <pt x="773" y="608" on="0"/>
        <pt x="704" y="679" on="0"/>
        <pt x="704" y="728" on="1"/>
        <pt x="704" y="777" on="0"/>
        <pt x="771" y="849" on="0"/>
      </contour>
      <contour>
        <pt x="745" y="-294" on="1"/>
        <pt x="761" y="31" on="1"/>
        <pt x="919" y="31" on="1"/>
        <pt x="935" y="-294" on="1"/>
      </contour>
    </TTGlyph>
    <TTGlyph name="glyph00155" xMin="56" yMin="-24" xMax="1566" yMax="1154">
      <contour>
        <pt x="1279" y="971" on="1"/>
        <pt x="1566" y="776" on="0"/>
        <pt x="1566" y="441" on="1"/>
        <pt x="1566" y="228" on="0"/>
        <pt x="1339" y="-24" on="0"/>
        <pt x="1142" y="-24" on="1"/>
        <pt x="1030" y="-24" on="0"/>
        <pt x="874" y="66" on="0"/>
        <pt x="812" y="160" on="1"/>
        <pt x="753" y="65" on="0"/>
        <pt x="587" y="-24" on="0"/>
        <pt x="448" y="-24" on="1"/>
        <pt x="290" y="-24" on="0"/>
        <pt x="102" y="151" on="0"/>
        <pt x="102" y="279" on="1"/>
        <pt x="102" y="357" on="0"/>
        <pt x="158" y="477" on="0"/>
        <pt x="265" y="581" on="0"/>
        <pt x="385" y="658" on="1"/>
        <pt x="496" y="729" on="0"/>
        <pt x="558" y="816" on="0"/>
        <pt x="558" y="865" on="1"/>
        <pt x="558" y="1004" on="0"/>
        <pt x="392" y="1004" on="1"/>
        <pt x="310" y="1004" on="0"/>
        <pt x="222" y="932" on="0"/>
        <pt x="222" y="864" on="1"/>
        <pt x="222" y="801" on="0"/>
        <pt x="263" y="744" on="1"/>
        <pt x="118" y="680" on="1"/>
        <pt x="56" y="779" on="0"/>
        <pt x="56" y="882" on="1"/>
        <pt x="56" y="1000" on="0"/>
        <pt x="237" y="1154" on="0"/>
        <pt x="393" y="1154" on="1"/>
        <pt x="555" y="1154" on="0"/>
        <pt x="724" y="996" on="0"/>
        <pt x="724" y="866" on="1"/>
        <pt x="724" y="773" on="0"/>
        <pt x="617" y="621" on="0"/>
        <pt x="461" y="521" on="1"/>
        <pt x="376" y="466" on="0"/>
        <pt x="306" y="403" on="0"/>
        <pt x="271" y="334" on="0"/>
        <pt x="271" y="289" on="1"/>
        <pt x="271" y="216" on="0"/>
        <pt x="369" y="138" on="0"/>
        <pt x="458" y="138" on="1"/>
        <pt x="711" y="138" on="0"/>
        <pt x="734" y="399" on="1"/>
        <pt x="891" y="399" on="1"/>
        <pt x="899" y="275" on="0"/>
        <pt x="1039" y="138" on="0"/>
        <pt x="1150" y="138" on="1"/>
        <pt x="1263" y="138" on="0"/>
        <pt x="1398" y="298" on="0"/>
        <pt x="1398" y="431" on="1"/>
        <pt x="1398" y="619" on="0"/>
        <pt x="1185" y="907" on="0"/>
        <pt x="995" y="971" on="1"/>
        <pt x="887" y="971" on="1"/>
        <pt x="887" y="1130" on="1"/>
        <pt x="1345" y="1130" on="1"/>
        <pt x="1345" y="971" on="1"/>
      </contour>
    </TTGlyph>
    <TTGlyph name="glyph00156" xMin="56" yMin="-294" xMax="1566" yMax="1154">
      <contour>
        <pt x="1279" y="971" on="1"/>
        <pt x="1566" y="776" on="0"/>
        <pt x="1566" y="441" on="1"/>
        <pt x="1566" y="228" on="0"/>
        <pt x="1339" y="-24" on="0"/>
        <pt x="1142" y="-24" on="1"/>
        <pt x="1030" y="-24" on="0"/>
        <pt x="874" y="66" on="0"/>
        <pt x="812" y="160" on="1"/>
        <pt x="753" y="65" on="0"/>
        <pt x="587" y="-24" on="0"/>
        <pt x="448" y="-24" on="1"/>
        <pt x="290" y="-24" on="0"/>
        <pt x="102" y="151" on="0"/>
        <pt x="102" y="279" on="1"/>
        <pt x="102" y="357" on="0"/>
        <pt x="158" y="477" on="0"/>
        <pt x="265" y="581" on="0"/>
        <pt x="385" y="658" on="1"/>
        <pt x="496" y="729" on="0"/>
        <pt x="558" y="816" on="0"/>
        <pt x="558" y="865" on="1"/>
        <pt x="558" y="1004" on="0"/>
        <pt x="392" y="1004" on="1"/>
        <pt x="310" y="1004" on="0"/>
        <pt x="222" y="932" on="0"/>
        <pt x="222" y="864" on="1"/>
        <pt x="222" y="801" on="0"/>
        <pt x="263" y="744" on="1"/>
        <pt x="118" y="680" on="1"/>
        <pt x="56" y="779" on="0"/>
        <pt x="56" y="882" on="1"/>
        <pt x="56" y="1000" on="0"/>
        <pt x="237" y="1154" on="0"/>
        <pt x="393" y="1154" on="1"/>
        <pt x="555" y="1154" on="0"/>
        <pt x="724" y="996" on="0"/>
        <pt x="724" y="866" on="1"/>
        <pt x="724" y="773" on="0"/>
        <pt x="617" y="621" on="0"/>
        <pt x="461" y="521" on="1"/>
        <pt x="376" y="466" on="0"/>
        <pt x="306" y="403" on="0"/>
        <pt x="271" y="334" on="0"/>
        <pt x="271" y="289" on="1"/>
        <pt x="271" y="216" on="0"/>
        <pt x="369" y="138" on="0"/>
        <pt x="458" y="138" on="1"/>
        <pt x="711" y="138" on="0"/>
        <pt x="734" y="399" on="1"/>
        <pt x="891" y="399" on="1"/>
        <pt x="899" y="275" on="0"/>
        <pt x="1039" y="138" on="0"/>
        <pt x="1150" y="138" on="1"/>
        <pt x="1263" y="138" on="0"/>
        <pt x="1398" y="298" on="0"/>
        <pt x="1398" y="431" on="1"/>
        <pt x="1398" y="619" on="0"/>
        <pt x="1185" y="907" on="0"/>
        <pt x="995" y="971" on="1"/>
        <pt x="887" y="971" on="1"/>
        <pt x="887" y="1130" on="1"/>
        <pt x="1345" y="1130" on="1"/>
        <pt x="1345" y="971" on="1"/>
      </contour>
      <contour>
        <pt x="718" y="-294" on="1"/>
        <pt x="734" y="31" on="1"/>
        <pt x="892" y="31" on="1"/>
        <pt x="908" y="-294" on="1"/>
      </contour>
    </TTGlyph>
    <TTGlyph name="glyph00157" xMin="63" yMin="-24" xMax="2292" yMax="1618">
      <contour>
        <pt x="2005" y="971" on="1"/>
        <pt x="2151" y="871" on="0"/>
        <pt x="2292" y="609" on="0"/>
        <pt x="2292" y="440" on="1"/>
        <pt x="2292" y="231" on="0"/>
        <pt x="2070" y="-24" on="0"/>
        <pt x="1860" y="-24" on="1"/>
        <pt x="1650" y="-24" on="0"/>
        <pt x="1477" y="140" on="1"/>
        <pt x="1428" y="59" on="0"/>
        <pt x="1274" y="-24" on="0"/>
        <pt x="1182" y="-24" on="1"/>
        <pt x="1063" y="-24" on="0"/>
        <pt x="909" y="52" on="0"/>
        <pt x="840" y="160" on="1"/>
        <pt x="780" y="68" on="0"/>
        <pt x="613" y="-24" on="0"/>
        <pt x="462" y="-24" on="1"/>
        <pt x="286" y="-24" on="0"/>
        <pt x="63" y="178" on="0"/>
        <pt x="63" y="341" on="1"/>
        <pt x="63" y="483" on="0"/>
        <pt x="235" y="664" on="0"/>
        <pt x="374" y="664" on="1"/>
        <pt x="483" y="664" on="0"/>
        <pt x="615" y="560" on="0"/>
        <pt x="615" y="473" on="1"/>
        <pt x="615" y="397" on="0"/>
        <pt x="588" y="352" on="1"/>
        <pt x="448" y="365" on="1"/>
        <pt x="461" y="402" on="0"/>
        <pt x="461" y="431" on="1"/>
        <pt x="461" y="475" on="0"/>
        <pt x="411" y="520" on="0"/>
        <pt x="368" y="520" on="1"/>
        <pt x="299" y="520" on="0"/>
        <pt x="219" y="427" on="0"/>
        <pt x="219" y="349" on="1"/>
        <pt x="219" y="251" on="0"/>
        <pt x="354" y="138" on="0"/>
        <pt x="480" y="138" on="1"/>
        <pt x="738" y="138" on="0"/>
        <pt x="761" y="399" on="1"/>
        <pt x="918" y="399" on="1"/>
        <pt x="927" y="274" on="0"/>
        <pt x="1059" y="138" on="0"/>
        <pt x="1167" y="138" on="1"/>
        <pt x="1267" y="138" on="0"/>
        <pt x="1373" y="271" on="0"/>
        <pt x="1373" y="392" on="1"/>
        <pt x="1373" y="597" on="0"/>
        <pt x="1116" y="928" on="0"/>
        <pt x="925" y="971" on="1"/>
        <pt x="63" y="971" on="1"/>
        <pt x="63" y="1130" on="1"/>
        <pt x="1108" y="1130" on="1"/>
        <pt x="1214" y="1130" on="0"/>
        <pt x="1322" y="1152" on="0"/>
        <pt x="1375" y="1215" on="0"/>
        <pt x="1375" y="1268" on="1"/>
        <pt x="1375" y="1399" on="0"/>
        <pt x="1242" y="1529" on="1"/>
        <pt x="1375" y="1618" on="1"/>
        <pt x="1459" y="1524" on="0"/>
        <pt x="1541" y="1354" on="0"/>
        <pt x="1541" y="1254" on="1"/>
        <pt x="1541" y="1140" on="0"/>
        <pt x="1386" y="985" on="0"/>
        <pt x="1233" y="974" on="1"/>
        <pt x="1383" y="870" on="0"/>
        <pt x="1541" y="578" on="0"/>
        <pt x="1541" y="405" on="1"/>
        <pt x="1541" y="351" on="0"/>
        <pt x="1533" y="304" on="1"/>
        <pt x="1609" y="219" on="0"/>
        <pt x="1769" y="138" on="0"/>
        <pt x="1862" y="138" on="1"/>
        <pt x="1985" y="138" on="0"/>
        <pt x="2124" y="294" on="0"/>
        <pt x="2124" y="431" on="1"/>
        <pt x="2124" y="619" on="0"/>
        <pt x="1911" y="907" on="0"/>
        <pt x="1721" y="971" on="1"/>
        <pt x="1641" y="971" on="1"/>
        <pt x="1641" y="1130" on="1"/>
        <pt x="2061" y="1130" on="1"/>
        <pt x="2061" y="971" on="1"/>
      </contour>
    </TTGlyph>
    <TTGlyph name="glyph00158" xMin="77" yMin="-24" xMax="2657" yMax="1618">
      <contour>
        <pt x="2370" y="971" on="1"/>
        <pt x="2516" y="871" on="0"/>
        <pt x="2657" y="609" on="0"/>
        <pt x="2657" y="440" on="1"/>
        <pt x="2657" y="231" on="0"/>
        <pt x="2435" y="-24" on="0"/>
        <pt x="2225" y="-24" on="1"/>
        <pt x="2115" y="-24" on="0"/>
        <pt x="1918" y="64" on="0"/>
        <pt x="1830" y="152" on="1"/>
        <pt x="1774" y="64" on="0"/>
        <pt x="1596" y="-24" on="0"/>
        <pt x="1473" y="-24" on="1"/>
        <pt x="1356" y="-24" on="0"/>
        <pt x="1149" y="75" on="0"/>
        <pt x="1051" y="180" on="1"/>
        <pt x="977" y="80" on="0"/>
        <pt x="760" y="-24" on="0"/>
        <pt x="627" y="-24" on="1"/>
        <pt x="457" y="-24" on="0"/>
        <pt x="208" y="126" on="0"/>
        <pt x="77" y="406" on="0"/>
        <pt x="77" y="572" on="1"/>
        <pt x="77" y="738" on="0"/>
        <pt x="216" y="1006" on="0"/>
        <pt x="466" y="1154" on="0"/>
        <pt x="622" y="1154" on="1"/>
        <pt x="794" y="1154" on="0"/>
        <pt x="1040" y="1001" on="0"/>
        <pt x="1168" y="725" on="0"/>
        <pt x="1168" y="566" on="1"/>
        <pt x="1168" y="437" on="0"/>
        <pt x="1128" y="325" on="1"/>
        <pt x="1208" y="230" on="0"/>
        <pt x="1376" y="138" on="0"/>
        <pt x="1475" y="138" on="1"/>
        <pt x="1598" y="138" on="0"/>
        <pt x="1737" y="294" on="0"/>
        <pt x="1737" y="431" on="1"/>
        <pt x="1737" y="619" on="0"/>
        <pt x="1524" y="907" on="0"/>
        <pt x="1334" y="971" on="1"/>
        <pt x="1224" y="971" on="1"/>
        <pt x="1224" y="1130" on="1"/>
        <pt x="1454" y="1130" on="1"/>
        <pt x="1560" y="1130" on="0"/>
        <pt x="1668" y="1152" on="0"/>
        <pt x="1721" y="1215" on="0"/>
        <pt x="1721" y="1268" on="1"/>
        <pt x="1721" y="1399" on="0"/>
        <pt x="1588" y="1529" on="1"/>
        <pt x="1721" y="1618" on="1"/>
        <pt x="1805" y="1524" on="0"/>
        <pt x="1887" y="1354" on="0"/>
        <pt x="1887" y="1254" on="1"/>
        <pt x="1887" y="1146" on="0"/>
        <pt x="1748" y="996" on="0"/>
        <pt x="1615" y="978" on="1"/>
        <pt x="1905" y="782" on="0"/>
        <pt x="1905" y="440" on="1"/>
        <pt x="1905" y="370" on="0"/>
        <pt x="1892" y="310" on="1"/>
        <pt x="1971" y="221" on="0"/>
        <pt x="2132" y="138" on="0"/>
        <pt x="2227" y="138" on="1"/>
        <pt x="2350" y="138" on="0"/>
        <pt x="2489" y="294" on="0"/>
        <pt x="2489" y="431" on="1"/>
        <pt x="2489" y="619" on="0"/>
        <pt x="2276" y="907" on="0"/>
        <pt x="2086" y="971" on="1"/>
        <pt x="2006" y="971" on="1"/>
        <pt x="2006" y="1130" on="1"/>
        <pt x="2426" y="1130" on="1"/>
        <pt x="2426" y="971" on="1"/>
      </contour>
      <contour>
        <pt x="620" y="992" on="1"/>
        <pt x="448" y="992" on="0"/>
        <pt x="245" y="765" on="0"/>
        <pt x="245" y="568" on="1"/>
        <pt x="245" y="363" on="0"/>
        <pt x="443" y="138" on="0"/>
        <pt x="623" y="138" on="1"/>
        <pt x="797" y="138" on="0"/>
        <pt x="1000" y="369" on="0"/>
        <pt x="1000" y="571" on="1"/>
        <pt x="1000" y="768" on="0"/>
        <pt x="799" y="992" on="0"/>
      </contour>
    </TTGlyph>
    <TTGlyph name="glyph00159" xMin="85" yMin="-24" xMax="1249" yMax="1130">
      <contour>
        <pt x="1028" y="974" on="1"/>
        <pt x="1142" y="894" on="0"/>
        <pt x="1249" y="671" on="0"/>
        <pt x="1249" y="520" on="1"/>
        <pt x="1249" y="362" on="0"/>
        <pt x="1109" y="114" on="0"/>
        <pt x="843" y="-24" on="0"/>
        <pt x="668" y="-24" on="1"/>
        <pt x="497" y="-24" on="0"/>
        <pt x="230" y="107" on="0"/>
        <pt x="85" y="355" on="0"/>
        <pt x="85" y="520" on="1"/>
        <pt x="85" y="821" on="0"/>
        <pt x="304" y="971" on="1"/>
        <pt x="85" y="971" on="1"/>
        <pt x="85" y="1130" on="1"/>
        <pt x="1028" y="1130" on="1"/>
      </contour>
      <contour>
        <pt x="671" y="971" on="1"/>
        <pt x="483" y="971" on="0"/>
        <pt x="253" y="743" on="0"/>
        <pt x="253" y="555" on="1"/>
        <pt x="253" y="362" on="0"/>
        <pt x="476" y="142" on="0"/>
        <pt x="669" y="142" on="1"/>
        <pt x="862" y="142" on="0"/>
        <pt x="1081" y="369" on="0"/>
        <pt x="1081" y="555" on="1"/>
        <pt x="1081" y="743" on="0"/>
        <pt x="852" y="971" on="0"/>
      </contour>
    </TTGlyph>
    <TTGlyph name="glyph00160" xMin="75" yMin="-24" xMax="1499" yMax="1154">
      <contour>
        <pt x="236" y="622" on="1"/>
        <pt x="236" y="485" on="0"/>
        <pt x="371" y="263" on="0"/>
        <pt x="619" y="142" on="0"/>
        <pt x="784" y="142" on="1"/>
        <pt x="1044" y="142" on="0"/>
        <pt x="1330" y="371" on="0"/>
        <pt x="1330" y="576" on="1"/>
        <pt x="1330" y="695" on="0"/>
        <pt x="1216" y="900" on="0"/>
        <pt x="1107" y="971" on="1"/>
        <pt x="896" y="971" on="1"/>
        <pt x="896" y="1130" on="1"/>
        <pt x="1268" y="1130" on="1"/>
        <pt x="1268" y="1031" on="1"/>
        <pt x="1499" y="852" on="0"/>
        <pt x="1499" y="575" on="1"/>
        <pt x="1499" y="298" on="0"/>
        <pt x="1126" y="-24" on="0"/>
        <pt x="778" y="-24" on="1"/>
        <pt x="564" y="-24" on="0"/>
        <pt x="244" y="138" on="0"/>
        <pt x="75" y="438" on="0"/>
        <pt x="75" y="630" on="1"/>
        <pt x="75" y="787" on="0"/>
        <pt x="187" y="1027" on="0"/>
        <pt x="382" y="1154" on="0"/>
        <pt x="503" y="1154" on="1"/>
        <pt x="635" y="1154" on="0"/>
        <pt x="789" y="1006" on="0"/>
        <pt x="789" y="879" on="1"/>
        <pt x="789" y="740" on="0"/>
        <pt x="599" y="570" on="0"/>
        <pt x="435" y="570" on="1"/>
        <pt x="323" y="570" on="0"/>
      </contour>
      <contour>
        <pt x="249" y="770" on="1"/>
        <pt x="326" y="716" on="0"/>
        <pt x="421" y="716" on="1"/>
        <pt x="522" y="716" on="0"/>
        <pt x="629" y="799" on="0"/>
        <pt x="629" y="874" on="1"/>
        <pt x="629" y="939" on="0"/>
        <pt x="556" y="1012" on="0"/>
        <pt x="495" y="1012" on="1"/>
        <pt x="405" y="1012" on="0"/>
        <pt x="274" y="888" on="0"/>
      </contour>
    </TTGlyph>
    <TTGlyph name="glyph00161" xMin="66" yMin="-24" xMax="1383" yMax="1154">
      <contour>
        <pt x="1018" y="353" on="1"/>
        <pt x="1067" y="301" on="0"/>
        <pt x="1067" y="216" on="1"/>
        <pt x="1067" y="105" on="0"/>
        <pt x="898" y="-24" on="0"/>
        <pt x="745" y="-24" on="1"/>
        <pt x="605" y="-24" on="0"/>
        <pt x="430" y="100" on="0"/>
        <pt x="430" y="213" on="1"/>
        <pt x="430" y="294" on="0"/>
        <pt x="491" y="353" on="1"/>
        <pt x="293" y="393" on="0"/>
        <pt x="66" y="628" on="0"/>
        <pt x="66" y="788" on="1"/>
        <pt x="66" y="953" on="0"/>
        <pt x="260" y="1154" on="0"/>
        <pt x="425" y="1154" on="1"/>
        <pt x="552" y="1154" on="0"/>
        <pt x="709" y="1021" on="0"/>
        <pt x="709" y="907" on="1"/>
        <pt x="709" y="780" on="0"/>
        <pt x="535" y="636" on="0"/>
        <pt x="369" y="636" on="1"/>
        <pt x="319" y="636" on="0"/>
        <pt x="258" y="652" on="1"/>
        <pt x="302" y="587" on="0"/>
        <pt x="468" y="509" on="0"/>
        <pt x="689" y="477" on="0"/>
        <pt x="751" y="477" on="1"/>
        <pt x="858" y="477" on="0"/>
        <pt x="1089" y="531" on="0"/>
        <pt x="1217" y="656" on="0"/>
        <pt x="1217" y="750" on="1"/>
        <pt x="1217" y="903" on="0"/>
        <pt x="1052" y="971" on="1"/>
        <pt x="857" y="971" on="1"/>
        <pt x="857" y="1130" on="1"/>
        <pt x="1182" y="1130" on="1"/>
        <pt x="1182" y="1033" on="1"/>
        <pt x="1383" y="941" on="0"/>
        <pt x="1383" y="748" on="1"/>
        <pt x="1383" y="599" on="0"/>
        <pt x="1192" y="394" on="0"/>
      </contour>
      <contour>
        <pt x="216" y="801" on="1"/>
        <pt x="276" y="776" on="0"/>
        <pt x="351" y="776" on="1"/>
        <pt x="448" y="776" on="0"/>
        <pt x="549" y="841" on="0"/>
        <pt x="549" y="901" on="1"/>
        <pt x="549" y="951" on="0"/>
        <pt x="475" y="1010" on="0"/>
        <pt x="413" y="1010" on="1"/>
        <pt x="324" y="1010" on="0"/>
        <pt x="216" y="898" on="0"/>
        <pt x="216" y="807" on="1"/>
      </contour>
      <contour>
        <pt x="747" y="353" on="1"/>
        <pt x="719" y="353" on="0"/>
        <pt x="638" y="330" on="0"/>
        <pt x="587" y="271" on="0"/>
        <pt x="587" y="229" on="1"/>
        <pt x="587" y="179" on="0"/>
        <pt x="672" y="120" on="0"/>
        <pt x="749" y="120" on="1"/>
        <pt x="829" y="120" on="0"/>
        <pt x="910" y="176" on="0"/>
        <pt x="910" y="229" on="1"/>
        <pt x="910" y="287" on="0"/>
        <pt x="813" y="353" on="0"/>
      </contour>
    </TTGlyph>
    <TTGlyph name="glyph00162" xMin="63" yMin="-24" xMax="1541" yMax="1130">
      <contour>
        <pt x="1231" y="971" on="1"/>
        <pt x="1384" y="867" on="0"/>
        <pt x="1541" y="576" on="0"/>
        <pt x="1541" y="405" on="1"/>
        <pt x="1541" y="204" on="0"/>
        <pt x="1340" y="-24" on="0"/>
        <pt x="1182" y="-24" on="1"/>
        <pt x="1063" y="-24" on="0"/>
        <pt x="909" y="52" on="0"/>
        <pt x="840" y="160" on="1"/>
        <pt x="780" y="68" on="0"/>
        <pt x="613" y="-24" on="0"/>
        <pt x="462" y="-24" on="1"/>
        <pt x="286" y="-24" on="0"/>
        <pt x="63" y="178" on="0"/>
        <pt x="63" y="341" on="1"/>
        <pt x="63" y="483" on="0"/>
        <pt x="235" y="664" on="0"/>
        <pt x="374" y="664" on="1"/>
        <pt x="483" y="664" on="0"/>
        <pt x="615" y="560" on="0"/>
        <pt x="615" y="473" on="1"/>
        <pt x="615" y="397" on="0"/>
        <pt x="588" y="352" on="1"/>
        <pt x="448" y="365" on="1"/>
        <pt x="461" y="402" on="0"/>
        <pt x="461" y="431" on="1"/>
        <pt x="461" y="475" on="0"/>
        <pt x="411" y="520" on="0"/>
        <pt x="368" y="520" on="1"/>
        <pt x="299" y="520" on="0"/>
        <pt x="219" y="427" on="0"/>
        <pt x="219" y="349" on="1"/>
        <pt x="219" y="251" on="0"/>
        <pt x="354" y="138" on="0"/>
        <pt x="480" y="138" on="1"/>
        <pt x="738" y="138" on="0"/>
        <pt x="761" y="399" on="1"/>
        <pt x="918" y="399" on="1"/>
        <pt x="927" y="274" on="0"/>
        <pt x="1059" y="138" on="0"/>
        <pt x="1167" y="138" on="1"/>
        <pt x="1267" y="138" on="0"/>
        <pt x="1373" y="271" on="0"/>
        <pt x="1373" y="392" on="1"/>
        <pt x="1373" y="597" on="0"/>
        <pt x="1116" y="928" on="0"/>
        <pt x="925" y="971" on="1"/>
        <pt x="63" y="971" on="1"/>
        <pt x="63" y="1130" on="1"/>
        <pt x="1320" y="1130" on="1"/>
        <pt x="1320" y="971" on="1"/>
      </contour>
    </TTGlyph>
    <TTGlyph name="glyph00163" xMin="63" yMin="-24" xMax="1210" yMax="1130">
      <contour>
        <pt x="368" y="753" on="1"/>
        <pt x="216" y="689" on="1"/>
        <pt x="191" y="734" on="0"/>
        <pt x="168" y="811" on="0"/>
        <pt x="168" y="857" on="1"/>
        <pt x="168" y="919" on="0"/>
        <pt x="215" y="971" on="1"/>
        <pt x="63" y="971" on="1"/>
        <pt x="63" y="1130" on="1"/>
        <pt x="989" y="1130" on="1"/>
        <pt x="989" y="989" on="1"/>
        <pt x="1099" y="904" on="0"/>
        <pt x="1210" y="677" on="0"/>
        <pt x="1210" y="542" on="1"/>
        <pt x="1210" y="273" on="0"/>
        <pt x="865" y="-24" on="0"/>
        <pt x="550" y="-24" on="1"/>
        <pt x="316" y="-24" on="0"/>
        <pt x="63" y="156" on="0"/>
        <pt x="63" y="323" on="1"/>
        <pt x="63" y="420" on="0"/>
        <pt x="152" y="549" on="0"/>
        <pt x="318" y="619" on="0"/>
        <pt x="455" y="638" on="1"/>
        <pt x="619" y="659" on="0"/>
        <pt x="717" y="737" on="0"/>
        <pt x="717" y="827" on="1"/>
        <pt x="717" y="898" on="0"/>
        <pt x="619" y="975" on="0"/>
        <pt x="533" y="975" on="1"/>
        <pt x="341" y="975" on="0"/>
        <pt x="341" y="842" on="1"/>
        <pt x="341" y="791" on="0"/>
      </contour>
      <contour>
        <pt x="814" y="971" on="1"/>
        <pt x="799" y="971" on="1"/>
        <pt x="865" y="897" on="0"/>
        <pt x="865" y="804" on="1"/>
        <pt x="865" y="669" on="0"/>
        <pt x="691" y="517" on="0"/>
        <pt x="511" y="495" on="1"/>
        <pt x="354" y="476" on="0"/>
        <pt x="231" y="400" on="0"/>
        <pt x="231" y="323" on="1"/>
        <pt x="231" y="138" on="0"/>
        <pt x="550" y="138" on="1"/>
        <pt x="785" y="138" on="0"/>
        <pt x="1043" y="349" on="0"/>
        <pt x="1043" y="544" on="1"/>
        <pt x="1043" y="824" on="0"/>
      </contour>
    </TTGlyph>
    <TTGlyph name="glyph00164" xMin="63" yMin="-112" xMax="1561" yMax="1130">
      <contour>
        <pt x="63" y="971" on="1"/>
        <pt x="63" y="1130" on="1"/>
        <pt x="1335" y="1130" on="1"/>
        <pt x="1335" y="971" on="1"/>
      </contour>
      <contour>
        <pt x="1417" y="-112" on="1"/>
        <pt x="1337" y="5" on="1"/>
        <pt x="1302" y="-9" on="0"/>
        <pt x="1230" y="-24" on="0"/>
        <pt x="1192" y="-24" on="1"/>
        <pt x="1070" y="-24" on="0"/>
        <pt x="912" y="51" on="0"/>
        <pt x="840" y="160" on="1"/>
        <pt x="780" y="68" on="0"/>
        <pt x="613" y="-24" on="0"/>
        <pt x="462" y="-24" on="1"/>
        <pt x="286" y="-24" on="0"/>
        <pt x="63" y="178" on="0"/>
        <pt x="63" y="341" on="1"/>
        <pt x="63" y="483" on="0"/>
        <pt x="235" y="664" on="0"/>
        <pt x="374" y="664" on="1"/>
        <pt x="483" y="664" on="0"/>
        <pt x="615" y="560" on="0"/>
        <pt x="615" y="473" on="1"/>
        <pt x="615" y="397" on="0"/>
        <pt x="588" y="352" on="1"/>
        <pt x="448" y="365" on="1"/>
        <pt x="461" y="400" on="0"/>
        <pt x="461" y="431" on="1"/>
        <pt x="461" y="475" on="0"/>
        <pt x="411" y="520" on="0"/>
        <pt x="368" y="520" on="1"/>
        <pt x="299" y="520" on="0"/>
        <pt x="219" y="427" on="0"/>
        <pt x="219" y="349" on="1"/>
        <pt x="219" y="251" on="0"/>
        <pt x="354" y="138" on="0"/>
        <pt x="480" y="138" on="1"/>
        <pt x="738" y="138" on="0"/>
        <pt x="761" y="399" on="1"/>
        <pt x="918" y="399" on="1"/>
        <pt x="927" y="272" on="0"/>
        <pt x="1064" y="135" on="0"/>
        <pt x="1178" y="135" on="1"/>
        <pt x="1222" y="135" on="0"/>
        <pt x="1247" y="142" on="1"/>
        <pt x="971" y="541" on="1"/>
        <pt x="1107" y="626" on="1"/>
        <pt x="1369" y="236" on="1"/>
        <pt x="1383" y="264" on="0"/>
        <pt x="1397" y="342" on="0"/>
        <pt x="1397" y="392" on="1"/>
        <pt x="1397" y="498" on="0"/>
        <pt x="1308" y="694" on="0"/>
        <pt x="1221" y="793" on="1"/>
        <pt x="1365" y="890" on="1"/>
        <pt x="1561" y="675" on="0"/>
        <pt x="1561" y="406" on="1"/>
        <pt x="1561" y="311" on="0"/>
        <pt x="1514" y="159" on="0"/>
        <pt x="1468" y="102" on="1"/>
        <pt x="1557" y="-25" on="1"/>
      </contour>
      <contour>
        <pt x="822" y="849" on="1"/>
        <pt x="872" y="849" on="0"/>
        <pt x="942" y="779" on="0"/>
        <pt x="942" y="728" on="1"/>
        <pt x="942" y="678" on="0"/>
        <pt x="871" y="608" on="0"/>
        <pt x="822" y="608" on="1"/>
        <pt x="773" y="608" on="0"/>
        <pt x="704" y="679" on="0"/>
        <pt x="704" y="728" on="1"/>
        <pt x="704" y="777" on="0"/>
        <pt x="771" y="849" on="0"/>
      </contour>
    </TTGlyph>
    <TTGlyph name="glyph00165" xMin="63" yMin="-28" xMax="1372" yMax="1130">
      <contour>
        <pt x="63" y="971" on="1"/>
        <pt x="63" y="1130" on="1"/>
        <pt x="1146" y="1130" on="1"/>
        <pt x="1146" y="971" on="1"/>
      </contour>
      <contour>
        <pt x="331" y="35" on="1"/>
        <pt x="172" y="-28" on="1"/>
        <pt x="121" y="40" on="0"/>
        <pt x="63" y="213" on="0"/>
        <pt x="63" y="298" on="1"/>
        <pt x="63" y="438" on="0"/>
        <pt x="241" y="625" on="0"/>
        <pt x="370" y="625" on="1"/>
        <pt x="452" y="625" on="0"/>
        <pt x="568" y="577" on="0"/>
        <pt x="659" y="481" on="0"/>
        <pt x="715" y="383" on="1"/>
        <pt x="777" y="275" on="0"/>
        <pt x="853" y="184" on="0"/>
        <pt x="942" y="138" on="0"/>
        <pt x="1004" y="138" on="1"/>
        <pt x="1099" y="138" on="0"/>
        <pt x="1204" y="277" on="0"/>
        <pt x="1204" y="398" on="1"/>
        <pt x="1204" y="505" on="0"/>
        <pt x="1119" y="696" on="0"/>
        <pt x="1033" y="793" on="1"/>
        <pt x="1171" y="890" on="1"/>
        <pt x="1372" y="675" on="0"/>
        <pt x="1372" y="415" on="1"/>
        <pt x="1372" y="207" on="0"/>
        <pt x="1171" y="-24" on="0"/>
        <pt x="990" y="-24" on="1"/>
        <pt x="901" y="-24" on="0"/>
        <pt x="766" y="37" on="0"/>
        <pt x="664" y="150" on="0"/>
        <pt x="602" y="256" on="1"/>
        <pt x="550" y="344" on="0"/>
        <pt x="481" y="432" on="0"/>
        <pt x="416" y="468" on="0"/>
        <pt x="372" y="468" on="1"/>
        <pt x="305" y="468" on="0"/>
        <pt x="228" y="380" on="0"/>
        <pt x="228" y="303" on="1"/>
        <pt x="228" y="177" on="0"/>
      </contour>
      <contour>
        <pt x="699" y="886" on="1"/>
        <pt x="749" y="886" on="0"/>
        <pt x="817" y="815" on="0"/>
        <pt x="817" y="765" on="1"/>
        <pt x="817" y="716" on="0"/>
        <pt x="749" y="645" on="0"/>
        <pt x="699" y="645" on="1"/>
        <pt x="649" y="645" on="0"/>
        <pt x="580" y="715" on="0"/>
        <pt x="580" y="765" on="1"/>
        <pt x="580" y="815" on="0"/>
        <pt x="649" y="886" on="0"/>
      </contour>
    </TTGlyph>
    <TTGlyph name="glyph00166" xMin="68" yMin="-24" xMax="1573" yMax="1130">
      <contour>
        <pt x="777" y="971" on="1"/>
        <pt x="903" y="876" on="0"/>
        <pt x="903" y="702" on="1"/>
        <pt x="903" y="672" on="0"/>
        <pt x="898" y="657" on="1"/>
        <pt x="1000" y="769" on="0"/>
        <pt x="1179" y="769" on="1"/>
        <pt x="1362" y="769" on="0"/>
        <pt x="1573" y="551" on="0"/>
        <pt x="1573" y="370" on="1"/>
        <pt x="1573" y="193" on="0"/>
        <pt x="1350" y="-24" on="0"/>
        <pt x="1159" y="-24" on="1"/>
        <pt x="1041" y="-24" on="0"/>
        <pt x="864" y="69" on="0"/>
        <pt x="818" y="158" on="1"/>
        <pt x="768" y="69" on="0"/>
        <pt x="591" y="-24" on="0"/>
        <pt x="473" y="-24" on="1"/>
        <pt x="284" y="-24" on="0"/>
        <pt x="68" y="184" on="0"/>
        <pt x="68" y="370" on="1"/>
        <pt x="68" y="552" on="0"/>
        <pt x="291" y="769" on="0"/>
        <pt x="483" y="769" on="1"/>
        <pt x="563" y="769" on="0"/>
        <pt x="699" y="714" on="0"/>
        <pt x="745" y="659" on="1"/>
        <pt x="747" y="670" on="0"/>
        <pt x="747" y="686" on="1"/>
        <pt x="747" y="781" on="0"/>
        <pt x="617" y="937" on="0"/>
        <pt x="505" y="971" on="1"/>
        <pt x="69" y="971" on="1"/>
        <pt x="69" y="1130" on="1"/>
        <pt x="1330" y="1130" on="1"/>
        <pt x="1330" y="971" on="1"/>
      </contour>
      <contour>
        <pt x="486" y="130" on="1"/>
        <pt x="609" y="130" on="0"/>
        <pt x="742" y="258" on="0"/>
        <pt x="742" y="370" on="1"/>
        <pt x="742" y="484" on="0"/>
        <pt x="609" y="616" on="0"/>
        <pt x="494" y="616" on="1"/>
        <pt x="372" y="616" on="0"/>
        <pt x="237" y="487" on="0"/>
        <pt x="237" y="375" on="1"/>
        <pt x="237" y="260" on="0"/>
        <pt x="371" y="130" on="0"/>
      </contour>
      <contour>
        <pt x="1148" y="130" on="1"/>
        <pt x="1271" y="130" on="0"/>
        <pt x="1404" y="258" on="0"/>
        <pt x="1404" y="370" on="1"/>
        <pt x="1404" y="484" on="0"/>
        <pt x="1271" y="616" on="0"/>
        <pt x="1156" y="616" on="1"/>
        <pt x="1036" y="616" on="0"/>
        <pt x="899" y="485" on="0"/>
        <pt x="899" y="375" on="1"/>
        <pt x="899" y="260" on="0"/>
        <pt x="1033" y="130" on="0"/>
      </contour>
    </TTGlyph>
    <TTGlyph name="glyph00167" xMin="56" yMin="-372" xMax="1527" yMax="1154">
      <component glyphName="glyph00141" x="0" y="0" flags="0x204"/>
      <component glyphName="uni0CBC" x="1318" y="0" flags="0x4"/>
    </TTGlyph>
    <TTGlyph name="glyph00168" xMin="63" yMin="-372" xMax="1541" yMax="1130">
      <contour>
        <pt x="63" y="971" on="1"/>
        <pt x="63" y="1130" on="1"/>
        <pt x="1315" y="1130" on="1"/>
        <pt x="1315" y="971" on="1"/>
      </contour>
      <contour>
        <pt x="1345" y="890" on="1"/>
        <pt x="1541" y="675" on="0"/>
        <pt x="1541" y="406" on="1"/>
        <pt x="1541" y="204" on="0"/>
        <pt x="1340" y="-24" on="0"/>
        <pt x="1182" y="-24" on="1"/>
        <pt x="1063" y="-24" on="0"/>
        <pt x="909" y="52" on="0"/>
        <pt x="840" y="160" on="1"/>
        <pt x="780" y="68" on="0"/>
        <pt x="613" y="-24" on="0"/>
        <pt x="462" y="-24" on="1"/>
        <pt x="286" y="-24" on="0"/>
        <pt x="63" y="178" on="0"/>
        <pt x="63" y="341" on="1"/>
        <pt x="63" y="483" on="0"/>
        <pt x="235" y="664" on="0"/>
        <pt x="374" y="664" on="1"/>
        <pt x="483" y="664" on="0"/>
        <pt x="615" y="560" on="0"/>
        <pt x="615" y="473" on="1"/>
        <pt x="615" y="397" on="0"/>
        <pt x="588" y="352" on="1"/>
        <pt x="448" y="365" on="1"/>
        <pt x="461" y="400" on="0"/>
        <pt x="461" y="431" on="1"/>
        <pt x="461" y="475" on="0"/>
        <pt x="411" y="520" on="0"/>
        <pt x="368" y="520" on="1"/>
        <pt x="299" y="520" on="0"/>
        <pt x="219" y="427" on="0"/>
        <pt x="219" y="349" on="1"/>
        <pt x="219" y="251" on="0"/>
        <pt x="354" y="138" on="0"/>
        <pt x="480" y="138" on="1"/>
        <pt x="738" y="138" on="0"/>
        <pt x="761" y="399" on="1"/>
        <pt x="918" y="399" on="1"/>
        <pt x="927" y="274" on="0"/>
        <pt x="1059" y="138" on="0"/>
        <pt x="1167" y="138" on="1"/>
        <pt x="1267" y="138" on="0"/>
        <pt x="1373" y="269" on="0"/>
        <pt x="1373" y="392" on="1"/>
        <pt x="1373" y="499" on="0"/>
        <pt x="1287" y="694" on="0"/>
        <pt x="1201" y="793" on="1"/>
      </contour>
      <contour>
        <pt x="822" y="849" on="1"/>
        <pt x="872" y="849" on="0"/>
        <pt x="942" y="779" on="0"/>
        <pt x="942" y="728" on="1"/>
        <pt x="942" y="678" on="0"/>
        <pt x="871" y="608" on="0"/>
        <pt x="822" y="608" on="1"/>
        <pt x="773" y="608" on="0"/>
        <pt x="704" y="679" on="0"/>
        <pt x="704" y="728" on="1"/>
        <pt x="704" y="777" on="0"/>
        <pt x="771" y="849" on="0"/>
      </contour>
      <contour>
        <pt x="745" y="-294" on="1"/>
        <pt x="761" y="31" on="1"/>
        <pt x="919" y="31" on="1"/>
        <pt x="935" y="-294" on="1"/>
      </contour>
      <contour>
        <pt x="1172" y="-131" on="1"/>
        <pt x="1222" y="-131" on="0"/>
        <pt x="1292" y="-201" on="0"/>
        <pt x="1292" y="-252" on="1"/>
        <pt x="1292" y="-302" on="0"/>
        <pt x="1221" y="-372" on="0"/>
        <pt x="1172" y="-372" on="1"/>
        <pt x="1123" y="-372" on="0"/>
        <pt x="1054" y="-301" on="0"/>
        <pt x="1054" y="-252" on="1"/>
        <pt x="1054" y="-203" on="0"/>
        <pt x="1121" y="-131" on="0"/>
      </contour>
      <contour>
        <pt x="507" y="-131" on="1"/>
        <pt x="557" y="-131" on="0"/>
        <pt x="627" y="-201" on="0"/>
        <pt x="627" y="-252" on="1"/>
        <pt x="627" y="-302" on="0"/>
        <pt x="556" y="-372" on="0"/>
        <pt x="507" y="-372" on="1"/>
        <pt x="458" y="-372" on="0"/>
        <pt x="389" y="-301" on="0"/>
        <pt x="389" y="-252" on="1"/>
        <pt x="389" y="-203" on="0"/>
        <pt x="456" y="-131" on="0"/>
      </contour>
    </TTGlyph>
    <TTGlyph name="glyph00169" xMin="73" yMin="-24" xMax="1839" yMax="1425">
      <contour>
        <pt x="1751" y="1233" on="1"/>
        <pt x="1664" y="1280" on="0"/>
        <pt x="1572" y="1280" on="1"/>
        <pt x="1487" y="1280" on="0"/>
        <pt x="1375" y="1205" on="0"/>
        <pt x="1349" y="1130" on="1"/>
        <pt x="1404" y="1130" on="1"/>
        <pt x="1592" y="1130" on="0"/>
        <pt x="1767" y="980" on="0"/>
        <pt x="1767" y="855" on="1"/>
        <pt x="1767" y="737" on="0"/>
        <pt x="1617" y="605" on="0"/>
        <pt x="1489" y="605" on="1"/>
        <pt x="1341" y="605" on="0"/>
        <pt x="1174" y="796" on="0"/>
        <pt x="1174" y="964" on="1"/>
        <pt x="1174" y="971" on="1"/>
        <pt x="679" y="971" on="1"/>
        <pt x="682" y="970" on="1"/>
        <pt x="715" y="916" on="0"/>
        <pt x="715" y="866" on="1"/>
        <pt x="715" y="810" on="0"/>
        <pt x="689" y="769" on="1"/>
        <pt x="1104" y="769" on="1"/>
        <pt x="1104" y="626" on="1"/>
        <pt x="905" y="629" on="1"/>
        <pt x="978" y="585" on="0"/>
        <pt x="1057" y="443" on="0"/>
        <pt x="1057" y="357" on="1"/>
        <pt x="1057" y="178" on="0"/>
        <pt x="807" y="-24" on="0"/>
        <pt x="580" y="-24" on="1"/>
        <pt x="366" y="-24" on="0"/>
        <pt x="118" y="181" on="0"/>
        <pt x="118" y="353" on="1"/>
        <pt x="118" y="527" on="0"/>
        <pt x="264" y="628" on="1"/>
        <pt x="73" y="626" on="1"/>
        <pt x="73" y="769" on="1"/>
        <pt x="500" y="769" on="1"/>
        <pt x="553" y="808" on="0"/>
        <pt x="553" y="868" on="1"/>
        <pt x="553" y="920" on="0"/>
        <pt x="519" y="970" on="1"/>
        <pt x="522" y="971" on="1"/>
        <pt x="73" y="971" on="1"/>
        <pt x="73" y="1130" on="1"/>
        <pt x="1192" y="1130" on="1"/>
        <pt x="1230" y="1273" on="0"/>
        <pt x="1438" y="1425" on="0"/>
        <pt x="1589" y="1425" on="1"/>
        <pt x="1726" y="1425" on="0"/>
        <pt x="1839" y="1362" on="1"/>
      </contour>
      <contour>
        <pt x="1327" y="971" on="1"/>
        <pt x="1327" y="956" on="1"/>
        <pt x="1327" y="856" on="0"/>
        <pt x="1415" y="743" on="0"/>
        <pt x="1493" y="743" on="1"/>
        <pt x="1612" y="743" on="0"/>
        <pt x="1612" y="850" on="1"/>
        <pt x="1612" y="892" on="0"/>
        <pt x="1569" y="948" on="0"/>
        <pt x="1497" y="971" on="0"/>
        <pt x="1426" y="971" on="1"/>
      </contour>
      <contour>
        <pt x="587" y="626" on="1"/>
        <pt x="440" y="626" on="0"/>
        <pt x="283" y="492" on="0"/>
        <pt x="283" y="376" on="1"/>
        <pt x="283" y="263" on="0"/>
        <pt x="439" y="136" on="0"/>
        <pt x="587" y="136" on="1"/>
        <pt x="735" y="136" on="0"/>
        <pt x="892" y="263" on="0"/>
        <pt x="892" y="376" on="1"/>
        <pt x="892" y="494" on="0"/>
        <pt x="734" y="626" on="0"/>
      </contour>
    </TTGlyph>
</ttFont>
